<?xml version="1.0" encoding="UTF-8" standalone="no"?>
<!-- Created with Inkscape (http://www.inkscape.org/) -->

<svg
   xmlns:dc="http://purl.org/dc/elements/1.1/"
   xmlns:cc="http://creativecommons.org/ns#"
   xmlns:rdf="http://www.w3.org/1999/02/22-rdf-syntax-ns#"
   xmlns:svg="http://www.w3.org/2000/svg"
   xmlns="http://www.w3.org/2000/svg"
   xmlns:xlink="http://www.w3.org/1999/xlink"
   xmlns:sodipodi="http://sodipodi.sourceforge.net/DTD/sodipodi-0.dtd"
   xmlns:inkscape="http://www.inkscape.org/namespaces/inkscape"
   width="150mm"
   height="100mm"
   viewBox="0 0 150 100"
   version="1.1"
   id="svg10266"
   inkscape:version="0.92.3 (2405546, 2018-03-11)"
   sodipodi:docname="boxModel.svg">
  <defs
     id="defs10260">
    <marker
       inkscape:isstock="true"
       style="overflow:visible;"
       id="marker11807"
       refX="0.0"
       refY="0.0"
       orient="auto"
       inkscape:stockid="Arrow1Mend">
      <path
         transform="scale(0.4) rotate(180) translate(10,0)"
         style="fill-rule:evenodd;stroke:#000000;stroke-width:1pt;stroke-opacity:1;fill:#000000;fill-opacity:1"
         d="M 0.0,0.0 L 5.0,-5.0 L -12.5,0.0 L 5.0,5.0 L 0.0,0.0 z "
         id="path11805" />
    </marker>
    <marker
       inkscape:stockid="Arrow1Mstart"
       orient="auto"
       refY="0.0"
       refX="0.0"
       id="marker11755"
       style="overflow:visible"
       inkscape:isstock="true">
      <path
         id="path11753"
         d="M 0.0,0.0 L 5.0,-5.0 L -12.5,0.0 L 5.0,5.0 L 0.0,0.0 z "
         style="fill-rule:evenodd;stroke:#000000;stroke-width:1pt;stroke-opacity:1;fill:#000000;fill-opacity:1"
         transform="scale(0.4) translate(10,0)" />
    </marker>
    <marker
       inkscape:stockid="Arrow1Mend"
       orient="auto"
       refY="0.0"
       refX="0.0"
       id="Arrow1Mend"
       style="overflow:visible;"
       inkscape:isstock="true"
       inkscape:collect="always">
      <path
         id="path3492"
         d="M 0.0,0.0 L 5.0,-5.0 L -12.5,0.0 L 5.0,5.0 L 0.0,0.0 z "
         style="fill-rule:evenodd;stroke:#000000;stroke-width:1pt;stroke-opacity:1;fill:#000000;fill-opacity:1"
         transform="scale(0.4) rotate(180) translate(10,0)" />
    </marker>
    <marker
       inkscape:isstock="true"
       style="overflow:visible"
       id="marker10923"
       refX="0.0"
       refY="0.0"
       orient="auto"
       inkscape:stockid="Arrow1Mstart"
       inkscape:collect="always">
      <path
         transform="scale(0.4) translate(10,0)"
         style="fill-rule:evenodd;stroke:#000000;stroke-width:1pt;stroke-opacity:1;fill:#000000;fill-opacity:1"
         d="M 0.0,0.0 L 5.0,-5.0 L -12.5,0.0 L 5.0,5.0 L 0.0,0.0 z "
         id="path10921" />
    </marker>
    <marker
       inkscape:stockid="Arrow1Mstart"
       orient="auto"
       refY="0.0"
       refX="0.0"
       id="Arrow1Mstart"
       style="overflow:visible"
       inkscape:isstock="true"
       inkscape:collect="always">
      <path
         id="path3489"
         d="M 0.0,0.0 L 5.0,-5.0 L -12.5,0.0 L 5.0,5.0 L 0.0,0.0 z "
         style="fill-rule:evenodd;stroke:#000000;stroke-width:1pt;stroke-opacity:1;fill:#000000;fill-opacity:1"
         transform="scale(0.4) translate(10,0)" />
    </marker>
    <linearGradient
       inkscape:collect="always"
       id="linearGradient10857">
      <stop
         style="stop-color:#ffffff;stop-opacity:1;"
         offset="0"
         id="stop10853" />
      <stop
         style="stop-color:#ffffff;stop-opacity:0;"
         offset="1"
         id="stop10855" />
    </linearGradient>
    <linearGradient
       inkscape:collect="always"
       id="linearGradient10847">
      <stop
         style="stop-color:#ffffff;stop-opacity:1;"
         offset="0"
         id="stop10843" />
      <stop
         style="stop-color:#ffffff;stop-opacity:0;"
         offset="1"
         id="stop10845" />
    </linearGradient>
    <linearGradient
       inkscape:collect="always"
       xlink:href="#linearGradient10847"
       id="linearGradient10849"
       x1="79.111778"
       y1="212.20876"
       x2="78.844505"
       y2="235.19394"
       gradientUnits="userSpaceOnUse"
       gradientTransform="translate(6.6145833,-4.1577381)" />
    <linearGradient
       inkscape:collect="always"
       xlink:href="#linearGradient10857"
       id="linearGradient10859"
       x1="132.69931"
       y1="246.21878"
       x2="99.825165"
       y2="246.21878"
       gradientUnits="userSpaceOnUse"
       gradientTransform="translate(6.6145833,-4.1577381)" />
  </defs>
  <sodipodi:namedview
     id="base"
     pagecolor="#ffffff"
     bordercolor="#666666"
     borderopacity="1.0"
     inkscape:pageopacity="0.0"
     inkscape:pageshadow="2"
     inkscape:zoom="1.4"
     inkscape:cx="482.2895"
     inkscape:cy="223.43248"
     inkscape:document-units="mm"
     inkscape:current-layer="layer1"
     showgrid="false"
     inkscape:window-width="1920"
     inkscape:window-height="1137"
     inkscape:window-x="2552"
     inkscape:window-y="-8"
     inkscape:window-maximized="1" />
  <metadata
     id="metadata10263">
    <rdf:RDF>
      <cc:Work
         rdf:about="">
        <dc:format>image/svg+xml</dc:format>
        <dc:type
           rdf:resource="http://purl.org/dc/dcmitype/StillImage" />
        <dc:title></dc:title>
      </cc:Work>
    </rdf:RDF>
  </metadata>
  <g
     inkscape:label="Layer 1"
     inkscape:groupmode="layer"
     id="layer1"
     transform="translate(0,-197)">
    <path
       style="fill:#ff7f7f;fill-opacity:1;fill-rule:evenodd;stroke:none;stroke-width:0.26458332px;stroke-linecap:butt;stroke-linejoin:miter;stroke-opacity:1"
       d="m 14.666076,231.47336 0.03341,48.85687 81.078186,0.13363 46.609827,-26.91022 -2.98875,-47.40526 -81.982062,0.49985 z"
       id="path10819"
       inkscape:connector-curvature="0" />
    <path
       style="fill:none;fill-rule:evenodd;stroke:#000000;stroke-width:2;stroke-linecap:butt;stroke-linejoin:miter;stroke-miterlimit:4;stroke-dasharray:none;stroke-opacity:1"
       d="m 142.3875,253.55364 -46.609872,26.91022 -81.078141,-0.13363 -0.03341,-48.85687 h 81.116299 l 43.616375,-25.32498"
       id="path10813"
       inkscape:connector-curvature="0"
       sodipodi:nodetypes="cccccc" />
    <path
       style="fill:none;fill-rule:evenodd;stroke:#000000;stroke-width:2;stroke-linecap:butt;stroke-linejoin:miter;stroke-miterlimit:4;stroke-dasharray:none;stroke-opacity:1"
       d="M 14.156593,231.34808 57.416688,206.64823"
       id="path10815"
       inkscape:connector-curvature="0"
       sodipodi:nodetypes="cc" />
    <path
       style="fill:none;fill-rule:evenodd;stroke:#000000;stroke-width:2;stroke-linecap:butt;stroke-linejoin:miter;stroke-miterlimit:4;stroke-dasharray:none;stroke-opacity:1"
       d="m 95.782375,231.47336 -0.0047,48.9905"
       id="path10817"
       inkscape:connector-curvature="0"
       sodipodi:nodetypes="cc" />
    <rect
       style="fill:url(#linearGradient10849);fill-opacity:1;stroke:none;stroke-width:2;stroke-linecap:butt;stroke-linejoin:miter;stroke-miterlimit:4;stroke-dasharray:none;stroke-dashoffset:0;stroke-opacity:1"
       id="rect10833"
       width="136.57472"
       height="26.192411"
       x="12.895417"
       y="204.64331" />
    <path
       style="fill:none;fill-rule:evenodd;stroke:#000000;stroke-width:1;stroke-linecap:butt;stroke-linejoin:miter;stroke-miterlimit:4;stroke-dasharray:none;stroke-opacity:1;marker-start:url(#Arrow1Mstart)"
       d="m 100.29255,283.48783 48.40259,-27.94526"
       id="path10877"
       inkscape:connector-curvature="0" />
    <rect
       style="fill:url(#linearGradient10859);fill-opacity:1;stroke:none;stroke-width:2;stroke-linecap:butt;stroke-linejoin:miter;stroke-miterlimit:4;stroke-dasharray:none;stroke-dashoffset:0;stroke-opacity:1"
       id="rect10851"
       width="43.297665"
       height="72.964577"
       x="106.30611"
       y="205.31148" />
    <g
       aria-label="Line Width"
       transform="matrix(0.26458333,0,0,0.26458333,9.0200091,197.38584)"
       style="font-style:normal;font-weight:normal;font-size:4px;line-height:125%;font-family:Sans;letter-spacing:0px;word-spacing:0px;fill:#000000;fill-opacity:1;stroke:none;stroke-width:1px;stroke-linecap:butt;stroke-linejoin:miter;stroke-opacity:1"
       id="flowRoot10861">
      <path
         d="m 112.85846,337.032 v 18.02667 h 5.54667 v 2.08 h -7.78667 V 337.032 Z"
         style="font-style:normal;font-variant:normal;font-weight:normal;font-stretch:normal;font-size:26.66666794px;font-family:'Futura LT';-inkscape-font-specification:'Futura LT'"
         id="path12646" />
      <path
         d="m 123.1518,344.60534 v 12.53333 h -2.13334 v -12.53333 z m -2.13334,-5.78667 q 0.45334,-0.45333 1.06667,-0.45333 0.61333,0 1.06667,0.45333 0.45333,0.45333 0.45333,1.06667 0,0.64 -0.45333,1.09333 -0.45334,0.42667 -1.06667,0.42667 -0.61333,0 -1.06667,-0.42667 -0.45333,-0.45333 -0.45333,-1.09333 0,-0.61334 0.45333,-1.06667 z"
         style="font-style:normal;font-variant:normal;font-weight:normal;font-stretch:normal;font-size:26.66666794px;font-family:'Futura LT';-inkscape-font-specification:'Futura LT'"
         id="path12648" />
      <path
         d="m 129.73097,344.60534 v 1.52 h 0.0533 q 1.36,-1.86667 3.57333,-1.86667 2.4,0 3.33334,1.46667 0.93333,1.46667 0.93333,3.97333 v 7.44 h -2.13333 v -7.06666 q 0,-0.90667 -0.08,-1.46667 -0.0533,-0.58667 -0.29334,-1.17333 -0.24,-0.61334 -0.82666,-0.90667 -0.56,-0.29334 -1.44,-0.29334 -0.85334,0 -1.46667,0.32001 -0.58667,0.32 -0.90667,0.77333 -0.32,0.45333 -0.50666,1.17333 -0.16,0.72 -0.21334,1.30667 -0.0267,0.56 -0.0267,1.38667 v 5.94666 h -2.13334 v -12.53333 z"
         style="font-style:normal;font-variant:normal;font-weight:normal;font-stretch:normal;font-size:26.66666794px;font-family:'Futura LT';-inkscape-font-specification:'Futura LT'"
         id="path12650" />
      <path
         d="m 152.5668,351.32534 h -9.84 q 0.0267,1.76 1.17333,2.98667 1.14667,1.2 2.93334,1.2 2.37333,0 3.81333,-2.58667 l 1.81333,1.04 q -1.89333,3.52 -5.78666,3.52 -2.74667,0 -4.45334,-1.84 -1.68,-1.86667 -1.68,-4.61333 0,-2.90667 1.62667,-4.82667 1.62667,-1.94667 4.45333,-1.94667 2.90667,0 4.50667,2.08 1.6,2.05334 1.44,4.98667 z m -9.73334,-1.81333 h 7.49334 q -0.21333,-1.38667 -1.25333,-2.32 -1.04,-0.96001 -2.42667,-0.96001 -1.38667,0 -2.50667,0.96001 -1.12,0.96 -1.30667,2.32 z"
         style="font-style:normal;font-variant:normal;font-weight:normal;font-stretch:normal;font-size:26.66666794px;font-family:'Futura LT';-inkscape-font-specification:'Futura LT'"
         id="path12652" />
      <path
         d="m 164.49013,337.032 5.28,15.06667 6.50667,-16.10667 6.50666,16.10667 5.28,-15.06667 h 2.42667 l -7.70667,21.14667 -6.50666,-16.18667 -6.50667,16.18667 -7.70667,-21.14667 z"
         style="font-style:normal;font-variant:normal;font-weight:normal;font-stretch:normal;font-size:26.66666794px;font-family:'Futura LT';-inkscape-font-specification:'Futura LT'"
         id="path12654" />
      <path
         d="m 194.87055,344.60534 v 12.53333 h -2.13334 v -12.53333 z m -2.13334,-5.78667 q 0.45334,-0.45333 1.06667,-0.45333 0.61333,0 1.06667,0.45333 0.45333,0.45333 0.45333,1.06667 0,0.64 -0.45333,1.09333 -0.45334,0.42667 -1.06667,0.42667 -0.61333,0 -1.06667,-0.42667 -0.45333,-0.45333 -0.45333,-1.09333 0,-0.61334 0.45333,-1.06667 z"
         style="font-style:normal;font-variant:normal;font-weight:normal;font-stretch:normal;font-size:26.66666794px;font-family:'Futura LT';-inkscape-font-specification:'Futura LT'"
         id="path12656" />
      <path
         d="m 204.51639,346.232 q -1.78667,0 -2.93334,1.33334 -1.14666,1.33333 -1.14666,3.17333 0,1.94667 1.09333,3.36 1.12,1.41334 3.01333,1.41334 1.97334,0 3.06667,-1.36 1.12,-1.38667 1.12,-3.38667 0,-1.94667 -1.14667,-3.22667 -1.14666,-1.30667 -3.06666,-1.30667 z m 4.10666,10.90667 v -1.73333 h -0.0533 q -1.6,2.08 -4.32,2.08 -2.66667,0 -4.34667,-1.94667 -1.65333,-1.94666 -1.65333,-4.64 0,-2.77333 1.65333,-4.69333 1.65334,-1.94667 4.37334,-1.94667 2.66666,0 4.29333,2.13333 h 0.0533 v -11.25333 h 2.13334 v 22 z"
         style="font-style:normal;font-variant:normal;font-weight:normal;font-stretch:normal;font-size:26.66666794px;font-family:'Futura LT';-inkscape-font-specification:'Futura LT'"
         id="path12658" />
      <path
         d="m 216.92097,346.57867 v 10.56 h -2.13333 v -10.56 h -1.30667 v -1.97333 h 1.30667 v -4.50667 h 2.13333 v 4.50667 h 2.24 v 1.97333 z"
         style="font-style:normal;font-variant:normal;font-weight:normal;font-stretch:normal;font-size:26.66666794px;font-family:'Futura LT';-inkscape-font-specification:'Futura LT'"
         id="path12660" />
      <path
         d="m 221.08722,335.13867 h 2.13333 V 346.072 l 0.0533,0.0533 q 1.36,-1.86667 3.57333,-1.86667 2.4,0 3.33334,1.46667 0.93333,1.46667 0.93333,3.97333 v 7.44 h -2.13334 v -7.06666 q 0,-0.90667 -0.08,-1.46667 -0.0533,-0.58667 -0.29333,-1.17333 -0.24,-0.61334 -0.82667,-0.90667 -0.56,-0.29334 -1.44,-0.29334 -0.85333,0 -1.46666,0.32001 -0.58667,0.32 -0.90667,0.77333 -0.32,0.45333 -0.50667,1.17333 -0.16,0.72 -0.21333,1.30667 -0.0267,0.56 -0.0267,1.38667 v 5.94666 h -2.13333 z"
         style="font-style:normal;font-variant:normal;font-weight:normal;font-stretch:normal;font-size:26.66666794px;font-family:'Futura LT';-inkscape-font-specification:'Futura LT'"
         id="path12662" />
    </g>
    <g
       aria-label="Layer Height"
       transform="matrix(0,-0.26458333,0.26458333,0,-50.464008,275.48892)"
       style="font-style:normal;font-weight:normal;font-size:4px;line-height:125%;font-family:Sans;letter-spacing:0px;word-spacing:0px;fill:#000000;fill-opacity:1;stroke:none;stroke-width:1px;stroke-linecap:butt;stroke-linejoin:miter;stroke-opacity:1"
       id="flowRoot10869">
      <path
         d="m 6.7920575,195.61013 v 18.02667 h 5.5466665 v 2.08 H 4.5520574 v -20.10667 z"
         style="font-style:normal;font-variant:normal;font-weight:normal;font-stretch:normal;font-size:26.66666794px;font-family:'Futura LT';-inkscape-font-specification:'Futura LT'"
         id="path12665" />
      <path
         d="m 19.752058,204.81013 q -1.786667,0 -2.933334,1.33333 -1.146667,1.33334 -1.146667,3.17334 0,1.94666 1.093334,3.36 1.12,1.41333 3.013333,1.41333 1.973334,0 3.066667,-1.36 1.12,-1.38667 1.12,-3.38667 0,-1.94666 -1.146667,-3.22666 -1.146666,-1.30667 -3.066666,-1.30667 z m 6.24,-1.62667 v 12.53334 h -2.133334 v -1.73334 h -0.05333 q -1.626667,2.08 -4.32,2.08 -2.666667,0 -4.346667,-1.94666 -1.653333,-1.94667 -1.653333,-4.64 0,-2.77334 1.653333,-4.69334 1.653333,-1.94666 4.373334,-1.94666 2.64,0 4.293333,2.13333 h 0.05333 v -1.78667 z"
         style="font-style:normal;font-variant:normal;font-weight:normal;font-stretch:normal;font-size:26.66666794px;font-family:'Futura LT';-inkscape-font-specification:'Futura LT'"
         id="path12667" />
      <path
         d="m 33.596642,214.54346 -5.760001,-11.36 h 2.48 l 4.426667,8.98667 4.053334,-8.98667 h 2.426667 l -9.253334,19.57334 h -2.426667 z"
         style="font-style:normal;font-variant:normal;font-weight:normal;font-stretch:normal;font-size:26.66666794px;font-family:'Futura LT';-inkscape-font-specification:'Futura LT'"
         id="path12669" />
      <path
         d="m 54.10456,209.90346 h -9.84 q 0.02667,1.76 1.173333,2.98667 1.146667,1.2 2.933334,1.2 2.373333,0 3.813333,-2.58667 l 1.813334,1.04 q -1.893334,3.52 -5.786667,3.52 -2.746667,0 -4.453334,-1.84 -1.68,-1.86666 -1.68,-4.61333 0,-2.90667 1.626667,-4.82667 1.626667,-1.94666 4.453334,-1.94666 2.906666,0 4.506666,2.08 1.6,2.05333 1.44,4.98666 z m -9.733333,-1.81333 h 7.493333 q -0.213333,-1.38667 -1.253333,-2.32 -1.04,-0.96 -2.426667,-0.96 -1.386667,0 -2.506667,0.96 -1.12,0.96 -1.306666,2.32 z"
         style="font-style:normal;font-variant:normal;font-weight:normal;font-stretch:normal;font-size:26.66666794px;font-family:'Futura LT';-inkscape-font-specification:'Futura LT'"
         id="path12671" />
      <path
         d="m 59.078724,203.18346 v 1.36 h 0.05333 q 0.666667,-0.88 1.226667,-1.28 0.586667,-0.42666 1.546667,-0.42666 0.88,0 1.92,0.58666 l -1.013333,1.94667 q -0.826667,-0.56 -1.28,-0.56 -2.453334,0 -2.453334,4.64 v 6.26667 h -2.133333 v -12.53334 z"
         style="font-style:normal;font-variant:normal;font-weight:normal;font-stretch:normal;font-size:26.66666794px;font-family:'Futura LT';-inkscape-font-specification:'Futura LT'"
         id="path12673" />
      <path
         d="m 76.586224,203.77013 h 10.293334 v -8.16 h 2.24 v 20.10667 h -2.24 v -9.86667 H 76.586224 v 9.86667 h -2.24 v -20.10667 h 2.24 z"
         style="font-style:normal;font-variant:normal;font-weight:normal;font-stretch:normal;font-size:26.66666794px;font-family:'Futura LT';-inkscape-font-specification:'Futura LT'"
         id="path12675" />
      <path
         d="m 104.20872,209.90346 h -9.839996 q 0.02667,1.76 1.173333,2.98667 1.146667,1.2 2.933334,1.2 2.373329,0 3.813329,-2.58667 l 1.81334,1.04 q -1.89334,3.52 -5.786669,3.52 -2.746667,0 -4.453334,-1.84 -1.68,-1.86666 -1.68,-4.61333 0,-2.90667 1.626667,-4.82667 1.626667,-1.94666 4.453334,-1.94666 2.906662,0 4.506662,2.08 1.6,2.05333 1.44,4.98666 z m -9.733329,-1.81333 h 7.493329 q -0.21333,-1.38667 -1.25333,-2.32 -1.039999,-0.96 -2.426666,-0.96 -1.386666,0 -2.506666,0.96 -1.120001,0.96 -1.306667,2.32 z"
         style="font-style:normal;font-variant:normal;font-weight:normal;font-stretch:normal;font-size:26.66666794px;font-family:'Futura LT';-inkscape-font-specification:'Futura LT'"
         id="path12677" />
      <path
         d="m 109.68956,203.18346 v 12.53334 h -2.13333 v -12.53334 z m -2.13333,-5.78666 q 0.45333,-0.45334 1.06667,-0.45334 0.61333,0 1.06666,0.45334 0.45334,0.45333 0.45334,1.06666 0,0.64 -0.45334,1.09334 -0.45333,0.42666 -1.06666,0.42666 -0.61334,0 -1.06667,-0.42666 -0.45333,-0.45334 -0.45333,-1.09334 0,-0.61333 0.45333,-1.06666 z"
         style="font-style:normal;font-variant:normal;font-weight:normal;font-stretch:normal;font-size:26.66666794px;font-family:'Futura LT';-inkscape-font-specification:'Futura LT'"
         id="path12679" />
      <path
         d="m 119.20206,204.81013 q -1.78667,0 -2.93333,1.33333 -1.14667,1.33334 -1.14667,3.17334 0,1.94666 1.09333,3.36 1.12,1.41333 3.01334,1.41333 1.97333,0 3.06666,-1.36 1.12,-1.38667 1.12,-3.38667 0,-1.94666 -1.14666,-3.22666 -1.14667,-1.30667 -3.06667,-1.30667 z m 6.24,-1.62667 v 11.92 q 0,1.30667 -0.0533,1.97334 -0.0267,0.69333 -0.32,1.65333 -0.29334,0.98667 -0.90667,1.76 -1.73333,2.21333 -4.85333,2.21333 -2.66667,0 -4.4,-1.57333 -1.70667,-1.57333 -1.76,-4.18667 h 2.13333 q 0.0267,1.70667 1.14667,2.74667 1.12,1.04 2.85333,1.04 1.2,0 2,-0.42667 0.82667,-0.4 1.25333,-1.17333 0.42667,-0.74667 0.58667,-1.62667 0.18667,-0.88 0.18667,-2.02666 v -1.49334 h -0.0533 q -0.74666,0.98667 -1.92,1.54667 -1.14666,0.53333 -2.42666,0.53333 -2.66667,0 -4.32,-1.92 -1.65334,-1.92 -1.65334,-4.64 0,-2.74666 1.68,-4.69333 1.68,-1.97333 4.37334,-1.97333 2.66666,0 4.26666,2.13333 h 0.0533 v -1.78667 z"
         style="font-style:normal;font-variant:normal;font-weight:normal;font-stretch:normal;font-size:26.66666794px;font-family:'Futura LT';-inkscape-font-specification:'Futura LT'"
         id="path12681" />
      <path
         d="m 129.60414,193.7168 h 2.13334 v 10.93333 l 0.0533,0.0533 q 1.36,-1.86666 3.57333,-1.86666 2.4,0 3.33334,1.46666 0.93333,1.46667 0.93333,3.97334 v 7.44 h -2.13333 v -7.06667 q 0,-0.90667 -0.08,-1.46667 -0.0533,-0.58666 -0.29334,-1.17333 -0.24,-0.61333 -0.82666,-0.90667 -0.56,-0.29333 -1.44,-0.29333 -0.85334,0 -1.46667,0.32 -0.58667,0.32 -0.90667,0.77333 -0.32,0.45334 -0.50666,1.17334 -0.16,0.72 -0.21334,1.30666 -0.0267,0.56 -0.0267,1.38667 v 5.94667 h -2.13334 z"
         style="font-style:normal;font-variant:normal;font-weight:normal;font-stretch:normal;font-size:26.66666794px;font-family:'Futura LT';-inkscape-font-specification:'Futura LT'"
         id="path12683" />
      <path
         d="m 145.90665,205.1568 v 10.56 h -2.13333 v -10.56 h -1.30667 v -1.97334 h 1.30667 v -4.50666 h 2.13333 v 4.50666 h 2.24 v 1.97334 z"
         style="font-style:normal;font-variant:normal;font-weight:normal;font-stretch:normal;font-size:26.66666794px;font-family:'Futura LT';-inkscape-font-specification:'Futura LT'"
         id="path12685" />
    </g>
    <g
       aria-label="Line Length"
       transform="matrix(0.22913589,-0.13229166,0.13229166,0.22913589,-27.042858,259.30205)"
       style="font-style:normal;font-weight:normal;font-size:4px;line-height:125%;font-family:Sans;letter-spacing:0px;word-spacing:0px;fill:#000000;fill-opacity:1;stroke:none;stroke-width:1px;stroke-linecap:butt;stroke-linejoin:miter;stroke-opacity:1"
       id="flowRoot10905">
      <path
         d="m 407.31745,328.44411 v 18.02667 h 5.54667 v 2.08 h -7.78667 v -20.10667 z"
         style="font-style:normal;font-variant:normal;font-weight:normal;font-stretch:normal;font-size:26.66666794px;font-family:'Futura LT';-inkscape-font-specification:'Futura LT'"
         id="path12625" />
      <path
         d="m 417.61078,336.01745 v 12.53333 h -2.13333 v -12.53333 z m -2.13333,-5.78667 q 0.45333,-0.45333 1.06666,-0.45333 0.61334,0 1.06667,0.45333 0.45333,0.45333 0.45333,1.06667 0,0.64 -0.45333,1.09333 -0.45333,0.42667 -1.06667,0.42667 -0.61333,0 -1.06666,-0.42667 -0.45334,-0.45333 -0.45334,-1.09333 0,-0.61334 0.45334,-1.06667 z"
         style="font-style:normal;font-variant:normal;font-weight:normal;font-stretch:normal;font-size:26.66666794px;font-family:'Futura LT';-inkscape-font-specification:'Futura LT'"
         id="path12627" />
      <path
         d="m 424.18995,336.01745 v 1.52 h 0.0533 q 1.36,-1.86667 3.57334,-1.86667 2.4,0 3.33333,1.46667 0.93333,1.46666 0.93333,3.97333 v 7.44 h -2.13333 v -7.06667 q 0,-0.90666 -0.08,-1.46666 -0.0533,-0.58667 -0.29333,-1.17334 -0.24,-0.61333 -0.82667,-0.90666 -0.56,-0.29334 -1.44,-0.29334 -0.85333,0 -1.46667,0.32 -0.58666,0.32 -0.90666,0.77334 -0.32,0.45333 -0.50667,1.17333 -0.16,0.72 -0.21333,1.30667 -0.0267,0.56 -0.0267,1.38666 v 5.94667 h -2.13333 v -12.53333 z"
         style="font-style:normal;font-variant:normal;font-weight:normal;font-stretch:normal;font-size:26.66666794px;font-family:'Futura LT';-inkscape-font-specification:'Futura LT'"
         id="path12629" />
      <path
         d="m 447.02578,342.73745 h -9.84 q 0.0267,1.76 1.17334,2.98666 1.14666,1.2 2.93333,1.2 2.37333,0 3.81333,-2.58666 l 1.81334,1.04 q -1.89334,3.52 -5.78667,3.52 -2.74667,0 -4.45333,-1.84 -1.68,-1.86667 -1.68,-4.61334 0,-2.90666 1.62666,-4.82666 1.62667,-1.94667 4.45334,-1.94667 2.90666,0 4.50666,2.08 1.6,2.05333 1.44,4.98667 z m -9.73333,-1.81334 h 7.49333 q -0.21333,-1.38666 -1.25333,-2.32 -1.04,-0.96 -2.42667,-0.96 -1.38666,0 -2.50666,0.96 -1.12,0.96 -1.30667,2.32 z"
         style="font-style:normal;font-variant:normal;font-weight:normal;font-stretch:normal;font-size:26.66666794px;font-family:'Futura LT';-inkscape-font-specification:'Futura LT'"
         id="path12631" />
      <path
         d="m 460.44245,328.44411 v 18.02667 h 5.54667 v 2.08 h -7.78667 v -20.10667 z"
         style="font-style:normal;font-variant:normal;font-weight:normal;font-stretch:normal;font-size:26.66666794px;font-family:'Futura LT';-inkscape-font-specification:'Futura LT'"
         id="path12633" />
      <path
         d="m 479.10912,342.73745 h -9.84001 q 0.0267,1.76 1.17334,2.98666 1.14666,1.2 2.93333,1.2 2.37334,0 3.81334,-2.58666 l 1.81333,1.04 q -1.89333,3.52 -5.78667,3.52 -2.74667,0 -4.45333,-1.84 -1.68,-1.86667 -1.68,-4.61334 0,-2.90666 1.62666,-4.82666 1.62667,-1.94667 4.45334,-1.94667 2.90667,0 4.50667,2.08 1.6,2.05333 1.44,4.98667 z m -9.73334,-1.81334 h 7.49334 q -0.21334,-1.38666 -1.25334,-2.32 -1.04,-0.96 -2.42667,-0.96 -1.38666,0 -2.50666,0.96 -1.12,0.96 -1.30667,2.32 z"
         style="font-style:normal;font-variant:normal;font-weight:normal;font-stretch:normal;font-size:26.66666794px;font-family:'Futura LT';-inkscape-font-specification:'Futura LT'"
         id="path12635" />
      <path
         d="m 484.18995,336.01745 v 1.52 h 0.0533 q 1.36,-1.86667 3.57333,-1.86667 2.4,0 3.33333,1.46667 0.93334,1.46666 0.93334,3.97333 v 7.44 h -2.13334 v -7.06667 q 0,-0.90666 -0.08,-1.46666 -0.0533,-0.58667 -0.29333,-1.17334 -0.24,-0.61333 -0.82667,-0.90666 -0.56,-0.29334 -1.44,-0.29334 -0.85333,0 -1.46666,0.32 -0.58667,0.32 -0.90667,0.77334 -0.32,0.45333 -0.50667,1.17333 -0.16,0.72 -0.21333,1.30667 -0.0267,0.56 -0.0267,1.38666 v 5.94667 h -2.13333 v -12.53333 z"
         style="font-style:normal;font-variant:normal;font-weight:normal;font-stretch:normal;font-size:26.66666794px;font-family:'Futura LT';-inkscape-font-specification:'Futura LT'"
         id="path12637" />
      <path
         d="m 501.18579,337.64411 q -1.78667,0 -2.93334,1.33334 -1.14666,1.33333 -1.14666,3.17333 0,1.94667 1.09333,3.36 1.12,1.41333 3.01333,1.41333 1.97334,0 3.06667,-1.36 1.12,-1.38666 1.12,-3.38666 0,-1.94667 -1.14667,-3.22667 -1.14666,-1.30667 -3.06666,-1.30667 z m 6.24,-1.62666 v 11.92 q 0,1.30666 -0.0533,1.97333 -0.0267,0.69333 -0.32,1.65334 -0.29333,0.98666 -0.90666,1.76 -1.73334,2.21333 -4.85334,2.21333 -2.66666,0 -4.4,-1.57333 -1.70666,-1.57334 -1.76,-4.18667 h 2.13334 q 0.0267,1.70667 1.14666,2.74667 1.12,1.04 2.85334,1.04 1.2,0 2,-0.42667 0.82666,-0.4 1.25333,-1.17333 0.42667,-0.74667 0.58667,-1.62667 0.18666,-0.88 0.18666,-2.02667 v -1.49333 h -0.0533 q -0.74667,0.98666 -1.92,1.54666 -1.14667,0.53334 -2.42667,0.53334 -2.66666,0 -4.32,-1.92 -1.65333,-1.92 -1.65333,-4.64 0,-2.74667 1.68,-4.69334 1.68,-1.97333 4.37333,-1.97333 2.66667,0 4.26667,2.13333 h 0.0533 v -1.78666 z"
         style="font-style:normal;font-variant:normal;font-weight:normal;font-stretch:normal;font-size:26.66666794px;font-family:'Futura LT';-inkscape-font-specification:'Futura LT'"
         id="path12639" />
      <path
         d="m 513.82787,337.99078 v 10.56 h -2.13333 v -10.56 h -1.30667 v -1.97333 h 1.30667 v -4.50667 h 2.13333 v 4.50667 h 2.24 v 1.97333 z"
         style="font-style:normal;font-variant:normal;font-weight:normal;font-stretch:normal;font-size:26.66666794px;font-family:'Futura LT';-inkscape-font-specification:'Futura LT'"
         id="path12641" />
      <path
         d="m 517.99412,326.55078 h 2.13333 v 10.93333 l 0.0533,0.0533 q 1.36,-1.86667 3.57333,-1.86667 2.4,0 3.33333,1.46667 0.93334,1.46666 0.93334,3.97333 v 7.44 h -2.13334 v -7.06667 q 0,-0.90666 -0.08,-1.46666 -0.0533,-0.58667 -0.29333,-1.17334 -0.24,-0.61333 -0.82667,-0.90666 -0.56,-0.29334 -1.44,-0.29334 -0.85333,0 -1.46666,0.32 -0.58667,0.32 -0.90667,0.77334 -0.32,0.45333 -0.50667,1.17333 -0.16,0.72 -0.21333,1.30667 -0.0267,0.56 -0.0267,1.38666 v 5.94667 h -2.13333 z"
         style="font-style:normal;font-variant:normal;font-weight:normal;font-stretch:normal;font-size:26.66666794px;font-family:'Futura LT';-inkscape-font-specification:'Futura LT'"
         id="path12643" />
    </g>
    <path
       style="fill:none;fill-rule:evenodd;stroke:#000000;stroke-width:1;stroke-linecap:butt;stroke-linejoin:miter;stroke-miterlimit:4;stroke-dasharray:none;stroke-opacity:1;marker-start:url(#marker10923);marker-end:url(#Arrow1Mend)"
       d="m 15.768564,283.80473 78.806396,0.13363"
       id="path10913"
       inkscape:connector-curvature="0"
       sodipodi:nodetypes="cc" />
    <path
       style="fill:none;fill-rule:evenodd;stroke:#000000;stroke-width:1;stroke-linecap:butt;stroke-linejoin:miter;stroke-miterlimit:4;stroke-dasharray:none;stroke-opacity:1;marker-start:url(#marker11755);marker-end:url(#marker11807)"
       d="m 11.10003,232.46702 0.03341,46.78553"
       id="path11745"
       inkscape:connector-curvature="0"
       sodipodi:nodetypes="cc" />
  </g>
</svg>
