<?xml version="1.0" encoding="UTF-8" standalone="no"?>
<svg
   xmlns:dc="http://purl.org/dc/elements/1.1/"
   xmlns:cc="http://creativecommons.org/ns#"
   xmlns:rdf="http://www.w3.org/1999/02/22-rdf-syntax-ns#"
   xmlns:svg="http://www.w3.org/2000/svg"
   xmlns="http://www.w3.org/2000/svg"
   xmlns:sodipodi="http://sodipodi.sourceforge.net/DTD/sodipodi-0.dtd"
   xmlns:inkscape="http://www.inkscape.org/namespaces/inkscape"
   width="100mm"
   height="100mm"
   viewBox="0 0 30 30"
   version="1.1"
   id="svg1549"
   sodipodi:docname="gaps_in_walls.svg"
   inkscape:version="0.92.3 (2405546, 2018-03-11)">
  <sodipodi:namedview
     pagecolor="#ffffff"
     bordercolor="#666666"
     borderopacity="1"
     objecttolerance="10"
     gridtolerance="10"
     guidetolerance="10"
     inkscape:pageopacity="0"
     inkscape:pageshadow="2"
     inkscape:window-width="2560"
     inkscape:window-height="1377"
     id="namedview10"
     showgrid="false"
     inkscape:zoom="9.9906664"
     inkscape:cx="66.147057"
     inkscape:cy="64.670002"
     inkscape:window-x="-8"
     inkscape:window-y="-8"
     inkscape:window-maximized="1"
     inkscape:current-layer="layer1" />
  <defs
     id="defs1543" />
  <metadata
     id="metadata1546">
    <rdf:RDF>
      <cc:Work
         rdf:about="">
        <dc:format>image/svg+xml</dc:format>
        <dc:type
           rdf:resource="http://purl.org/dc/dcmitype/StillImage" />
        <dc:title></dc:title>
      </cc:Work>
    </rdf:RDF>
  </metadata>
  <g
     id="layer1"
     transform="translate(0,-267)">
    <path
       style="fill:none;fill-opacity:0.95121951;fill-rule:evenodd;stroke:#ff0000;stroke-width:1.32291663;stroke-linecap:butt;stroke-linejoin:bevel;stroke-miterlimit:4;stroke-dasharray:none;stroke-opacity:1"
       d="m -21.512148,243.63822 c -13.597657,20.41862 -27.195203,40.83759 -40.79286,61.25621 20.172526,9.32682 40.344711,18.65337 60.517235,27.9802 4.9455043,-19.01818 9.8898656,-38.03697 14.836304,-57.05491 4.504107,5.26155 9.007385,10.5239 13.51132,15.7856 L 20.368498,251.7261 c -13.9602864,-2.69596 -27.9203617,-5.39192 -41.880646,-8.08788 z m 17.2511427,43.25007 c 3.90649868,1.7378 7.8134526,3.47475 11.7196974,5.21312 -2.3370566,8.52834 -4.6726607,17.05666 -7.00784141,25.58552 C -16.876984,308.73056 -34.203893,299.77188 -51.529955,290.81208 c 4.132899,-6.47805 8.264986,-12.95667 12.39666,-19.4355 l 0.593762,0.26355 c 3.689974,1.6415 7.380028,3.28301 11.070124,4.92424"
       id="path2094-3"
       inkscape:connector-curvature="0"
       sodipodi:nodetypes="cccccccccccccc" />
    <path
       style="fill:none;fill-opacity:1;fill-rule:evenodd;stroke:#00ad00;stroke-width:1.32291663;stroke-linecap:butt;stroke-linejoin:bevel;stroke-miterlimit:4;stroke-dasharray:none;stroke-opacity:1"
       d="m -3.5659582,285.54367 c 3.74122683,1.66432 7.4823769,3.32866 11.2236037,4.99298 1.5522337,-5.96676 3.1035595,-11.93365 4.6565635,-17.9002 3.979309,4.64831 7.958068,9.29698 11.937256,13.9454 l -5.211051,-33.57418 c -13.2832017,-2.56445 -26.5665602,-5.12913 -39.849763,-7.69358 -5.576173,8.3724 -11.152007,16.74493 -16.728178,25.11732 3.637164,1.61802 7.274312,3.23595 10.911478,4.85397 m -25.43514,16.95452 c -2.668619,4.00846 -5.337092,8.01665 -8.005712,12.02511 19.090495,8.82682 37.321564,17.43928 56.4120587,26.2661 4.10545221,-12.84376 4.18894678,-10.61224 1.879473,-12.06232 C -18.823683,309.65418 -35.012875,301.05452 -52.061189,292.2399 Z"
       id="path2094-3-6"
       inkscape:connector-curvature="0"
       sodipodi:nodetypes="ccccccccccccc" />
    <path
       style="fill:none;fill-opacity:1;fill-rule:evenodd;stroke:#00ab00;stroke-width:1.32291663;stroke-linecap:butt;stroke-linejoin:bevel;stroke-miterlimit:4;stroke-dasharray:none;stroke-opacity:1"
       d="m -2.8709083,284.19905 9.5131121,4.2323 c 1.6459782,-6.32614 3.2905144,-12.65272 4.9371672,-18.97868 3.454672,4.0356 6.909244,8.0715 10.363708,12.10727 -1.410158,-9.0905 -2.820594,-18.18072 -4.230749,-27.27121 -12.6061197,-2.43294 -25.2122454,-4.86584 -37.818363,-7.29878 -5.059246,7.59636 -10.118641,15.19244 -15.177884,22.78879 l 9.501227,4.22713 m -25.774653,20.19877 -6.275069,9.43147 c 17.762079,8.22999 35.479013,16.55689 53.2380925,24.79331 0.8432747,-2.7904 2.1180795,-5.45104 2.6561706,-8.33023 -16.5565351,-8.5993 -33.0601711,-17.30005 -49.6191941,-25.89455 z"
       id="path2094-3-6-7"
       inkscape:connector-curvature="0"
       sodipodi:nodetypes="ccccccccccccc" />
    <path
       style="fill:none;fill-rule:evenodd;stroke:#000000;stroke-width:0.26458332px;stroke-linecap:butt;stroke-linejoin:miter;stroke-opacity:1"
       d="m 11.652542,272.34428 0.317797,-1.16526 0.794492,0.90043 z"
       id="path815"
       inkscape:connector-curvature="0" />
    <path
       style="fill:none;fill-rule:evenodd;stroke:#000000;stroke-width:0.26458332px;stroke-linecap:butt;stroke-linejoin:miter;stroke-opacity:1"
       d="m 12.341102,275.54873 0.34428,-1.32415 0.900423,1.0858 z"
       id="path817"
       inkscape:connector-curvature="0" />
    <path
       style="fill:none;fill-rule:evenodd;stroke:#000000;stroke-width:0.26458332px;stroke-linecap:butt;stroke-linejoin:miter;stroke-opacity:1"
       d="m 7.5476697,291.20021 0.1588982,0.1589 0.3442798,0.50318 0.2383472,-1.00636 z"
       id="path819"
       inkscape:connector-curvature="0" />
    <path
       style="fill:none;fill-rule:evenodd;stroke:#000000;stroke-width:0.26458332px;stroke-linecap:butt;stroke-linejoin:miter;stroke-opacity:1"
       d="m 6.4618644,289.08157 0.6620764,0.29131 0.1324152,-0.60911 z"
       id="path821"
       inkscape:connector-curvature="0" />
    <path
       style="fill:none;fill-rule:evenodd;stroke:#000000;stroke-width:0.26458332px;stroke-linecap:butt;stroke-linejoin:miter;stroke-opacity:1"
       d="m 21.477754,282.09004 1.562501,1.85382 -0.317797,-2.38348 z"
       id="path823"
       inkscape:connector-curvature="0"
       sodipodi:nodetypes="cccc" />
    <path
       style="fill:none;fill-rule:evenodd;stroke:#000000;stroke-width:0.26458332px;stroke-linecap:butt;stroke-linejoin:miter;stroke-opacity:1"
       d="m 23.78178,287.1483 1.536017,1.77437 -0.397246,-2.27754 z"
       id="path825"
       inkscape:connector-curvature="0" />
  </g>
</svg>
