<?xml version="1.0" encoding="UTF-8" standalone="no"?>
<svg
   xmlns:dc="http://purl.org/dc/elements/1.1/"
   xmlns:cc="http://creativecommons.org/ns#"
   xmlns:rdf="http://www.w3.org/1999/02/22-rdf-syntax-ns#"
   xmlns:svg="http://www.w3.org/2000/svg"
   xmlns="http://www.w3.org/2000/svg"
   width="100mm"
   height="100mm"
   viewBox="0 0 100 100"
   version="1.1"
   id="svg1549">
  <defs
     id="defs1543" />
  <metadata
     id="metadata1546">
    <rdf:RDF>
      <cc:Work
         rdf:about="">
        <dc:format>image/svg+xml</dc:format>
        <dc:type
           rdf:resource="http://purl.org/dc/dcmitype/StillImage" />
        <dc:title></dc:title>
      </cc:Work>
    </rdf:RDF>
  </metadata>
  <g
     id="layer1"
     transform="translate(0,-197)">
    <path
       style="fill:#ff0000;fill-opacity:0.1254902;fill-rule:evenodd;stroke:#000000;stroke-width:0.99999994px;stroke-linecap:butt;stroke-linejoin:miter;stroke-opacity:1"
       d="M 169.20117 9.7519531 L 12.121094 245.62305 L 246.98242 354.21484 L 302.54102 140.56641 L 356.58398 203.70117 L 331.33008 41.066406 L 169.20117 9.7519531 z M 105.01758 121.36328 L 276.61914 197.69141 L 251.7168 288.63281 L 61.169922 190.11133 L 105.01758 121.36328 z "
       transform="matrix(0.26458333,0,0,0.26458333,0,197)"
       id="path2094" />
    <path
       style="fill:none;fill-opacity:0.9512195;fill-rule:evenodd;stroke:#ff0000;stroke-width:0.26458332px;stroke-linecap:butt;stroke-linejoin:miter;stroke-opacity:1"
       d="m 4.3261719,261.67383 c 20.1725261,9.32682 40.3450521,18.65364 60.5175781,27.98047 4.945504,-19.01818 9.889499,-38.03675 14.835938,-57.05469 4.504108,5.26155 9.007781,10.52346 13.511718,15.78516 C 91.127604,235.0918 89.063802,221.79883 87,208.50586 73.039714,205.8099 59.079427,203.11393 45.119141,200.41797 31.521484,220.83659 17.923828,241.25521 4.3261719,261.67383 Z M 28.091797,228.41992 c 15.33249,6.82074 30.666507,13.63806 45.998047,20.46094 -2.337056,8.52834 -4.672634,17.05708 -7.007813,25.58594 -17.327835,-8.95637 -34.654407,-17.9152 -51.980469,-26.875 4.132899,-6.47805 8.264811,-12.95672 12.396485,-19.43555 z"
       id="path2094-3" />
    <path
       style="fill:none;fill-opacity:1;fill-rule:evenodd;stroke:#00ad00;stroke-width:0.26458332px;stroke-linecap:butt;stroke-linejoin:miter;stroke-opacity:1"
       d="m 29.09375,227.21094 c 15.065104,6.70182 30.130208,13.40364 45.195312,20.10547 1.552233,-5.96676 3.103246,-11.93384 4.65625,-17.90039 3.979308,4.64831 7.958313,9.29689 11.9375,13.94531 l -5.210937,-33.57422 c -13.283203,-2.56445 -26.566406,-5.12891 -39.849609,-7.69336 -5.576172,8.3724 -11.152344,16.74479 -16.728516,25.11719 z M 6.5644531,261.04492 c 19.0904949,8.82682 37.3216329,17.43881 56.4121279,26.26563 4.10545,-12.84375 4.18879,-10.61194 1.879316,-12.06202 -17.048314,-8.81461 -33.237271,-17.41438 -50.285585,-26.229 -2.668619,4.00846 -5.3372391,8.01693 -8.0058589,12.02539 z"
       id="path2094-3-6" />
    <path
       style="fill:none;fill-opacity:1;fill-rule:evenodd;stroke:#00ab00;stroke-width:0.26458332px;stroke-linecap:butt;stroke-linejoin:miter;stroke-opacity:1"
       d="m 31.347656,226.55859 c 13.975261,6.21745 27.950521,12.4349 41.925782,18.65235 1.645978,-6.32614 3.290847,-12.65256 4.9375,-18.97852 3.454672,4.0356 6.908818,8.07165 10.363281,12.10742 -1.410157,-9.09049 -2.820313,-18.18099 -4.230469,-27.27148 -12.60612,-2.43294 -25.21224,-4.86589 -37.818359,-7.29883 -5.059245,7.59636 -10.11849,15.19271 -15.177735,22.78906 z M 8.7988281,260.41602 c 17.7620809,8.22999 35.4792019,16.55653 53.2382809,24.79296 0.843274,-2.79041 2.118159,-5.45087 2.65625,-8.33007 -16.556533,-8.59929 -33.060118,-17.30003 -49.61914,-25.89453 -2.091797,3.14388 -4.183594,6.28776 -6.2753909,9.43164 z"
       id="path2094-3-6-7" />
  </g>
  <path
     id="path2094-3-6-7-3"
     d="m 32.474609,29.232422 40.291016,17.925781 c 1.692824,-6.505829 3.384682,-13.01191 5.078125,-19.517578 3.192469,3.729465 6.384057,7.459685 9.576172,11.189453 L 83.679688,14.708984 46.876953,7.6074219 Z M 9.9160156,63.101562 C 27.128479,70.91002 44.691203,79.676762 61.654297,86.927734 63.734595,78.447058 65.022707,81.425553 61.156385,78.888081 45.869649,70.934128 30.618168,62.912617 15.326172,54.96875 Z"
     style="fill:none;fill-opacity:1;fill-rule:evenodd;stroke:#000000;stroke-width:0.26458332px;stroke-linecap:butt;stroke-linejoin:miter;stroke-opacity:1" />
</svg>
