<?xml version="1.0" encoding="UTF-8" standalone="no"?>
<svg
   xmlns:dc="http://purl.org/dc/elements/1.1/"
   xmlns:cc="http://creativecommons.org/ns#"
   xmlns:rdf="http://www.w3.org/1999/02/22-rdf-syntax-ns#"
   xmlns:svg="http://www.w3.org/2000/svg"
   xmlns="http://www.w3.org/2000/svg"
   xmlns:sodipodi="http://sodipodi.sourceforge.net/DTD/sodipodi-0.dtd"
   xmlns:inkscape="http://www.inkscape.org/namespaces/inkscape"
   id="svg8"
   version="1.1"
   viewBox="0 0 100 100"
   height="100mm"
   width="100mm"
   sodipodi:docname="LayerHeights.svg"
   inkscape:version="0.92.3 (2405546, 2018-03-11)">
  <sodipodi:namedview
     pagecolor="#ffffff"
     bordercolor="#666666"
     borderopacity="1"
     objecttolerance="10"
     gridtolerance="10"
     guidetolerance="10"
     inkscape:pageopacity="0"
     inkscape:pageshadow="2"
     inkscape:window-width="2560"
     inkscape:window-height="1377"
     id="namedview28"
     showgrid="true"
     inkscape:zoom="1.766117"
     inkscape:cx="53.511319"
     inkscape:cy="183.60964"
     inkscape:window-x="-8"
     inkscape:window-y="-8"
     inkscape:window-maximized="1"
     inkscape:current-layer="svg8">
    <inkscape:grid
       type="xygrid"
       id="grid835" />
  </sodipodi:namedview>
  <defs
     id="defs2">
    <clipPath
       clipPathUnits="userSpaceOnUse"
       id="clipPath1049">
      <path
         style="fill:none;fill-rule:evenodd;stroke:#000000;stroke-width:1;stroke-linecap:butt;stroke-linejoin:miter;stroke-miterlimit:4;stroke-dasharray:none;stroke-opacity:1"
         d="M 19.843751,96.03125 H 88.635416 L 70.114583,43.114581 91.281249,7.3958317 H 27.78125 L 42.333333,70.895834 Z"
         id="path1051"
         inkscape:connector-curvature="0"
         sodipodi:nodetypes="ccccccc" />
    </clipPath>
    <clipPath
       clipPathUnits="userSpaceOnUse"
       id="clipPath1225">
      <path
         style="fill:none;fill-rule:evenodd;stroke:#000000;stroke-width:1;stroke-linecap:butt;stroke-linejoin:miter;stroke-miterlimit:4;stroke-dasharray:none;stroke-opacity:1"
         d="M 23.812501,96.03125 H 92.604169 L 74.083333,43.114584 95.249999,7.395832 H 31.75 l 14.552083,63.500002 z"
         id="path1227"
         inkscape:connector-curvature="0"
         sodipodi:nodetypes="ccccccc" />
    </clipPath>
  </defs>
  <metadata
     id="metadata5">
    <rdf:RDF>
      <cc:Work
         rdf:about="">
        <dc:format>image/svg+xml</dc:format>
        <dc:type
           rdf:resource="http://purl.org/dc/dcmitype/StillImage" />
        <dc:title></dc:title>
      </cc:Work>
    </rdf:RDF>
  </metadata>
  <path
     id="path899"
     style="fill:none;fill-rule:evenodd;stroke:#ff0000;stroke-width:0.5;stroke-linecap:butt;stroke-linejoin:miter;stroke-miterlimit:4;stroke-dasharray:none;stroke-opacity:1"
     d="M 26.458333,10.041667 H 89.958332 M 27.78125,12.6875 H 88.771186 M 27.78125,15.333333 H 87.312499 M 29.104166,17.979166 H 85.989582 M 29.104166,20.625 h 55.5625 M 30.427083,23.270833 H 83.343749 M 30.427083,25.916666 H 80.697916 M 31.75,28.562501 H 79.374999 M 31.75,31.208334 h 46.302082 m -44.979166,2.645833 h 43.65625 m -43.65625,2.645834 H 75.406249 M 34.395833,39.145834 H 74.083332 M 34.395833,41.791667 H 71.437499 M 34.395833,44.437501 H 72.760416 M 35.71875,47.083334 H 72.760416 M 35.71875,49.729167 H 74.083332 M 37.041666,52.375 H 74.083332 M 37.041666,55.020834 H 75.406249 M 38.364583,57.666667 H 76.729166 M 38.364583,60.3125 H 76.729166 M 39.6875,62.958334 H 78.052082 M 39.6875,65.604167 H 79.374999 M 41.010416,68.25 h 38.364583 m -38.364583,2.645834 h 39.6875 M 38.364583,73.541667 H 82.020832 M 35.71875,76.1875 H 83.343749 M 33.072916,78.833333 H 83.343749 M 31.75,81.479167 H 84.666666 M 29.104166,84.125 H 85.989582 M 26.458333,86.770833 H 85.989582 M 23.8125,89.416667 h 63.499999"
     clip-path="url(#clipPath1049)"
     inkscape:connector-curvature="0"
     transform="translate(3.9687507)" />
  <path
     style="fill:none;fill-rule:evenodd;stroke:#000000;stroke-width:1;stroke-linecap:butt;stroke-linejoin:miter;stroke-miterlimit:4;stroke-dasharray:none;stroke-opacity:1"
     d="M 23.812501,96.03125 H 92.604167 L 74.083333,43.114584 95.25,7.3958329 H 31.750001 L 46.302084,70.895833 Z"
     id="path837"
     inkscape:connector-curvature="0"
     sodipodi:nodetypes="ccccccc" />
  <path
     style="fill:none;fill-rule:evenodd;stroke:#000000;stroke-width:0.26458332px;stroke-linecap:butt;stroke-linejoin:miter;stroke-opacity:1"
     d="m 22.489584,96.03125 h -1.322917 v -6.614583 h 1.322917"
     id="path1065"
     inkscape:connector-curvature="0" />
  <g
     aria-label="Initial Layer Height"
     transform="matrix(0.26458333,0,0,0.26458333,0.42372881,1.4830508)"
     style="font-style:normal;font-weight:normal;font-size:4px;line-height:125%;font-family:Sans;letter-spacing:0px;word-spacing:0px;fill:#000000;fill-opacity:1;stroke:none;stroke-width:1px;stroke-linecap:butt;stroke-linejoin:miter;stroke-opacity:1"
     id="flowRoot1067">
    <path
       d="M 0.78515625,341.69922 H 1.5742187 v 5.83203 H 0.78515625 Z"
       style="font-size:8px"
       id="path1085" />
    <path
       d="m 6.75,344.89062 v 2.64063 H 6.03125 v -2.61719 q 0,-0.62109 -0.2421875,-0.92969 -0.2421875,-0.30859 -0.7265625,-0.30859 -0.5820313,0 -0.9179688,0.37109 -0.3359374,0.3711 -0.3359374,1.01172 v 2.47266 H 3.0859375 v -4.375 h 0.7226563 v 0.67969 q 0.2578124,-0.39453 0.6054687,-0.58985 0.3515625,-0.19531 0.8085937,-0.19531 0.7539063,0 1.140625,0.46875 Q 6.75,343.98437 6.75,344.89062 Z"
       style="font-size:8px"
       id="path1087" />
    <path
       d="m 8.1914063,343.15625 h 0.71875 v 4.375 h -0.71875 z m 0,-1.70313 h 0.71875 v 0.91016 h -0.71875 z"
       style="font-size:8px"
       id="path1089" />
    <path
       d="m 11.121094,341.91406 v 1.24219 h 1.480469 v 0.55859 h -1.480469 v 2.375 q 0,0.53516 0.144531,0.6875 0.148438,0.15235 0.597656,0.15235 h 0.738282 v 0.60156 h -0.738282 q -0.832031,0 -1.148437,-0.30859 -0.316406,-0.3125 -0.316406,-1.13282 v -2.375 H 9.8710938 v -0.55859 h 0.5273442 v -1.24219 z"
       style="font-size:8px"
       id="path1091" />
    <path
       d="m 13.550781,343.15625 h 0.71875 v 4.375 h -0.71875 z m 0,-1.70313 h 0.71875 v 0.91016 h -0.71875 z"
       style="font-size:8px"
       id="path1093" />
    <path
       d="m 17.757812,345.33203 q -0.871093,0 -1.207031,0.19922 -0.335937,0.19922 -0.335937,0.67969 0,0.38281 0.25,0.60937 0.253906,0.22266 0.6875,0.22266 0.597656,0 0.957031,-0.42188 0.363281,-0.42578 0.363281,-1.1289 v -0.16016 z m 1.433594,-0.29687 v 2.49609 h -0.71875 v -0.66406 q -0.246094,0.39843 -0.613281,0.58984 -0.367188,0.1875 -0.898438,0.1875 -0.671875,0 -1.070312,-0.375 -0.394531,-0.37891 -0.394531,-1.01172 0,-0.73828 0.492187,-1.11328 0.496094,-0.375 1.476563,-0.375 h 1.007812 v -0.0703 q 0,-0.4961 -0.328125,-0.76563 -0.324219,-0.27343 -0.914062,-0.27343 -0.375,0 -0.730469,0.0898 -0.355469,0.0898 -0.683594,0.26953 v -0.66406 q 0.394531,-0.15235 0.765625,-0.22656 0.371094,-0.0781 0.722656,-0.0781 0.949219,0 1.417969,0.49219 0.46875,0.49219 0.46875,1.49219 z"
       style="font-size:8px"
       id="path1095" />
    <path
       d="m 20.675781,341.45312 h 0.71875 v 6.07813 h -0.71875 z"
       style="font-size:8px"
       id="path1097" />
    <path
       d="m 25.472656,341.69922 h 0.789063 v 5.16797 h 2.839843 v 0.66406 h -3.628906 z"
       style="font-size:8px"
       id="path1099" />
    <path
       d="m 31.882812,345.33203 q -0.871093,0 -1.207031,0.19922 -0.335937,0.19922 -0.335937,0.67969 0,0.38281 0.25,0.60937 0.253906,0.22266 0.6875,0.22266 0.597656,0 0.957031,-0.42188 0.363281,-0.42578 0.363281,-1.1289 v -0.16016 z m 1.433594,-0.29687 v 2.49609 h -0.71875 v -0.66406 q -0.246094,0.39843 -0.613281,0.58984 -0.367188,0.1875 -0.898438,0.1875 -0.671875,0 -1.070312,-0.375 -0.394531,-0.37891 -0.394531,-1.01172 0,-0.73828 0.492187,-1.11328 0.496094,-0.375 1.476563,-0.375 h 1.007812 v -0.0703 q 0,-0.4961 -0.328125,-0.76563 -0.324219,-0.27343 -0.914062,-0.27343 -0.375,0 -0.730469,0.0898 -0.355469,0.0898 -0.683594,0.26953 v -0.66406 q 0.394531,-0.15235 0.765625,-0.22656 0.371094,-0.0781 0.722656,-0.0781 0.949219,0 1.417969,0.49219 0.46875,0.49219 0.46875,1.49219 z"
       style="font-size:8px"
       id="path1101" />
    <path
       d="m 36.621094,347.9375 q -0.304688,0.78125 -0.59375,1.01953 -0.289063,0.23828 -0.773438,0.23828 h -0.574219 v -0.60156 h 0.421875 q 0.296875,0 0.460938,-0.14063 0.164062,-0.14062 0.363281,-0.66406 l 0.128906,-0.32812 -1.769531,-4.30469 h 0.761719 l 1.367187,3.42187 1.367188,-3.42187 h 0.761719 z"
       style="font-size:8px"
       id="path1103" />
    <path
       d="m 43.277344,345.16406 v 0.35156 h -3.304688 q 0.04687,0.74219 0.445313,1.13282 0.402343,0.38672 1.117187,0.38672 0.414063,0 0.800781,-0.10157 0.390625,-0.10156 0.773438,-0.30468 v 0.67968 q -0.386719,0.16407 -0.792969,0.25 -0.40625,0.0859 -0.824219,0.0859 -1.046875,0 -1.660156,-0.60937 -0.609375,-0.60938 -0.609375,-1.64844 0,-1.07422 0.578125,-1.70313 0.582031,-0.63281 1.566406,-0.63281 0.882813,0 1.394532,0.57031 0.515625,0.56641 0.515625,1.54297 z m -0.71875,-0.21094 q -0.0078,-0.58984 -0.332032,-0.9414 -0.320312,-0.35156 -0.851562,-0.35156 -0.601563,0 -0.964844,0.33984 -0.359375,0.33984 -0.414062,0.95703 z"
       style="font-size:8px"
       id="path1105" />
    <path
       d="m 46.992187,343.82812 q -0.121093,-0.0703 -0.265625,-0.10156 -0.140625,-0.0351 -0.3125,-0.0351 -0.609375,0 -0.9375,0.39843 -0.324218,0.39453 -0.324218,1.13672 v 2.30469 h -0.722657 v -4.375 h 0.722657 v 0.67969 q 0.226562,-0.39844 0.589843,-0.58985 0.363282,-0.19531 0.882813,-0.19531 0.07422,0 0.164062,0.0117 0.08984,0.008 0.199219,0.0273 z"
       style="font-size:8px"
       id="path1107" />
    <path
       d="m 50.332031,341.69922 h 0.789063 v 2.39062 h 2.867187 v -2.39062 h 0.789063 v 5.83203 h -0.789063 v -2.77734 h -2.867187 v 2.77734 h -0.789063 z"
       style="font-size:8px"
       id="path1109" />
    <path
       d="m 60.058594,345.16406 v 0.35156 h -3.304688 q 0.04687,0.74219 0.445313,1.13282 0.402343,0.38672 1.117187,0.38672 0.414063,0 0.800781,-0.10157 0.390625,-0.10156 0.773438,-0.30468 v 0.67968 q -0.386719,0.16407 -0.792969,0.25 -0.40625,0.0859 -0.824219,0.0859 -1.046875,0 -1.660156,-0.60937 -0.609375,-0.60938 -0.609375,-1.64844 0,-1.07422 0.578125,-1.70313 0.582031,-0.63281 1.566406,-0.63281 0.882813,0 1.394532,0.57031 0.515625,0.56641 0.515625,1.54297 z m -0.71875,-0.21094 q -0.0078,-0.58984 -0.332032,-0.9414 -0.320312,-0.35156 -0.851562,-0.35156 -0.601563,0 -0.964844,0.33984 -0.359375,0.33984 -0.414062,0.95703 z"
       style="font-size:8px"
       id="path1111" />
    <path
       d="m 61.238281,343.15625 h 0.71875 v 4.375 h -0.71875 z m 0,-1.70313 h 0.71875 v 0.91016 h -0.71875 z"
       style="font-size:8px"
       id="path1113" />
    <path
       d="m 66.335937,345.29297 q 0,-0.78125 -0.324218,-1.21094 -0.320313,-0.42969 -0.902344,-0.42969 -0.578125,0 -0.902344,0.42969 -0.320312,0.42969 -0.320312,1.21094 0,0.77734 0.320312,1.20703 0.324219,0.42969 0.902344,0.42969 0.582031,0 0.902344,-0.42969 0.324218,-0.42969 0.324218,-1.20703 z m 0.71875,1.69531 q 0,1.11719 -0.496093,1.66016 -0.496094,0.54687 -1.519532,0.54687 -0.378906,0 -0.714843,-0.0586 -0.335938,-0.0547 -0.652344,-0.17188 v -0.69922 q 0.316406,0.17188 0.625,0.25391 0.308594,0.082 0.628906,0.082 0.707031,0 1.058594,-0.37109 0.351562,-0.36719 0.351562,-1.11328 v -0.35547 q -0.222656,0.38672 -0.570312,0.57812 -0.347656,0.19141 -0.832031,0.19141 -0.804688,0 -1.296875,-0.61328 -0.492188,-0.61328 -0.492188,-1.625 0,-1.01563 0.492188,-1.62891 0.492187,-0.61328 1.296875,-0.61328 0.484375,0 0.832031,0.19141 0.347656,0.1914 0.570312,0.57812 v -0.66406 h 0.71875 z"
       style="font-size:8px"
       id="path1115" />
    <path
       d="m 72.171875,344.89062 v 2.64063 h -0.71875 v -2.61719 q 0,-0.62109 -0.242188,-0.92969 -0.242187,-0.30859 -0.726562,-0.30859 -0.582031,0 -0.917969,0.37109 -0.335937,0.3711 -0.335937,1.01172 v 2.47266 h -0.722657 v -6.07813 h 0.722657 v 2.38282 q 0.257812,-0.39453 0.605468,-0.58985 0.351563,-0.19531 0.808594,-0.19531 0.753906,0 1.140625,0.46875 0.386719,0.46484 0.386719,1.37109 z"
       style="font-size:8px"
       id="path1117" />
    <path
       d="m 74.324219,341.91406 v 1.24219 h 1.480468 v 0.55859 h -1.480468 v 2.375 q 0,0.53516 0.144531,0.6875 0.148437,0.15235 0.597656,0.15235 h 0.738281 v 0.60156 h -0.738281 q -0.832031,0 -1.148437,-0.30859 -0.316407,-0.3125 -0.316407,-1.13282 v -2.375 h -0.527343 v -0.55859 h 0.527343 v -1.24219 z"
       style="font-size:8px"
       id="path1119" />
  </g>
  <path
     style="fill:none;fill-rule:evenodd;stroke:#000000;stroke-width:0.26458332px;stroke-linecap:butt;stroke-linejoin:miter;stroke-opacity:1"
     d="M 27.78125,89.416667 H 26.458333 V 86.770833 H 27.78125"
     id="path1075"
     inkscape:connector-curvature="0" />
  <g
     aria-label="Layer Height"
     transform="matrix(0.26458333,0,0,0.26458333,4.3432203,0.84745762)"
     style="font-style:normal;font-weight:normal;font-size:4px;line-height:125%;font-family:Sans;letter-spacing:0px;word-spacing:0px;fill:#000000;fill-opacity:1;stroke:none;stroke-width:1px;stroke-linecap:butt;stroke-linejoin:miter;stroke-opacity:1"
     id="flowRoot1077">
    <path
       d="m 30.785156,326.69922 h 0.789063 v 5.16797 h 2.839843 v 0.66406 h -3.628906 z"
       style="font-size:8px"
       id="path1122" />
    <path
       d="m 37.195312,330.33203 q -0.871093,0 -1.207031,0.19922 -0.335937,0.19922 -0.335937,0.67969 0,0.38281 0.25,0.60937 0.253906,0.22266 0.6875,0.22266 0.597656,0 0.957031,-0.42188 0.363281,-0.42578 0.363281,-1.1289 v -0.16016 z m 1.433594,-0.29687 v 2.49609 h -0.71875 v -0.66406 q -0.246094,0.39843 -0.613281,0.58984 -0.367188,0.1875 -0.898438,0.1875 -0.671875,0 -1.070312,-0.375 -0.394531,-0.37891 -0.394531,-1.01172 0,-0.73828 0.492187,-1.11328 0.496094,-0.375 1.476563,-0.375 h 1.007812 v -0.0703 q 0,-0.4961 -0.328125,-0.76563 -0.324219,-0.27343 -0.914062,-0.27343 -0.375,0 -0.730469,0.0898 -0.355469,0.0898 -0.683594,0.26953 v -0.66406 q 0.394531,-0.15235 0.765625,-0.22656 0.371094,-0.0781 0.722656,-0.0781 0.949219,0 1.417969,0.49219 0.46875,0.49219 0.46875,1.49219 z"
       style="font-size:8px"
       id="path1124" />
    <path
       d="m 41.933594,332.9375 q -0.304688,0.78125 -0.59375,1.01953 -0.289063,0.23828 -0.773438,0.23828 h -0.574219 v -0.60156 h 0.421875 q 0.296875,0 0.460938,-0.14063 0.164062,-0.14062 0.363281,-0.66406 l 0.128906,-0.32812 -1.769531,-4.30469 h 0.761719 l 1.367187,3.42187 1.367188,-3.42187 h 0.761719 z"
       style="font-size:8px"
       id="path1126" />
    <path
       d="m 48.589844,330.16406 v 0.35156 h -3.304688 q 0.04687,0.74219 0.445313,1.13282 0.402343,0.38672 1.117187,0.38672 0.414063,0 0.800781,-0.10157 0.390625,-0.10156 0.773438,-0.30468 v 0.67968 q -0.386719,0.16407 -0.792969,0.25 -0.40625,0.0859 -0.824219,0.0859 -1.046875,0 -1.660156,-0.60937 -0.609375,-0.60938 -0.609375,-1.64844 0,-1.07422 0.578125,-1.70313 0.582031,-0.63281 1.566406,-0.63281 0.882813,0 1.394532,0.57031 0.515625,0.56641 0.515625,1.54297 z m -0.71875,-0.21094 q -0.0078,-0.58984 -0.332032,-0.9414 -0.320312,-0.35156 -0.851562,-0.35156 -0.601563,0 -0.964844,0.33984 -0.359375,0.33984 -0.414062,0.95703 z"
       style="font-size:8px"
       id="path1128" />
    <path
       d="m 52.304687,328.82812 q -0.121093,-0.0703 -0.265625,-0.10156 -0.140625,-0.0351 -0.3125,-0.0351 -0.609375,0 -0.9375,0.39843 -0.324218,0.39453 -0.324218,1.13672 v 2.30469 h -0.722657 v -4.375 h 0.722657 v 0.67969 q 0.226562,-0.39844 0.589843,-0.58985 0.363282,-0.19531 0.882813,-0.19531 0.07422,0 0.164062,0.0117 0.08984,0.008 0.199219,0.0273 z"
       style="font-size:8px"
       id="path1130" />
    <path
       d="m 55.644531,326.69922 h 0.789063 v 2.39062 h 2.867187 v -2.39062 h 0.789063 v 5.83203 h -0.789063 v -2.77734 h -2.867187 v 2.77734 h -0.789063 z"
       style="font-size:8px"
       id="path1132" />
    <path
       d="m 65.371094,330.16406 v 0.35156 h -3.304688 q 0.04687,0.74219 0.445313,1.13282 0.402343,0.38672 1.117187,0.38672 0.414063,0 0.800781,-0.10157 0.390625,-0.10156 0.773438,-0.30468 v 0.67968 q -0.386719,0.16407 -0.792969,0.25 -0.40625,0.0859 -0.824219,0.0859 -1.046875,0 -1.660156,-0.60937 -0.609375,-0.60938 -0.609375,-1.64844 0,-1.07422 0.578125,-1.70313 0.582031,-0.63281 1.566406,-0.63281 0.882813,0 1.394532,0.57031 0.515625,0.56641 0.515625,1.54297 z m -0.71875,-0.21094 q -0.0078,-0.58984 -0.332032,-0.9414 Q 64,328.66016 63.46875,328.66016 q -0.601563,0 -0.964844,0.33984 -0.359375,0.33984 -0.414062,0.95703 z"
       style="font-size:8px"
       id="path1134" />
    <path
       d="m 66.550781,328.15625 h 0.71875 v 4.375 h -0.71875 z m 0,-1.70313 h 0.71875 v 0.91016 h -0.71875 z"
       style="font-size:8px"
       id="path1136" />
    <path
       d="m 71.648437,330.29297 q 0,-0.78125 -0.324218,-1.21094 -0.320313,-0.42969 -0.902344,-0.42969 -0.578125,0 -0.902344,0.42969 -0.320312,0.42969 -0.320312,1.21094 0,0.77734 0.320312,1.20703 0.324219,0.42969 0.902344,0.42969 0.582031,0 0.902344,-0.42969 0.324218,-0.42969 0.324218,-1.20703 z m 0.71875,1.69531 q 0,1.11719 -0.496093,1.66016 -0.496094,0.54687 -1.519532,0.54687 -0.378906,0 -0.714843,-0.0586 -0.335938,-0.0547 -0.652344,-0.17188 v -0.69922 q 0.316406,0.17188 0.625,0.25391 0.308594,0.082 0.628906,0.082 0.707031,0 1.058594,-0.37109 0.351562,-0.36719 0.351562,-1.11328 v -0.35547 q -0.222656,0.38672 -0.570312,0.57812 -0.347656,0.19141 -0.832031,0.19141 -0.804688,0 -1.296875,-0.61328 -0.492188,-0.61328 -0.492188,-1.625 0,-1.01563 0.492188,-1.62891 0.492187,-0.61328 1.296875,-0.61328 0.484375,0 0.832031,0.19141 0.347656,0.1914 0.570312,0.57812 v -0.66406 h 0.71875 z"
       style="font-size:8px"
       id="path1138" />
    <path
       d="m 77.484375,329.89062 v 2.64063 h -0.71875 v -2.61719 q 0,-0.62109 -0.242188,-0.92969 -0.242187,-0.30859 -0.726562,-0.30859 -0.582031,0 -0.917969,0.37109 -0.335937,0.3711 -0.335937,1.01172 v 2.47266 h -0.722657 v -6.07813 h 0.722657 v 2.38282 q 0.257812,-0.39453 0.605468,-0.58985 0.351563,-0.19531 0.808594,-0.19531 0.753906,0 1.140625,0.46875 0.386719,0.46484 0.386719,1.37109 z"
       style="font-size:8px"
       id="path1140" />
    <path
       d="m 79.636719,326.91406 v 1.24219 h 1.480468 v 0.55859 h -1.480468 v 2.375 q 0,0.53516 0.144531,0.6875 0.148437,0.15235 0.597656,0.15235 h 0.738281 v 0.60156 h -0.738281 q -0.832031,0 -1.148437,-0.30859 -0.316407,-0.3125 -0.316407,-1.13282 v -2.375 h -0.527343 v -0.55859 h 0.527343 v -1.24219 z"
       style="font-size:8px"
       id="path1142" />
  </g>
  <path
     id="path1207"
     style="fill:none;fill-rule:evenodd;stroke:#0000fa;stroke-width:0.25;stroke-linecap:butt;stroke-linejoin:miter;stroke-opacity:1;stroke-miterlimit:4;stroke-dasharray:0.25,0.25;stroke-dashoffset:0"
     d="M 31.75,8.7187499 H 95.249999 M 31.75,11.364583 H 93.931345 M 33.072916,14.010417 H 92.058711 M 33.072916,16.65625 h 58.208333 m -58.208333,2.645833 h 55.5625 M 34.395833,21.947916 H 87.312499 M 34.395833,24.59375 H 85.989582 M 35.71875,27.239584 H 84.792888 M 35.71875,29.885417 H 83.343749 M 37.041666,32.531251 H 82.020832 M 37.041666,35.177084 H 79.3997 M 37.041666,37.822917 H 78.052082 M 38.364583,40.468751 H 76.729166 M 39.6875,43.114584 H 75.406249 M 39.6875,45.760417 H 75.654434 M 39.6875,48.40625 h 37.041666 m -35.71875,2.645834 H 78.052082 M 41.010416,53.697917 H 78.052082 M 42.333333,56.34375 H 79.374999 M 42.333333,58.989584 H 80.697916 M 43.656249,61.635417 H 82.020832 M 43.656249,64.28125 h 38.364583 m -37.041666,2.645834 h 38.364583 m -38.364583,2.645833 h 39.6875 M 43.656249,72.21875 H 84.666666 M 42.333333,74.864583 H 85.989582 M 39.6875,77.510417 H 87.312499 M 37.041666,80.15625 h 51.59375 m -54.239583,2.645833 h 54.51685 M 33.072916,85.447917 H 89.958332 M 30.427083,88.09375 h 60.854166 m -65.616666,4.7625 h 66.674999"
     clip-path="url(#clipPath1225)" />
</svg>
