<?xml version="1.0" encoding="UTF-8" ?>
<svg xmlns="http://www.w3.org/2000/svg" version="1.1" viewBox="0 0 100 100" width="100mm" height="100mm">
	<defs>
		<clipPath id="meshClip">
			<path d="M23.812501,96.03125 H92.604167 L74.083333,43.114584 95.25,7.3958329 H31.750001 L46.302084,70.895833 Z" />
		</clipPath>
	</defs>
	<!-- Layer separators -->
	<path style="stroke: #ff0000; stroke-width: 0.5"
		d="M0,10.041667 h100 m-100,2.645834 h100 m-100,2.645834 h100 m-100,2.645834 h100 m-100,2.645834 h100 m-100,2.645834 h100 m-100,2.645834 h100 m-100,2.645834 h100 m-100,2.645834 h100 m-100,2.645834 h100 m-100,2.645834 h100 m-100,2.645834 h100 m-100,2.645834 h100 m-100,2.645834 h100 m-100,2.645834 h100 m-100,2.645834 h100 m-100,2.645834 h100 m-100,2.645834 h100 m-100,2.645834 h100 m-100,2.645834 h100 m-100,2.645834 h100 m-100,2.645834 h100 m-100,2.645834 h100 m-100,2.645834 h100 m-100,2.645834 h100 m-100,2.645834 h100 m-100,2.645834 h100 m-100,2.645834 h100 m-100,2.645834 h100 m-100,2.645834 h100 m-100,2.645834 h100"
		clip-path="url(#meshClip)" />
	<!-- Slice heights -->
	<path style="fill: none; stroke: #0000fa; stroke-width: 0.25; stroke-dasharray: 0.25,0.25"
		d="M0,8.7187499 h100 m-100,2.645834 h100 m-100,2.645834 h100 m-100,2.645834 h100 m-100,2.645834 h100 m-100,2.645834 h100 m-100,2.645834 h100 m-100,2.645834 h100 m-100,2.645834 h100 m-100,2.645834 h100 m-100,2.645834 h100 m-100,2.645834 h100 m-100,2.645834 h100 m-100,2.645834 h100 m-100,2.645834 h100 m-100,2.645834 h100 m-100,2.645834 h100 m-100,2.645834 h100 m-100,2.645834 h100 m-100,2.645834 h100 m-100,2.645834 h100 m-100,2.645834 h100 m-100,2.645834 h100 m-100,2.645834 h100 m-100,2.645834 h100 m-100,2.645834 h100 m-100,2.645834 h100 m-100,2.645834 h100 m-100,2.645834 h100 m-100,2.645834 h100 m-100,2.645834 h100 m-100,4.7625 h100"
		clip-path="url(#meshClip)" />
	<!-- The mesh we're slicing -->
	<path style="fill: none; stroke-width: 1; stroke: #000000" d="M23.812501,96.03125 H92.604167 L74.083333,43.114584 95.25,7.3958329 H31.750001 L46.302084,70.895833 Z" />
	<!-- Initial layer height label -->
	<path style="fill: none; stroke:#000000; stroke-width:0.25" d="m22.489584,96.03125 h-1.322917 v-6.614583 h1.322917" />
	<g transform="matrix(0.26458333,0,0,0.26458333,0.42372881,1.4830508)">
		<path d="M0.78515625,341.69922 H1.5742187 v5.83203 H0.78515625 Z" />
		<path d="m6.75,344.89062 v2.64063 H6.03125 v-2.61719 q0,-0.62109 -0.2421875,-0.92969 -0.2421875,-0.30859 -0.7265625,-0.30859 -0.5820313,0 -0.9179688,0.37109 -0.3359374,0.3711 -0.3359374,1.01172 v2.47266 H3.0859375 v-4.375 h0.7226563 v0.67969 q0.2578124,-0.39453 0.6054687,-0.58985 0.3515625,-0.19531 0.8085937,-0.19531 0.7539063,0 1.140625,0.46875 Q6.75,343.98437 6.75,344.89062 Z" />
		<path d="m8.1914063,343.15625 h0.71875 v4.375 h-0.71875 z m0,-1.70313 h0.71875 v0.91016 h-0.71875 z" />
		<path d="m11.121094,341.91406 v1.24219 h1.480469 v0.55859 h-1.480469 v2.375 q0,0.53516 0.144531,0.6875 0.148438,0.15235 0.597656,0.15235 h0.738282 v0.60156 h-0.738282 q-0.832031,0 -1.148437,-0.30859 -0.316406,-0.3125 -0.316406,-1.13282 v-2.375 H9.8710938 v-0.55859 h0.5273442 v-1.24219 z" />
		<path d="m13.550781,343.15625 h0.71875 v4.375 h-0.71875 z m0,-1.70313 h0.71875 v0.91016 h-0.71875 z" />
		<path d="m17.757812,345.33203 q-0.871093,0 -1.207031,0.19922 -0.335937,0.19922 -0.335937,0.67969 0,0.38281 0.25,0.60937 0.253906,0.22266 0.6875,0.22266 0.597656,0 0.957031,-0.42188 0.363281,-0.42578 0.363281,-1.1289 v-0.16016 z m1.433594,-0.29687 v2.49609 h-0.71875 v-0.66406 q-0.246094,0.39843 -0.613281,0.58984 -0.367188,0.1875 -0.898438,0.1875 -0.671875,0 -1.070312,-0.375 -0.394531,-0.37891 -0.394531,-1.01172 0,-0.73828 0.492187,-1.11328 0.496094,-0.375 1.476563,-0.375 h1.007812 v-0.0703 q0,-0.4961 -0.328125,-0.76563 -0.324219,-0.27343 -0.914062,-0.27343 -0.375,0 -0.730469,0.0898 -0.355469,0.0898 -0.683594,0.26953 v-0.66406 q0.394531,-0.15235 0.765625,-0.22656 0.371094,-0.0781 0.722656,-0.0781 0.949219,0 1.417969,0.49219 0.46875,0.49219 0.46875,1.49219 z" />
		<path d="m20.675781,341.45312 h0.71875 v6.07813 h-0.71875 z" />
		<path d="m25.472656,341.69922 h0.789063 v5.16797 h2.839843 v0.66406 h-3.628906 z" />
		<path d="m31.882812,345.33203 q-0.871093,0 -1.207031,0.19922 -0.335937,0.19922 -0.335937,0.67969 0,0.38281 0.25,0.60937 0.253906,0.22266 0.6875,0.22266 0.597656,0 0.957031,-0.42188 0.363281,-0.42578 0.363281,-1.1289 v-0.16016 z m1.433594,-0.29687 v2.49609 h-0.71875 v-0.66406 q-0.246094,0.39843 -0.613281,0.58984 -0.367188,0.1875 -0.898438,0.1875 -0.671875,0 -1.070312,-0.375 -0.394531,-0.37891 -0.394531,-1.01172 0,-0.73828 0.492187,-1.11328 0.496094,-0.375 1.476563,-0.375 h1.007812 v-0.0703 q0,-0.4961 -0.328125,-0.76563 -0.324219,-0.27343 -0.914062,-0.27343 -0.375,0 -0.730469,0.0898 -0.355469,0.0898 -0.683594,0.26953 v-0.66406 q0.394531,-0.15235 0.765625,-0.22656 0.371094,-0.0781 0.722656,-0.0781 0.949219,0 1.417969,0.49219 0.46875,0.49219 0.46875,1.49219 z" />
		<path d="m36.621094,347.9375 q-0.304688,0.78125 -0.59375,1.01953 -0.289063,0.23828 -0.773438,0.23828 h-0.574219 v-0.60156 h0.421875 q0.296875,0 0.460938,-0.14063 0.164062,-0.14062 0.363281,-0.66406 l 0.128906,-0.32812 -1.769531,-4.30469 h0.761719 l 1.367187,3.42187 1.367188,-3.42187 h0.761719 z" />
		<path d="m43.277344,345.16406 v0.35156 h-3.304688 q0.04687,0.74219 0.445313,1.13282 0.402343,0.38672 1.117187,0.38672 0.414063,0 0.800781,-0.10157 0.390625,-0.10156 0.773438,-0.30468 v0.67968 q-0.386719,0.16407 -0.792969,0.25 -0.40625,0.0859 -0.824219,0.0859 -1.046875,0 -1.660156,-0.60937 -0.609375,-0.60938 -0.609375,-1.64844 0,-1.07422 0.578125,-1.70313 0.582031,-0.63281 1.566406,-0.63281 0.882813,0 1.394532,0.57031 0.515625,0.56641 0.515625,1.54297 z m-0.71875,-0.21094 q-0.0078,-0.58984 -0.332032,-0.9414 -0.320312,-0.35156 -0.851562,-0.35156 -0.601563,0 -0.964844,0.33984 -0.359375,0.33984 -0.414062,0.95703 z" />
		<path d="m46.992187,343.82812 q-0.121093,-0.0703 -0.265625,-0.10156 -0.140625,-0.0351 -0.3125,-0.0351 -0.609375,0 -0.9375,0.39843 -0.324218,0.39453 -0.324218,1.13672 v2.30469 h-0.722657 v-4.375 h0.722657 v0.67969 q0.226562,-0.39844 0.589843,-0.58985 0.363282,-0.19531 0.882813,-0.19531 0.07422,0 0.164062,0.0117 0.08984,0.008 0.199219,0.0273 z" />
		<path d="m50.332031,341.69922 h0.789063 v2.39062 h2.867187 v-2.39062 h0.789063 v5.83203 h-0.789063 v-2.77734 h-2.867187 v2.77734 h-0.789063 z" />
		<path d="m60.058594,345.16406 v0.35156 h-3.304688 q0.04687,0.74219 0.445313,1.13282 0.402343,0.38672 1.117187,0.38672 0.414063,0 0.800781,-0.10157 0.390625,-0.10156 0.773438,-0.30468 v0.67968 q-0.386719,0.16407 -0.792969,0.25 -0.40625,0.0859 -0.824219,0.0859 -1.046875,0 -1.660156,-0.60937 -0.609375,-0.60938 -0.609375,-1.64844 0,-1.07422 0.578125,-1.70313 0.582031,-0.63281 1.566406,-0.63281 0.882813,0 1.394532,0.57031 0.515625,0.56641 0.515625,1.54297 z m-0.71875,-0.21094 q-0.0078,-0.58984 -0.332032,-0.9414 -0.320312,-0.35156 -0.851562,-0.35156 -0.601563,0 -0.964844,0.33984 -0.359375,0.33984 -0.414062,0.95703 z" />
		<path d="m61.238281,343.15625 h0.71875 v4.375 h-0.71875 z m0,-1.70313 h0.71875 v0.91016 h-0.71875 z" />
		<path d="m66.335937,345.29297 q0,-0.78125 -0.324218,-1.21094 -0.320313,-0.42969 -0.902344,-0.42969 -0.578125,0 -0.902344,0.42969 -0.320312,0.42969 -0.320312,1.21094 0,0.77734 0.320312,1.20703 0.324219,0.42969 0.902344,0.42969 0.582031,0 0.902344,-0.42969 0.324218,-0.42969 0.324218,-1.20703 z m0.71875,1.69531 q0,1.11719 -0.496093,1.66016 -0.496094,0.54687 -1.519532,0.54687 -0.378906,0 -0.714843,-0.0586 -0.335938,-0.0547 -0.652344,-0.17188 v-0.69922 q0.316406,0.17188 0.625,0.25391 0.308594,0.082 0.628906,0.082 0.707031,0 1.058594,-0.37109 0.351562,-0.36719 0.351562,-1.11328 v-0.35547 q-0.222656,0.38672 -0.570312,0.57812 -0.347656,0.19141 -0.832031,0.19141 -0.804688,0 -1.296875,-0.61328 -0.492188,-0.61328 -0.492188,-1.625 0,-1.01563 0.492188,-1.62891 0.492187,-0.61328 1.296875,-0.61328 0.484375,0 0.832031,0.19141 0.347656,0.1914 0.570312,0.57812 v-0.66406 h0.71875 z" />
		<path d="m72.171875,344.89062 v2.64063 h-0.71875 v-2.61719 q0,-0.62109 -0.242188,-0.92969 -0.242187,-0.30859 -0.726562,-0.30859 -0.582031,0 -0.917969,0.37109 -0.335937,0.3711 -0.335937,1.01172 v2.47266 h-0.722657 v-6.07813 h0.722657 v2.38282 q0.257812,-0.39453 0.605468,-0.58985 0.351563,-0.19531 0.808594,-0.19531 0.753906,0 1.140625,0.46875 0.386719,0.46484 0.386719,1.37109 z" />
		<path d="m74.324219,341.91406 v1.24219 h1.480468 v0.55859 h-1.480468 v2.375 q0,0.53516 0.144531,0.6875 0.148437,0.15235 0.597656,0.15235 h0.738281 v0.60156 h-0.738281 q-0.832031,0 -1.148437,-0.30859 -0.316407,-0.3125 -0.316407,-1.13282 v-2.375 h-0.527343 v-0.55859 h0.527343 v-1.24219 z" />
	</g>
	<!-- Layer height label -->
	<path style="fill: none; stroke-width: 0.25; stroke: #000000" d="M27.78125,89.416667 H26.458333 V 86.770833 H27.78125" />
	<g transform="matrix(0.26458333,0,0,0.26458333,4.3432203,0.84745762)">
		<path d="m30.785156,326.69922 h0.789063 v5.16797 h2.839843 v0.66406 h-3.628906 z" />
		<path d="m37.195312,330.33203 q-0.871093,0 -1.207031,0.19922 -0.335937,0.19922 -0.335937,0.67969 0,0.38281 0.25,0.60937 0.253906,0.22266 0.6875,0.22266 0.597656,0 0.957031,-0.42188 0.363281,-0.42578 0.363281,-1.1289 v-0.16016 z m1.433594,-0.29687 v2.49609 h-0.71875 v-0.66406 q-0.246094,0.39843 -0.613281,0.58984 -0.367188,0.1875 -0.898438,0.1875 -0.671875,0 -1.070312,-0.375 -0.394531,-0.37891 -0.394531,-1.01172 0,-0.73828 0.492187,-1.11328 0.496094,-0.375 1.476563,-0.375 h1.007812 v-0.0703 q0,-0.4961 -0.328125,-0.76563 -0.324219,-0.27343 -0.914062,-0.27343 -0.375,0 -0.730469,0.0898 -0.355469,0.0898 -0.683594,0.26953 v-0.66406 q0.394531,-0.15235 0.765625,-0.22656 0.371094,-0.0781 0.722656,-0.0781 0.949219,0 1.417969,0.49219 0.46875,0.49219 0.46875,1.49219 z" />
		<path d="m41.933594,332.9375 q-0.304688,0.78125 -0.59375,1.01953 -0.289063,0.23828 -0.773438,0.23828 h-0.574219 v-0.60156 h0.421875 q0.296875,0 0.460938,-0.14063 0.164062,-0.14062 0.363281,-0.66406 l 0.128906,-0.32812 -1.769531,-4.30469 h0.761719 l 1.367187,3.42187 1.367188,-3.42187 h0.761719 z" />
		<path d="m48.589844,330.16406 v0.35156 h-3.304688 q0.04687,0.74219 0.445313,1.13282 0.402343,0.38672 1.117187,0.38672 0.414063,0 0.800781,-0.10157 0.390625,-0.10156 0.773438,-0.30468 v0.67968 q-0.386719,0.16407 -0.792969,0.25 -0.40625,0.0859 -0.824219,0.0859 -1.046875,0 -1.660156,-0.60937 -0.609375,-0.60938 -0.609375,-1.64844 0,-1.07422 0.578125,-1.70313 0.582031,-0.63281 1.566406,-0.63281 0.882813,0 1.394532,0.57031 0.515625,0.56641 0.515625,1.54297 z m-0.71875,-0.21094 q-0.0078,-0.58984 -0.332032,-0.9414 -0.320312,-0.35156 -0.851562,-0.35156 -0.601563,0 -0.964844,0.33984 -0.359375,0.33984 -0.414062,0.95703 z" />
		<path d="m52.304687,328.82812 q-0.121093,-0.0703 -0.265625,-0.10156 -0.140625,-0.0351 -0.3125,-0.0351 -0.609375,0 -0.9375,0.39843 -0.324218,0.39453 -0.324218,1.13672 v2.30469 h-0.722657 v-4.375 h0.722657 v0.67969 q0.226562,-0.39844 0.589843,-0.58985 0.363282,-0.19531 0.882813,-0.19531 0.07422,0 0.164062,0.0117 0.08984,0.008 0.199219,0.0273 z" />
		<path d="m55.644531,326.69922 h0.789063 v2.39062 h2.867187 v-2.39062 h0.789063 v5.83203 h-0.789063 v-2.77734 h-2.867187 v2.77734 h-0.789063 z" />
		<path d="m65.371094,330.16406 v0.35156 h-3.304688 q0.04687,0.74219 0.445313,1.13282 0.402343,0.38672 1.117187,0.38672 0.414063,0 0.800781,-0.10157 0.390625,-0.10156 0.773438,-0.30468 v0.67968 q-0.386719,0.16407 -0.792969,0.25 -0.40625,0.0859 -0.824219,0.0859 -1.046875,0 -1.660156,-0.60937 -0.609375,-0.60938 -0.609375,-1.64844 0,-1.07422 0.578125,-1.70313 0.582031,-0.63281 1.566406,-0.63281 0.882813,0 1.394532,0.57031 0.515625,0.56641 0.515625,1.54297 z m-0.71875,-0.21094 q-0.0078,-0.58984 -0.332032,-0.9414 Q64,328.66016 63.46875,328.66016 q-0.601563,0 -0.964844,0.33984 -0.359375,0.33984 -0.414062,0.95703 z" />
		<path d="m66.550781,328.15625 h0.71875 v4.375 h-0.71875 z m0,-1.70313 h0.71875 v0.91016 h-0.71875 z" />
		<path d="m71.648437,330.29297 q0,-0.78125 -0.324218,-1.21094 -0.320313,-0.42969 -0.902344,-0.42969 -0.578125,0 -0.902344,0.42969 -0.320312,0.42969 -0.320312,1.21094 0,0.77734 0.320312,1.20703 0.324219,0.42969 0.902344,0.42969 0.582031,0 0.902344,-0.42969 0.324218,-0.42969 0.324218,-1.20703 z m0.71875,1.69531 q0,1.11719 -0.496093,1.66016 -0.496094,0.54687 -1.519532,0.54687 -0.378906,0 -0.714843,-0.0586 -0.335938,-0.0547 -0.652344,-0.17188 v-0.69922 q0.316406,0.17188 0.625,0.25391 0.308594,0.082 0.628906,0.082 0.707031,0 1.058594,-0.37109 0.351562,-0.36719 0.351562,-1.11328 v-0.35547 q-0.222656,0.38672 -0.570312,0.57812 -0.347656,0.19141 -0.832031,0.19141 -0.804688,0 -1.296875,-0.61328 -0.492188,-0.61328 -0.492188,-1.625 0,-1.01563 0.492188,-1.62891 0.492187,-0.61328 1.296875,-0.61328 0.484375,0 0.832031,0.19141 0.347656,0.1914 0.570312,0.57812 v-0.66406 h0.71875 z" />
		<path d="m77.484375,329.89062 v2.64063 h-0.71875 v-2.61719 q0,-0.62109 -0.242188,-0.92969 -0.242187,-0.30859 -0.726562,-0.30859 -0.582031,0 -0.917969,0.37109 -0.335937,0.3711 -0.335937,1.01172 v2.47266 h-0.722657 v-6.07813 h0.722657 v2.38282 q0.257812,-0.39453 0.605468,-0.58985 0.351563,-0.19531 0.808594,-0.19531 0.753906,0 1.140625,0.46875 0.386719,0.46484 0.386719,1.37109 z" />
		<path d="m79.636719,326.91406 v1.24219 h1.480468 v0.55859 h-1.480468 v2.375 q0,0.53516 0.144531,0.6875 0.148437,0.15235 0.597656,0.15235 h0.738281 v0.60156 h-0.738281 q-0.832031,0 -1.148437,-0.30859 -0.316407,-0.3125 -0.316407,-1.13282 v-2.375 h-0.527343 v-0.55859 h0.527343 v-1.24219 z" />
	</g>
</svg>
