<?xml version="1.0" encoding="UTF-8" standalone="no"?>
<!-- Created with Inkscape (http://www.inkscape.org/) -->

<svg
   xmlns:dc="http://purl.org/dc/elements/1.1/"
   xmlns:cc="http://creativecommons.org/ns#"
   xmlns:rdf="http://www.w3.org/1999/02/22-rdf-syntax-ns#"
   xmlns:svg="http://www.w3.org/2000/svg"
   xmlns="http://www.w3.org/2000/svg"
   xmlns:sodipodi="http://sodipodi.sourceforge.net/DTD/sodipodi-0.dtd"
   xmlns:inkscape="http://www.inkscape.org/namespaces/inkscape"
   width="100mm"
   height="100mm"
   viewBox="0 0 100 100"
   version="1.1"
   id="svg4081"
   inkscape:version="0.92.3 (2405546, 2018-03-11)"
   sodipodi:docname="preheat_insert.svg">
  <defs
     id="defs4075">
    <marker
       inkscape:isstock="true"
       style="overflow:visible;"
       id="marker8576"
       refX="0.0"
       refY="0.0"
       orient="auto"
       inkscape:stockid="Arrow1Mend">
      <path
         transform="scale(0.4) rotate(180) translate(10,0)"
         style="fill-rule:evenodd;stroke:#000000;stroke-width:1pt;stroke-opacity:1;fill:#000000;fill-opacity:1"
         d="M 0.0,0.0 L 5.0,-5.0 L -12.5,0.0 L 5.0,5.0 L 0.0,0.0 z "
         id="path8574" />
    </marker>
    <marker
       inkscape:stockid="Arrow1Mend"
       orient="auto"
       refY="0.0"
       refX="0.0"
       id="Arrow1Mend"
       style="overflow:visible;"
       inkscape:isstock="true"
       inkscape:collect="always">
      <path
         id="path3492"
         d="M 0.0,0.0 L 5.0,-5.0 L -12.5,0.0 L 5.0,5.0 L 0.0,0.0 z "
         style="fill-rule:evenodd;stroke:#000000;stroke-width:1pt;stroke-opacity:1;fill:#000000;fill-opacity:1"
         transform="scale(0.4) rotate(180) translate(10,0)" />
    </marker>
  </defs>
  <sodipodi:namedview
     id="base"
     pagecolor="#ffffff"
     bordercolor="#666666"
     borderopacity="1.0"
     inkscape:pageopacity="0.0"
     inkscape:pageshadow="2"
     inkscape:zoom="1.979899"
     inkscape:cx="259.74463"
     inkscape:cy="228.36076"
     inkscape:document-units="mm"
     inkscape:current-layer="layer1"
     showgrid="false"
     showguides="false"
     inkscape:window-width="1920"
     inkscape:window-height="1137"
     inkscape:window-x="2552"
     inkscape:window-y="-8"
     inkscape:window-maximized="1">
    <inkscape:grid
       type="xygrid"
       id="grid8337" />
  </sodipodi:namedview>
  <metadata
     id="metadata4078">
    <rdf:RDF>
      <cc:Work
         rdf:about="">
        <dc:format>image/svg+xml</dc:format>
        <dc:type
           rdf:resource="http://purl.org/dc/dcmitype/StillImage" />
        <dc:title></dc:title>
      </cc:Work>
    </rdf:RDF>
  </metadata>
  <g
     inkscape:label="Layer 1"
     inkscape:groupmode="layer"
     id="layer1"
     transform="translate(0,-197)">
    <rect
       style="fill:#7f7f7f;fill-opacity:1;stroke:#000000;stroke-width:0.5;stroke-linecap:butt;stroke-linejoin:miter;stroke-miterlimit:4;stroke-dasharray:none;stroke-dashoffset:0;stroke-opacity:1"
       id="rect8339"
       width="37.041668"
       height="5.2916665"
       x="26.458334"
       y="199.10416" />
    <rect
       style="fill:#7f7f7f;fill-opacity:1;stroke:#000000;stroke-width:0.5;stroke-linecap:butt;stroke-linejoin:miter;stroke-miterlimit:4;stroke-dasharray:none;stroke-dashoffset:0;stroke-opacity:1"
       id="rect8341"
       width="34.395832"
       height="5.2916665"
       x="26.458332"
       y="212.33333" />
    <rect
       style="fill:#7f7f7f;fill-opacity:1;stroke:#000000;stroke-width:0.5;stroke-linecap:butt;stroke-linejoin:miter;stroke-miterlimit:4;stroke-dasharray:none;stroke-dashoffset:0;stroke-opacity:1"
       id="rect8343"
       width="56.885414"
       height="5.2916665"
       x="26.458332"
       y="218.94792" />
    <rect
       style="fill:#7f7f7f;fill-opacity:1;stroke:#000000;stroke-width:0.5;stroke-linecap:butt;stroke-linejoin:miter;stroke-miterlimit:4;stroke-dasharray:none;stroke-dashoffset:0;stroke-opacity:1"
       id="rect8345"
       width="44.979168"
       height="5.2916665"
       x="26.458332"
       y="225.5625" />
    <rect
       style="fill:#7f7f7f;fill-opacity:1;stroke:#000000;stroke-width:0.5;stroke-linecap:butt;stroke-linejoin:miter;stroke-miterlimit:4;stroke-dasharray:none;stroke-dashoffset:0;stroke-opacity:1"
       id="rect8347"
       width="38.364582"
       height="5.2916665"
       x="26.458332"
       y="232.17708" />
    <rect
       style="fill:#7f7f7f;fill-opacity:1;stroke:#000000;stroke-width:0.5;stroke-linecap:butt;stroke-linejoin:miter;stroke-miterlimit:4;stroke-dasharray:none;stroke-dashoffset:0;stroke-opacity:1"
       id="rect8349"
       width="67.46875"
       height="5.2916665"
       x="26.458332"
       y="238.79167" />
    <rect
       style="fill:#7f7f7f;fill-opacity:1;stroke:#000000;stroke-width:0.5;stroke-linecap:butt;stroke-linejoin:miter;stroke-miterlimit:4;stroke-dasharray:none;stroke-dashoffset:0;stroke-opacity:1"
       id="rect8351"
       width="30.427082"
       height="5.2916665"
       x="26.458332"
       y="245.40625" />
    <rect
       style="fill:#7f7f7f;fill-opacity:1;stroke:#000000;stroke-width:0.5;stroke-linecap:butt;stroke-linejoin:miter;stroke-miterlimit:4;stroke-dasharray:none;stroke-dashoffset:0;stroke-opacity:1"
       id="rect8353"
       width="38.364582"
       height="5.2916665"
       x="26.458332"
       y="252.02083" />
    <rect
       style="fill:#7f7f7f;fill-opacity:1;stroke:#000000;stroke-width:0.5;stroke-linecap:butt;stroke-linejoin:miter;stroke-miterlimit:4;stroke-dasharray:none;stroke-dashoffset:0;stroke-opacity:1"
       id="rect8355"
       width="34.395832"
       height="5.2916665"
       x="26.458332"
       y="258.63541" />
    <rect
       style="fill:#7f7f7f;fill-opacity:1;stroke:#000000;stroke-width:0.5;stroke-linecap:butt;stroke-linejoin:miter;stroke-miterlimit:4;stroke-dasharray:none;stroke-dashoffset:0;stroke-opacity:1"
       id="rect8357"
       width="42.333332"
       height="5.2916665"
       x="26.458332"
       y="265.25" />
    <rect
       style="fill:#7f7f7f;fill-opacity:1;stroke:#000000;stroke-width:0.5;stroke-linecap:butt;stroke-linejoin:miter;stroke-miterlimit:4;stroke-dasharray:none;stroke-dashoffset:0;stroke-opacity:1"
       id="rect8359"
       width="34.395832"
       height="5.2916665"
       x="26.458332"
       y="271.86459" />
    <rect
       style="fill:#7f7f7f;fill-opacity:1;stroke:#000000;stroke-width:0.5;stroke-linecap:butt;stroke-linejoin:miter;stroke-miterlimit:4;stroke-dasharray:none;stroke-dashoffset:0;stroke-opacity:1"
       id="rect8361"
       width="54.239582"
       height="5.2916665"
       x="26.458332"
       y="278.47916" />
    <rect
       style="fill:#7f7fdf;fill-opacity:1;stroke:#000000;stroke-width:0.5;stroke-linecap:butt;stroke-linejoin:miter;stroke-miterlimit:4;stroke-dasharray:none;stroke-dashoffset:0;stroke-opacity:1"
       id="rect8363"
       width="7.9375"
       height="5.2916665"
       x="26.458332"
       y="285.09375" />
    <g
       aria-label="200ºC"
       transform="matrix(0.26458333,0,0,0.26458333,0.56696429,198.03943)"
       style="font-style:normal;font-weight:normal;font-size:4px;line-height:125%;font-family:Sans;letter-spacing:0px;word-spacing:0px;fill:#000000;fill-opacity:1;stroke:none;stroke-width:1px;stroke-linecap:butt;stroke-linejoin:miter;stroke-opacity:1"
       id="flowRoot8365">
      <path
         d="m 30.135599,331.09086 h 4.24 v 1.04 h -6.506667 l 4.706667,-5.56 q 0.68,-0.81333 0.68,-1.68 0,-0.82667 -0.586666,-1.38667 -0.586667,-0.56 -1.413334,-0.56 -0.893333,0 -1.453333,0.58667 -0.546667,0.58667 -0.573334,1.48 h -1.12 q 0.02667,-1.33333 0.906667,-2.21333 0.88,-0.89334 2.2,-0.89334 1.293334,0 2.226667,0.85334 0.933333,0.84 0.933333,2.12 0,1.24 -0.76,2.12 z"
         style="font-style:normal;font-variant:normal;font-weight:normal;font-stretch:normal;font-size:13.33333397px;font-family:'Futura LT';-inkscape-font-specification:'Futura LT'"
         id="path8395" />
      <path
         d="m 38.005391,322.42419 q 0.72,-0.52 1.626666,-0.52 0.906667,0 1.626667,0.52 0.72,0.50667 1.133334,1.32 0.413333,0.81334 0.626666,1.68 0.213334,0.86667 0.213334,1.69334 0,0.94666 -0.253334,1.86666 -0.24,0.90667 -0.68,1.65334 -0.44,0.74666 -1.146666,1.21333 -0.693334,0.45333 -1.520001,0.45333 -0.826666,0 -1.533333,-0.45333 -0.693333,-0.46667 -1.133333,-1.21333 -0.44,-0.74667 -0.693334,-1.65334 -0.24,-0.92 -0.24,-1.86666 0,-0.82667 0.213334,-1.69334 0.213333,-0.86666 0.626666,-1.68 0.413334,-0.81333 1.133334,-1.32 z m 2.8,0.97334 q -0.506667,-0.45334 -1.173334,-0.45334 -0.666666,0 -1.186666,0.45334 -0.506667,0.45333 -0.786667,1.14666 -0.266667,0.68 -0.4,1.36 -0.12,0.68 -0.106667,1.26667 0.01333,0.6 0.146667,1.25333 0.133333,0.64 0.4,1.30667 0.266667,0.66667 0.773333,1.10667 0.506667,0.42666 1.16,0.42666 0.653334,0 1.160001,-0.42666 0.506666,-0.44 0.773333,-1.10667 0.266667,-0.66667 0.4,-1.30667 0.133333,-0.65333 0.146667,-1.25333 0.01333,-0.58667 -0.12,-1.26667 -0.12,-0.68 -0.4,-1.36 -0.266667,-0.69333 -0.786667,-1.14666 z"
         style="font-style:normal;font-variant:normal;font-weight:normal;font-stretch:normal;font-size:13.33333397px;font-family:'Futura LT';-inkscape-font-specification:'Futura LT'"
         id="path8397" />
      <path
         d="m 46.208516,322.42419 q 0.72,-0.52 1.626666,-0.52 0.906667,0 1.626667,0.52 0.72,0.50667 1.133334,1.32 0.413333,0.81334 0.626666,1.68 0.213334,0.86667 0.213334,1.69334 0,0.94666 -0.253334,1.86666 -0.24,0.90667 -0.68,1.65334 -0.44,0.74666 -1.146666,1.21333 -0.693334,0.45333 -1.520001,0.45333 -0.826666,0 -1.533333,-0.45333 -0.693333,-0.46667 -1.133333,-1.21333 -0.44,-0.74667 -0.693334,-1.65334 -0.24,-0.92 -0.24,-1.86666 0,-0.82667 0.213334,-1.69334 0.213333,-0.86666 0.626666,-1.68 0.413334,-0.81333 1.133334,-1.32 z m 2.8,0.97334 q -0.506667,-0.45334 -1.173334,-0.45334 -0.666666,0 -1.186666,0.45334 -0.506667,0.45333 -0.786667,1.14666 -0.266667,0.68 -0.4,1.36 -0.12,0.68 -0.106667,1.26667 0.01333,0.6 0.146667,1.25333 0.133333,0.64 0.4,1.30667 0.266667,0.66667 0.773333,1.10667 0.506667,0.42666 1.16,0.42666 0.653334,0 1.160001,-0.42666 0.506666,-0.44 0.773333,-1.10667 0.266667,-0.66667 0.4,-1.30667 0.133333,-0.65333 0.146667,-1.25333 0.01333,-0.58667 -0.12,-1.26667 -0.12,-0.68 -0.4,-1.36 -0.266667,-0.69333 -0.786667,-1.14666 z"
         style="font-style:normal;font-variant:normal;font-weight:normal;font-stretch:normal;font-size:13.33333397px;font-family:'Futura LT';-inkscape-font-specification:'Futura LT'"
         id="path8399" />
      <path
         d="m 55.704974,325.30419 q -0.626667,0.57334 -1.52,0.57334 -0.893333,0 -1.52,-0.57334 -0.626667,-0.57333 -0.626667,-1.4 0,-0.82666 0.626667,-1.41333 0.626667,-0.58667 1.52,-0.58667 0.893333,0 1.52,0.58667 0.626667,0.58667 0.626667,1.41333 0,0.82667 -0.626667,1.4 z m -0.48,-2.4 q -0.413333,-0.41333 -1.04,-0.41333 -0.626667,0 -1.04,0.41333 -0.413333,0.4 -0.413333,0.98667 0,0.58667 0.413333,1 0.413333,0.4 1.04,0.4 0.626667,0 1.04,-0.4 0.413333,-0.41333 0.413333,-1 0,-0.58667 -0.413333,-0.98667 z"
         style="font-style:normal;font-variant:normal;font-weight:normal;font-stretch:normal;font-size:13.33333397px;font-family:'Futura LT';-inkscape-font-specification:'Futura LT'"
         id="path8401" />
      <path
         d="m 65.11685,322.89086 v 1.38667 q -1.293333,-1.33334 -3.066667,-1.33334 -1.666667,0 -2.866667,1.24 -1.186666,1.24 -1.186666,2.92 0,1.68 1.2,2.92 1.2,1.24 2.88,1.24 1.706667,0 3.04,-1.33333 v 1.38667 q -1.36,0.98666 -3,0.98666 -2.133334,0 -3.693334,-1.50666 -1.546666,-1.52 -1.546666,-3.65334 0,-2.16 1.533333,-3.69333 1.546667,-1.54667 3.706667,-1.54667 1.68,0 3,0.98667 z"
         style="font-style:normal;font-variant:normal;font-weight:normal;font-stretch:normal;font-size:13.33333397px;font-family:'Futura LT';-inkscape-font-specification:'Futura LT'"
         id="path8403" />
    </g>
    <path
       style="fill:none;fill-rule:evenodd;stroke:#000000;stroke-width:0.265;stroke-linecap:butt;stroke-linejoin:miter;stroke-opacity:1;stroke-miterlimit:4;stroke-dasharray:none;marker-end:url(#Arrow1Mend)"
       d="m 18.520833,284.62128 h 4.866443"
       id="path8373"
       inkscape:connector-curvature="0" />
    <flowRoot
       xml:space="preserve"
       id="flowRoot8406"
       style="fill:black;stroke:none;stroke-opacity:1;stroke-width:1px;stroke-linejoin:miter;stroke-linecap:butt;fill-opacity:1;font-family:Sans;font-style:normal;font-weight:normal;font-size:4px;line-height:125%;letter-spacing:0px;word-spacing:0px"><flowRegion
         id="flowRegion8408"><rect
           id="rect8410"
           width="40.35714"
           height="17.49992"
           x="59.642857"
           y="310.45276" /></flowRegion><flowPara
         id="flowPara8412" /></flowRoot>    <g
       aria-label="0.8s"
       transform="matrix(0.26458333,0,0,0.26458333,5.1026786,199.17336)"
       style="font-style:normal;font-weight:normal;font-size:4px;line-height:125%;font-family:Sans;letter-spacing:0px;word-spacing:0px;fill:#000000;fill-opacity:1;stroke:none;stroke-width:1px;stroke-linecap:butt;stroke-linejoin:miter;stroke-opacity:1"
       id="flowRoot8414">
      <path
         d="m 54.265156,304.03161 q 0.72,-0.52 1.626667,-0.52 0.906667,0 1.626667,0.52 0.72,0.50667 1.133333,1.32 0.413334,0.81334 0.626667,1.68 0.213333,0.86667 0.213333,1.69334 0,0.94666 -0.253333,1.86666 -0.24,0.90667 -0.68,1.65334 -0.44,0.74666 -1.146667,1.21333 -0.693333,0.45333 -1.52,0.45333 -0.826667,0 -1.533333,-0.45333 -0.693334,-0.46667 -1.133334,-1.21333 -0.44,-0.74667 -0.693333,-1.65334 -0.24,-0.92 -0.24,-1.86666 0,-0.82667 0.213333,-1.69334 0.213334,-0.86666 0.626667,-1.68 0.413333,-0.81333 1.133333,-1.32 z m 2.800001,0.97334 q -0.506667,-0.45334 -1.173334,-0.45334 -0.666667,0 -1.186667,0.45334 -0.506666,0.45333 -0.786666,1.14666 -0.266667,0.68 -0.4,1.36 -0.12,0.68 -0.106667,1.26667 0.01333,0.6 0.146667,1.25333 0.133333,0.64 0.4,1.30667 0.266666,0.66667 0.773333,1.10667 0.506667,0.42666 1.16,0.42666 0.653333,0 1.16,-0.42666 0.506667,-0.44 0.773334,-1.10667 0.266666,-0.66667 0.4,-1.30667 0.133333,-0.65333 0.146666,-1.25333 0.01333,-0.58667 -0.12,-1.26667 -0.12,-0.68 -0.4,-1.36 -0.266666,-0.69333 -0.786666,-1.14666 z"
         style="font-style:normal;font-variant:normal;font-weight:normal;font-stretch:normal;font-size:13.33333397px;font-family:'Futura LT';-inkscape-font-specification:'Futura LT'"
         id="path8709" />
      <path
         d="m 61.508281,312.63161 q 0.226667,-0.21333 0.533334,-0.21333 0.306666,0 0.52,0.21333 0.226666,0.21334 0.226666,0.52 0,0.30667 -0.226666,0.53334 -0.213334,0.22666 -0.52,0.22666 -0.306667,0 -0.533334,-0.22666 -0.213333,-0.22667 -0.213333,-0.53334 0,-0.30666 0.213333,-0.52 z"
         style="font-style:normal;font-variant:normal;font-weight:normal;font-stretch:normal;font-size:13.33333397px;font-family:'Futura LT';-inkscape-font-specification:'Futura LT'"
         id="path8711" />
      <path
         d="m 69.582865,309.57828 q -0.56,-0.57333 -1.373333,-0.57333 -0.813333,0 -1.386667,0.57333 -0.56,0.56 -0.56,1.36 0,0.8 0.56,1.37333 0.573334,0.56 1.386667,0.56 0.813333,0 1.373333,-0.56 0.573334,-0.57333 0.573334,-1.37333 0,-0.8 -0.573334,-1.36 z m -3.373333,-5.26667 q 0.813333,-0.8 2,-0.8 1.186667,0 2,0.8 0.813334,0.8 0.813334,2 0,0.66667 -0.333334,1.28 -0.32,0.6 -0.893333,0.92 0.693333,0.32 1.08,0.97334 0.4,0.65333 0.4,1.44 0,1.29333 -0.88,2.14666 -0.88,0.84 -2.186667,0.84 -1.306667,0 -2.186667,-0.84 -0.88,-0.85333 -0.88,-2.14666 0,-0.78667 0.386667,-1.44 0.4,-0.65334 1.093333,-0.97334 -0.573333,-0.32 -0.906666,-0.92 -0.32,-0.61333 -0.32,-1.28 0,-1.2 0.813333,-2 z m 3.226667,0.74667 q -0.506667,-0.50667 -1.226667,-0.50667 -0.72,0 -1.24,0.50667 -0.506667,0.50667 -0.506667,1.22667 0,0.73333 0.506667,1.25333 0.52,0.50667 1.24,0.50667 0.72,0 1.226667,-0.50667 0.52,-0.52 0.52,-1.25333 0,-0.72 -0.52,-1.22667 z"
         style="font-style:normal;font-variant:normal;font-weight:normal;font-stretch:normal;font-size:13.33333397px;font-family:'Futura LT';-inkscape-font-specification:'Futura LT'"
         id="path8713" />
      <path
         d="m 76.74599,308.45828 -0.893333,0.46667 q -0.12,-0.26667 -0.346667,-0.45334 -0.226666,-0.18666 -0.506666,-0.18666 -0.293334,0 -0.533334,0.2 -0.24,0.2 -0.24,0.49333 0,0.12 0.02667,0.22667 0.04,0.0933 0.133333,0.18666 0.106667,0.0933 0.173334,0.16 0.08,0.0667 0.253333,0.14667 0.173333,0.08 0.253333,0.12 0.08,0.04 0.306667,0.13333 0.226667,0.0933 0.306667,0.12 0.666666,0.28 1.053333,0.68 0.4,0.4 0.4,1.12 0,0.88 -0.626667,1.46667 -0.613333,0.57333 -1.493333,0.57333 -0.786667,0 -1.373333,-0.41333 -0.586667,-0.42667 -0.84,-1.17333 l 0.946666,-0.4 q 0.226667,0.49333 0.506667,0.74666 0.28,0.25334 0.773333,0.25334 0.44,0 0.72,-0.26667 0.293334,-0.26667 0.293334,-0.69333 0,-0.38667 -0.293334,-0.64 -0.293333,-0.25334 -0.706666,-0.41334 -0.413334,-0.17333 -0.826667,-0.36 -0.413333,-0.2 -0.706667,-0.56 -0.293333,-0.37333 -0.293333,-0.92 0,-0.77333 0.546667,-1.26666 0.546666,-0.50667 1.32,-0.50667 0.533333,0 0.986666,0.33333 0.466667,0.32 0.68,0.82667 z"
         style="font-style:normal;font-variant:normal;font-weight:normal;font-stretch:normal;font-size:13.33333397px;font-family:'Futura LT';-inkscape-font-specification:'Futura LT'"
         id="path8715" />
    </g>
    <g
       aria-label="0.5s"
       transform="matrix(0.26458333,0,0,0.26458333,5.2733093,192.92497)"
       style="font-style:normal;font-weight:normal;font-size:4px;line-height:125%;font-family:Sans;letter-spacing:0px;word-spacing:0px;fill:#000000;fill-opacity:1;stroke:none;stroke-width:1px;stroke-linecap:butt;stroke-linejoin:miter;stroke-opacity:1"
       id="flowRoot8414-1">
      <path
         d="m 54.265156,304.03161 q 0.72,-0.52 1.626667,-0.52 0.906667,0 1.626667,0.52 0.72,0.50667 1.133333,1.32 0.413334,0.81334 0.626667,1.68 0.213333,0.86667 0.213333,1.69334 0,0.94666 -0.253333,1.86666 -0.24,0.90667 -0.68,1.65334 -0.44,0.74666 -1.146667,1.21333 -0.693333,0.45333 -1.52,0.45333 -0.826667,0 -1.533333,-0.45333 -0.693334,-0.46667 -1.133334,-1.21333 -0.44,-0.74667 -0.693333,-1.65334 -0.24,-0.92 -0.24,-1.86666 0,-0.82667 0.213333,-1.69334 0.213334,-0.86666 0.626667,-1.68 0.413333,-0.81333 1.133333,-1.32 z m 2.800001,0.97334 q -0.506667,-0.45334 -1.173334,-0.45334 -0.666667,0 -1.186667,0.45334 -0.506666,0.45333 -0.786666,1.14666 -0.266667,0.68 -0.4,1.36 -0.12,0.68 -0.106667,1.26667 0.01333,0.6 0.146667,1.25333 0.133333,0.64 0.4,1.30667 0.266666,0.66667 0.773333,1.10667 0.506667,0.42666 1.16,0.42666 0.653333,0 1.16,-0.42666 0.506667,-0.44 0.773334,-1.10667 0.266666,-0.66667 0.4,-1.30667 0.133333,-0.65333 0.146666,-1.25333 0.01333,-0.58667 -0.12,-1.26667 -0.12,-0.68 -0.4,-1.36 -0.266666,-0.69333 -0.786666,-1.14666 z"
         style="font-style:normal;font-variant:normal;font-weight:normal;font-stretch:normal;font-size:13.33333397px;font-family:'Futura LT';-inkscape-font-specification:'Futura LT'"
         id="path8700" />
      <path
         d="m 61.508281,312.63161 q 0.226667,-0.21333 0.533334,-0.21333 0.306666,0 0.52,0.21333 0.226666,0.21334 0.226666,0.52 0,0.30667 -0.226666,0.53334 -0.213334,0.22666 -0.52,0.22666 -0.306667,0 -0.533334,-0.22666 -0.213333,-0.22667 -0.213333,-0.53334 0,-0.30666 0.213333,-0.52 z"
         style="font-style:normal;font-variant:normal;font-weight:normal;font-stretch:normal;font-size:13.33333397px;font-family:'Futura LT';-inkscape-font-specification:'Futura LT'"
         id="path8702" />
      <path
         d="m 71.076199,304.72495 h -3.213334 l -0.653333,2.14666 0.6,-0.0533 q 1.466667,0 2.4,1.01333 0.946667,1.01334 0.946667,2.49334 0,1.54666 -1.066667,2.57333 -1.066667,1.01333 -2.626667,1.01333 -0.986666,0 -1.786666,-0.46666 -0.786667,-0.48 -1.293334,-1.33334 l 0.893334,-0.64 q 0.346666,0.62667 0.933333,1.01334 0.6,0.38666 1.293333,0.38666 1.106667,0 1.813334,-0.73333 0.72,-0.73333 0.72,-1.84 0,-1.05333 -0.72,-1.74667 -0.72,-0.69333 -1.786667,-0.69333 -0.92,0 -1.906667,0.64 l 1.453334,-4.81333 h 4 z"
         style="font-style:normal;font-variant:normal;font-weight:normal;font-stretch:normal;font-size:13.33333397px;font-family:'Futura LT';-inkscape-font-specification:'Futura LT'"
         id="path8704" />
      <path
         d="m 76.74599,308.45828 -0.893333,0.46667 q -0.12,-0.26667 -0.346667,-0.45334 -0.226666,-0.18666 -0.506666,-0.18666 -0.293334,0 -0.533334,0.2 -0.24,0.2 -0.24,0.49333 0,0.12 0.02667,0.22667 0.04,0.0933 0.133333,0.18666 0.106667,0.0933 0.173334,0.16 0.08,0.0667 0.253333,0.14667 0.173333,0.08 0.253333,0.12 0.08,0.04 0.306667,0.13333 0.226667,0.0933 0.306667,0.12 0.666666,0.28 1.053333,0.68 0.4,0.4 0.4,1.12 0,0.88 -0.626667,1.46667 -0.613333,0.57333 -1.493333,0.57333 -0.786667,0 -1.373333,-0.41333 -0.586667,-0.42667 -0.84,-1.17333 l 0.946666,-0.4 q 0.226667,0.49333 0.506667,0.74666 0.28,0.25334 0.773333,0.25334 0.44,0 0.72,-0.26667 0.293334,-0.26667 0.293334,-0.69333 0,-0.38667 -0.293334,-0.64 -0.293333,-0.25334 -0.706666,-0.41334 -0.413334,-0.17333 -0.826667,-0.36 -0.413333,-0.2 -0.706667,-0.56 -0.293333,-0.37333 -0.293333,-0.92 0,-0.77333 0.546667,-1.26666 0.546666,-0.50667 1.32,-0.50667 0.533333,0 0.986666,0.33333 0.466667,0.32 0.68,0.82667 z"
         style="font-style:normal;font-variant:normal;font-weight:normal;font-stretch:normal;font-size:13.33333397px;font-family:'Futura LT';-inkscape-font-specification:'Futura LT'"
         id="path8706" />
    </g>
    <g
       aria-label="0.7s"
       transform="matrix(0.26458333,0,0,0.26458333,5.5567914,186.31037)"
       style="font-style:normal;font-weight:normal;font-size:4px;line-height:125%;font-family:Sans;letter-spacing:0px;word-spacing:0px;fill:#000000;fill-opacity:1;stroke:none;stroke-width:1px;stroke-linecap:butt;stroke-linejoin:miter;stroke-opacity:1"
       id="flowRoot8414-0">
      <path
         d="m 54.265156,304.03161 q 0.72,-0.52 1.626667,-0.52 0.906667,0 1.626667,0.52 0.72,0.50667 1.133333,1.32 0.413334,0.81334 0.626667,1.68 0.213333,0.86667 0.213333,1.69334 0,0.94666 -0.253333,1.86666 -0.24,0.90667 -0.68,1.65334 -0.44,0.74666 -1.146667,1.21333 -0.693333,0.45333 -1.52,0.45333 -0.826667,0 -1.533333,-0.45333 -0.693334,-0.46667 -1.133334,-1.21333 -0.44,-0.74667 -0.693333,-1.65334 -0.24,-0.92 -0.24,-1.86666 0,-0.82667 0.213333,-1.69334 0.213334,-0.86666 0.626667,-1.68 0.413333,-0.81333 1.133333,-1.32 z m 2.800001,0.97334 q -0.506667,-0.45334 -1.173334,-0.45334 -0.666667,0 -1.186667,0.45334 -0.506666,0.45333 -0.786666,1.14666 -0.266667,0.68 -0.4,1.36 -0.12,0.68 -0.106667,1.26667 0.01333,0.6 0.146667,1.25333 0.133333,0.64 0.4,1.30667 0.266666,0.66667 0.773333,1.10667 0.506667,0.42666 1.16,0.42666 0.653333,0 1.16,-0.42666 0.506667,-0.44 0.773334,-1.10667 0.266666,-0.66667 0.4,-1.30667 0.133333,-0.65333 0.146666,-1.25333 0.01333,-0.58667 -0.12,-1.26667 -0.12,-0.68 -0.4,-1.36 -0.266666,-0.69333 -0.786666,-1.14666 z"
         style="font-style:normal;font-variant:normal;font-weight:normal;font-stretch:normal;font-size:13.33333397px;font-family:'Futura LT';-inkscape-font-specification:'Futura LT'"
         id="path8691" />
      <path
         d="m 61.508281,312.63161 q 0.226667,-0.21333 0.533334,-0.21333 0.306666,0 0.52,0.21333 0.226666,0.21334 0.226666,0.52 0,0.30667 -0.226666,0.53334 -0.213334,0.22666 -0.52,0.22666 -0.306667,0 -0.533334,-0.22666 -0.213333,-0.22667 -0.213333,-0.53334 0,-0.30666 0.213333,-0.52 z"
         style="font-style:normal;font-variant:normal;font-weight:normal;font-stretch:normal;font-size:13.33333397px;font-family:'Futura LT';-inkscape-font-specification:'Futura LT'"
         id="path8693" />
      <path
         d="m 70.276199,304.72495 h -5.493334 v -1.04 h 7.413334 l -6.746667,10.22666 -0.88,-0.52 z"
         style="font-style:normal;font-variant:normal;font-weight:normal;font-stretch:normal;font-size:13.33333397px;font-family:'Futura LT';-inkscape-font-specification:'Futura LT'"
         id="path8695" />
      <path
         d="m 76.74599,308.45828 -0.893333,0.46667 q -0.12,-0.26667 -0.346667,-0.45334 -0.226666,-0.18666 -0.506666,-0.18666 -0.293334,0 -0.533334,0.2 -0.24,0.2 -0.24,0.49333 0,0.12 0.02667,0.22667 0.04,0.0933 0.133333,0.18666 0.106667,0.0933 0.173334,0.16 0.08,0.0667 0.253333,0.14667 0.173333,0.08 0.253333,0.12 0.08,0.04 0.306667,0.13333 0.226667,0.0933 0.306667,0.12 0.666666,0.28 1.053333,0.68 0.4,0.4 0.4,1.12 0,0.88 -0.626667,1.46667 -0.613333,0.57333 -1.493333,0.57333 -0.786667,0 -1.373333,-0.41333 -0.586667,-0.42667 -0.84,-1.17333 l 0.946666,-0.4 q 0.226667,0.49333 0.506667,0.74666 0.28,0.25334 0.773333,0.25334 0.44,0 0.72,-0.26667 0.293334,-0.26667 0.293334,-0.69333 0,-0.38667 -0.293334,-0.64 -0.293333,-0.25334 -0.706666,-0.41334 -0.413334,-0.17333 -0.826667,-0.36 -0.413333,-0.2 -0.706667,-0.56 -0.293333,-0.37333 -0.293333,-0.92 0,-0.77333 0.546667,-1.26666 0.546666,-0.50667 1.32,-0.50667 0.533333,0 0.986666,0.33333 0.466667,0.32 0.68,0.82667 z"
         style="font-style:normal;font-variant:normal;font-weight:normal;font-stretch:normal;font-size:13.33333397px;font-family:'Futura LT';-inkscape-font-specification:'Futura LT'"
         id="path8697" />
    </g>
    <g
       aria-label="0.5s"
       transform="matrix(0.26458333,0,0,0.26458333,5.1788153,179.6958)"
       style="font-style:normal;font-weight:normal;font-size:4px;line-height:125%;font-family:Sans;letter-spacing:0px;word-spacing:0px;fill:#000000;fill-opacity:1;stroke:none;stroke-width:1px;stroke-linecap:butt;stroke-linejoin:miter;stroke-opacity:1"
       id="flowRoot8414-2">
      <path
         d="m 54.265156,304.03161 q 0.72,-0.52 1.626667,-0.52 0.906667,0 1.626667,0.52 0.72,0.50667 1.133333,1.32 0.413334,0.81334 0.626667,1.68 0.213333,0.86667 0.213333,1.69334 0,0.94666 -0.253333,1.86666 -0.24,0.90667 -0.68,1.65334 -0.44,0.74666 -1.146667,1.21333 -0.693333,0.45333 -1.52,0.45333 -0.826667,0 -1.533333,-0.45333 -0.693334,-0.46667 -1.133334,-1.21333 -0.44,-0.74667 -0.693333,-1.65334 -0.24,-0.92 -0.24,-1.86666 0,-0.82667 0.213333,-1.69334 0.213334,-0.86666 0.626667,-1.68 0.413333,-0.81333 1.133333,-1.32 z m 2.800001,0.97334 q -0.506667,-0.45334 -1.173334,-0.45334 -0.666667,0 -1.186667,0.45334 -0.506666,0.45333 -0.786666,1.14666 -0.266667,0.68 -0.4,1.36 -0.12,0.68 -0.106667,1.26667 0.01333,0.6 0.146667,1.25333 0.133333,0.64 0.4,1.30667 0.266666,0.66667 0.773333,1.10667 0.506667,0.42666 1.16,0.42666 0.653333,0 1.16,-0.42666 0.506667,-0.44 0.773334,-1.10667 0.266666,-0.66667 0.4,-1.30667 0.133333,-0.65333 0.146666,-1.25333 0.01333,-0.58667 -0.12,-1.26667 -0.12,-0.68 -0.4,-1.36 -0.266666,-0.69333 -0.786666,-1.14666 z"
         style="font-style:normal;font-variant:normal;font-weight:normal;font-stretch:normal;font-size:13.33333397px;font-family:'Futura LT';-inkscape-font-specification:'Futura LT'"
         id="path8682" />
      <path
         d="m 61.508281,312.63161 q 0.226667,-0.21333 0.533334,-0.21333 0.306666,0 0.52,0.21333 0.226666,0.21334 0.226666,0.52 0,0.30667 -0.226666,0.53334 -0.213334,0.22666 -0.52,0.22666 -0.306667,0 -0.533334,-0.22666 -0.213333,-0.22667 -0.213333,-0.53334 0,-0.30666 0.213333,-0.52 z"
         style="font-style:normal;font-variant:normal;font-weight:normal;font-stretch:normal;font-size:13.33333397px;font-family:'Futura LT';-inkscape-font-specification:'Futura LT'"
         id="path8684" />
      <path
         d="m 71.076199,304.72495 h -3.213334 l -0.653333,2.14666 0.6,-0.0533 q 1.466667,0 2.4,1.01333 0.946667,1.01334 0.946667,2.49334 0,1.54666 -1.066667,2.57333 -1.066667,1.01333 -2.626667,1.01333 -0.986666,0 -1.786666,-0.46666 -0.786667,-0.48 -1.293334,-1.33334 l 0.893334,-0.64 q 0.346666,0.62667 0.933333,1.01334 0.6,0.38666 1.293333,0.38666 1.106667,0 1.813334,-0.73333 0.72,-0.73333 0.72,-1.84 0,-1.05333 -0.72,-1.74667 -0.72,-0.69333 -1.786667,-0.69333 -0.92,0 -1.906667,0.64 l 1.453334,-4.81333 h 4 z"
         style="font-style:normal;font-variant:normal;font-weight:normal;font-stretch:normal;font-size:13.33333397px;font-family:'Futura LT';-inkscape-font-specification:'Futura LT'"
         id="path8686" />
      <path
         d="m 76.74599,308.45828 -0.893333,0.46667 q -0.12,-0.26667 -0.346667,-0.45334 -0.226666,-0.18666 -0.506666,-0.18666 -0.293334,0 -0.533334,0.2 -0.24,0.2 -0.24,0.49333 0,0.12 0.02667,0.22667 0.04,0.0933 0.133333,0.18666 0.106667,0.0933 0.173334,0.16 0.08,0.0667 0.253333,0.14667 0.173333,0.08 0.253333,0.12 0.08,0.04 0.306667,0.13333 0.226667,0.0933 0.306667,0.12 0.666666,0.28 1.053333,0.68 0.4,0.4 0.4,1.12 0,0.88 -0.626667,1.46667 -0.613333,0.57333 -1.493333,0.57333 -0.786667,0 -1.373333,-0.41333 -0.586667,-0.42667 -0.84,-1.17333 l 0.946666,-0.4 q 0.226667,0.49333 0.506667,0.74666 0.28,0.25334 0.773333,0.25334 0.44,0 0.72,-0.26667 0.293334,-0.26667 0.293334,-0.69333 0,-0.38667 -0.293334,-0.64 -0.293333,-0.25334 -0.706666,-0.41334 -0.413334,-0.17333 -0.826667,-0.36 -0.413333,-0.2 -0.706667,-0.56 -0.293333,-0.37333 -0.293333,-0.92 0,-0.77333 0.546667,-1.26666 0.546666,-0.50667 1.32,-0.50667 0.533333,0 0.986666,0.33333 0.466667,0.32 0.68,0.82667 z"
         style="font-style:normal;font-variant:normal;font-weight:normal;font-stretch:normal;font-size:13.33333397px;font-family:'Futura LT';-inkscape-font-specification:'Futura LT'"
         id="path8688" />
    </g>
    <g
       aria-label="0.6s"
       transform="matrix(0.26458333,0,0,0.26458333,5.1788153,172.89223)"
       style="font-style:normal;font-weight:normal;font-size:4px;line-height:125%;font-family:Sans;letter-spacing:0px;word-spacing:0px;fill:#000000;fill-opacity:1;stroke:none;stroke-width:1px;stroke-linecap:butt;stroke-linejoin:miter;stroke-opacity:1"
       id="flowRoot8414-3">
      <path
         d="m 54.265156,304.03161 q 0.72,-0.52 1.626667,-0.52 0.906667,0 1.626667,0.52 0.72,0.50667 1.133333,1.32 0.413334,0.81334 0.626667,1.68 0.213333,0.86667 0.213333,1.69334 0,0.94666 -0.253333,1.86666 -0.24,0.90667 -0.68,1.65334 -0.44,0.74666 -1.146667,1.21333 -0.693333,0.45333 -1.52,0.45333 -0.826667,0 -1.533333,-0.45333 -0.693334,-0.46667 -1.133334,-1.21333 -0.44,-0.74667 -0.693333,-1.65334 -0.24,-0.92 -0.24,-1.86666 0,-0.82667 0.213333,-1.69334 0.213334,-0.86666 0.626667,-1.68 0.413333,-0.81333 1.133333,-1.32 z m 2.800001,0.97334 q -0.506667,-0.45334 -1.173334,-0.45334 -0.666667,0 -1.186667,0.45334 -0.506666,0.45333 -0.786666,1.14666 -0.266667,0.68 -0.4,1.36 -0.12,0.68 -0.106667,1.26667 0.01333,0.6 0.146667,1.25333 0.133333,0.64 0.4,1.30667 0.266666,0.66667 0.773333,1.10667 0.506667,0.42666 1.16,0.42666 0.653333,0 1.16,-0.42666 0.506667,-0.44 0.773334,-1.10667 0.266666,-0.66667 0.4,-1.30667 0.133333,-0.65333 0.146666,-1.25333 0.01333,-0.58667 -0.12,-1.26667 -0.12,-0.68 -0.4,-1.36 -0.266666,-0.69333 -0.786666,-1.14666 z"
         style="font-style:normal;font-variant:normal;font-weight:normal;font-stretch:normal;font-size:13.33333397px;font-family:'Futura LT';-inkscape-font-specification:'Futura LT'"
         id="path8673" />
      <path
         d="m 61.508281,312.63161 q 0.226667,-0.21333 0.533334,-0.21333 0.306666,0 0.52,0.21333 0.226666,0.21334 0.226666,0.52 0,0.30667 -0.226666,0.53334 -0.213334,0.22666 -0.52,0.22666 -0.306667,0 -0.533334,-0.22666 -0.213333,-0.22667 -0.213333,-0.53334 0,-0.30666 0.213333,-0.52 z"
         style="font-style:normal;font-variant:normal;font-weight:normal;font-stretch:normal;font-size:13.33333397px;font-family:'Futura LT';-inkscape-font-specification:'Futura LT'"
         id="path8675" />
      <path
         d="m 68.942865,303.51161 0.84,0.62667 -2.32,3.12 0.02667,0.0267 q 0.413333,-0.14667 0.88,-0.14667 1.36,0 2.306667,0.97333 0.946667,0.97334 0.946667,2.34667 0,1.44 -1.026667,2.45333 -1.013334,1 -2.44,1 -1.426667,0 -2.453334,-1.01333 -1.013333,-1.01333 -1.013333,-2.42667 0,-1.13333 0.92,-2.41333 z m -2.453333,8.66667 q 0.693333,0.69333 1.666667,0.69333 0.973333,0 1.653333,-0.69333 0.693334,-0.69333 0.693334,-1.68 0,-0.97333 -0.693334,-1.64 -0.68,-0.68 -1.653333,-0.68 -0.986667,0 -1.666667,0.68 -0.68,0.66667 -0.68,1.64 0,0.98667 0.68,1.68 z"
         style="font-style:normal;font-variant:normal;font-weight:normal;font-stretch:normal;font-size:13.33333397px;font-family:'Futura LT';-inkscape-font-specification:'Futura LT'"
         id="path8677" />
      <path
         d="m 76.74599,308.45828 -0.893333,0.46667 q -0.12,-0.26667 -0.346667,-0.45334 -0.226666,-0.18666 -0.506666,-0.18666 -0.293334,0 -0.533334,0.2 -0.24,0.2 -0.24,0.49333 0,0.12 0.02667,0.22667 0.04,0.0933 0.133333,0.18666 0.106667,0.0933 0.173334,0.16 0.08,0.0667 0.253333,0.14667 0.173333,0.08 0.253333,0.12 0.08,0.04 0.306667,0.13333 0.226667,0.0933 0.306667,0.12 0.666666,0.28 1.053333,0.68 0.4,0.4 0.4,1.12 0,0.88 -0.626667,1.46667 -0.613333,0.57333 -1.493333,0.57333 -0.786667,0 -1.373333,-0.41333 -0.586667,-0.42667 -0.84,-1.17333 l 0.946666,-0.4 q 0.226667,0.49333 0.506667,0.74666 0.28,0.25334 0.773333,0.25334 0.44,0 0.72,-0.26667 0.293334,-0.26667 0.293334,-0.69333 0,-0.38667 -0.293334,-0.64 -0.293333,-0.25334 -0.706666,-0.41334 -0.413334,-0.17333 -0.826667,-0.36 -0.413333,-0.2 -0.706667,-0.56 -0.293333,-0.37333 -0.293333,-0.92 0,-0.77333 0.546667,-1.26666 0.546666,-0.50667 1.32,-0.50667 0.533333,0 0.986666,0.33333 0.466667,0.32 0.68,0.82667 z"
         style="font-style:normal;font-variant:normal;font-weight:normal;font-stretch:normal;font-size:13.33333397px;font-family:'Futura LT';-inkscape-font-specification:'Futura LT'"
         id="path8679" />
    </g>
    <g
       aria-label="0.4s"
       transform="matrix(0.26458333,0,0,0.26458333,5.1788153,166.27764)"
       style="font-style:normal;font-weight:normal;font-size:4px;line-height:125%;font-family:Sans;letter-spacing:0px;word-spacing:0px;fill:#000000;fill-opacity:1;stroke:none;stroke-width:1px;stroke-linecap:butt;stroke-linejoin:miter;stroke-opacity:1"
       id="flowRoot8414-26">
      <path
         d="m 54.265156,304.03161 q 0.72,-0.52 1.626667,-0.52 0.906667,0 1.626667,0.52 0.72,0.50667 1.133333,1.32 0.413334,0.81334 0.626667,1.68 0.213333,0.86667 0.213333,1.69334 0,0.94666 -0.253333,1.86666 -0.24,0.90667 -0.68,1.65334 -0.44,0.74666 -1.146667,1.21333 -0.693333,0.45333 -1.52,0.45333 -0.826667,0 -1.533333,-0.45333 -0.693334,-0.46667 -1.133334,-1.21333 -0.44,-0.74667 -0.693333,-1.65334 -0.24,-0.92 -0.24,-1.86666 0,-0.82667 0.213333,-1.69334 0.213334,-0.86666 0.626667,-1.68 0.413333,-0.81333 1.133333,-1.32 z m 2.800001,0.97334 q -0.506667,-0.45334 -1.173334,-0.45334 -0.666667,0 -1.186667,0.45334 -0.506666,0.45333 -0.786666,1.14666 -0.266667,0.68 -0.4,1.36 -0.12,0.68 -0.106667,1.26667 0.01333,0.6 0.146667,1.25333 0.133333,0.64 0.4,1.30667 0.266666,0.66667 0.773333,1.10667 0.506667,0.42666 1.16,0.42666 0.653333,0 1.16,-0.42666 0.506667,-0.44 0.773334,-1.10667 0.266666,-0.66667 0.4,-1.30667 0.133333,-0.65333 0.146666,-1.25333 0.01333,-0.58667 -0.12,-1.26667 -0.12,-0.68 -0.4,-1.36 -0.266666,-0.69333 -0.786666,-1.14666 z"
         style="font-style:normal;font-variant:normal;font-weight:normal;font-stretch:normal;font-size:13.33333397px;font-family:'Futura LT';-inkscape-font-specification:'Futura LT'"
         id="path8664" />
      <path
         d="m 61.508281,312.63161 q 0.226667,-0.21333 0.533334,-0.21333 0.306666,0 0.52,0.21333 0.226666,0.21334 0.226666,0.52 0,0.30667 -0.226666,0.53334 -0.213334,0.22666 -0.52,0.22666 -0.306667,0 -0.533334,-0.22666 -0.213333,-0.22667 -0.213333,-0.53334 0,-0.30666 0.213333,-0.52 z"
         style="font-style:normal;font-variant:normal;font-weight:normal;font-stretch:normal;font-size:13.33333397px;font-family:'Futura LT';-inkscape-font-specification:'Futura LT'"
         id="path8666" />
      <path
         d="m 70.449532,311.07161 h 1.24 v 1.04 h -1.24 v 1.62667 h -1.12 v -1.62667 h -5.146667 l 6.240001,-8.98666 h 0.02667 z m -1.12,0 v -4.54666 h -0.02667 l -3.16,4.54666 z"
         style="font-style:normal;font-variant:normal;font-weight:normal;font-stretch:normal;font-size:13.33333397px;font-family:'Futura LT';-inkscape-font-specification:'Futura LT'"
         id="path8668" />
      <path
         d="m 76.74599,308.45828 -0.893333,0.46667 q -0.12,-0.26667 -0.346667,-0.45334 -0.226666,-0.18666 -0.506666,-0.18666 -0.293334,0 -0.533334,0.2 -0.24,0.2 -0.24,0.49333 0,0.12 0.02667,0.22667 0.04,0.0933 0.133333,0.18666 0.106667,0.0933 0.173334,0.16 0.08,0.0667 0.253333,0.14667 0.173333,0.08 0.253333,0.12 0.08,0.04 0.306667,0.13333 0.226667,0.0933 0.306667,0.12 0.666666,0.28 1.053333,0.68 0.4,0.4 0.4,1.12 0,0.88 -0.626667,1.46667 -0.613333,0.57333 -1.493333,0.57333 -0.786667,0 -1.373333,-0.41333 -0.586667,-0.42667 -0.84,-1.17333 l 0.946666,-0.4 q 0.226667,0.49333 0.506667,0.74666 0.28,0.25334 0.773333,0.25334 0.44,0 0.72,-0.26667 0.293334,-0.26667 0.293334,-0.69333 0,-0.38667 -0.293334,-0.64 -0.293333,-0.25334 -0.706666,-0.41334 -0.413334,-0.17333 -0.826667,-0.36 -0.413333,-0.2 -0.706667,-0.56 -0.293333,-0.37333 -0.293333,-0.92 0,-0.77333 0.546667,-1.26666 0.546666,-0.50667 1.32,-0.50667 0.533333,0 0.986666,0.33333 0.466667,0.32 0.68,0.82667 z"
         style="font-style:normal;font-variant:normal;font-weight:normal;font-stretch:normal;font-size:13.33333397px;font-family:'Futura LT';-inkscape-font-specification:'Futura LT'"
         id="path8670" />
    </g>
    <g
       aria-label="1.2s"
       transform="matrix(0.26458333,0,0,0.26458333,5.3678034,159.75756)"
       style="font-style:normal;font-weight:normal;font-size:4px;line-height:125%;font-family:Sans;letter-spacing:0px;word-spacing:0px;fill:#000000;fill-opacity:1;stroke:none;stroke-width:1px;stroke-linecap:butt;stroke-linejoin:miter;stroke-opacity:1"
       id="flowRoot8414-8">
      <path
         d="m 55.55849,304.72495 h -1.666667 l 0.586667,-1.04 h 2.2 v 10.05333 h -1.12 z"
         style="font-style:normal;font-variant:normal;font-weight:normal;font-stretch:normal;font-size:13.33333397px;font-family:'Futura LT';-inkscape-font-specification:'Futura LT'"
         id="path8655" />
      <path
         d="m 61.508281,312.63161 q 0.226667,-0.21333 0.533334,-0.21333 0.306666,0 0.52,0.21333 0.226666,0.21334 0.226666,0.52 0,0.30667 -0.226666,0.53334 -0.213334,0.22666 -0.52,0.22666 -0.306667,0 -0.533334,-0.22666 -0.213333,-0.22667 -0.213333,-0.53334 0,-0.30666 0.213333,-0.52 z"
         style="font-style:normal;font-variant:normal;font-weight:normal;font-stretch:normal;font-size:13.33333397px;font-family:'Futura LT';-inkscape-font-specification:'Futura LT'"
         id="path8657" />
      <path
         d="m 66.916199,312.69828 h 4.24 v 1.04 h -6.506667 l 4.706667,-5.56 q 0.68,-0.81333 0.68,-1.68 0,-0.82667 -0.586667,-1.38667 -0.586667,-0.56 -1.413333,-0.56 -0.893334,0 -1.453334,0.58667 -0.546666,0.58667 -0.573333,1.48 h -1.12 q 0.02667,-1.33333 0.906667,-2.21333 0.88,-0.89334 2.2,-0.89334 1.293333,0 2.226667,0.85334 0.933333,0.84 0.933333,2.12 0,1.24 -0.76,2.12 z"
         style="font-style:normal;font-variant:normal;font-weight:normal;font-stretch:normal;font-size:13.33333397px;font-family:'Futura LT';-inkscape-font-specification:'Futura LT'"
         id="path8659" />
      <path
         d="m 76.74599,308.45828 -0.893333,0.46667 q -0.12,-0.26667 -0.346667,-0.45334 -0.226666,-0.18666 -0.506666,-0.18666 -0.293334,0 -0.533334,0.2 -0.24,0.2 -0.24,0.49333 0,0.12 0.02667,0.22667 0.04,0.0933 0.133333,0.18666 0.106667,0.0933 0.173334,0.16 0.08,0.0667 0.253333,0.14667 0.173333,0.08 0.253333,0.12 0.08,0.04 0.306667,0.13333 0.226667,0.0933 0.306667,0.12 0.666666,0.28 1.053333,0.68 0.4,0.4 0.4,1.12 0,0.88 -0.626667,1.46667 -0.613333,0.57333 -1.493333,0.57333 -0.786667,0 -1.373333,-0.41333 -0.586667,-0.42667 -0.84,-1.17333 l 0.946666,-0.4 q 0.226667,0.49333 0.506667,0.74666 0.28,0.25334 0.773333,0.25334 0.44,0 0.72,-0.26667 0.293334,-0.26667 0.293334,-0.69333 0,-0.38667 -0.293334,-0.64 -0.293333,-0.25334 -0.706666,-0.41334 -0.413334,-0.17333 -0.826667,-0.36 -0.413333,-0.2 -0.706667,-0.56 -0.293333,-0.37333 -0.293333,-0.92 0,-0.77333 0.546667,-1.26666 0.546666,-0.50667 1.32,-0.50667 0.533333,0 0.986666,0.33333 0.466667,0.32 0.68,0.82667 z"
         style="font-style:normal;font-variant:normal;font-weight:normal;font-stretch:normal;font-size:13.33333397px;font-family:'Futura LT';-inkscape-font-specification:'Futura LT'"
         id="path8661" />
    </g>
    <g
       aria-label="0.6s"
       transform="matrix(0.26458333,0,0,0.26458333,5.3678034,153.14297)"
       style="font-style:normal;font-weight:normal;font-size:4px;line-height:125%;font-family:Sans;letter-spacing:0px;word-spacing:0px;fill:#000000;fill-opacity:1;stroke:none;stroke-width:1px;stroke-linecap:butt;stroke-linejoin:miter;stroke-opacity:1"
       id="flowRoot8414-08">
      <path
         d="m 54.265156,304.03161 q 0.72,-0.52 1.626667,-0.52 0.906667,0 1.626667,0.52 0.72,0.50667 1.133333,1.32 0.413334,0.81334 0.626667,1.68 0.213333,0.86667 0.213333,1.69334 0,0.94666 -0.253333,1.86666 -0.24,0.90667 -0.68,1.65334 -0.44,0.74666 -1.146667,1.21333 -0.693333,0.45333 -1.52,0.45333 -0.826667,0 -1.533333,-0.45333 -0.693334,-0.46667 -1.133334,-1.21333 -0.44,-0.74667 -0.693333,-1.65334 -0.24,-0.92 -0.24,-1.86666 0,-0.82667 0.213333,-1.69334 0.213334,-0.86666 0.626667,-1.68 0.413333,-0.81333 1.133333,-1.32 z m 2.800001,0.97334 q -0.506667,-0.45334 -1.173334,-0.45334 -0.666667,0 -1.186667,0.45334 -0.506666,0.45333 -0.786666,1.14666 -0.266667,0.68 -0.4,1.36 -0.12,0.68 -0.106667,1.26667 0.01333,0.6 0.146667,1.25333 0.133333,0.64 0.4,1.30667 0.266666,0.66667 0.773333,1.10667 0.506667,0.42666 1.16,0.42666 0.653333,0 1.16,-0.42666 0.506667,-0.44 0.773334,-1.10667 0.266666,-0.66667 0.4,-1.30667 0.133333,-0.65333 0.146666,-1.25333 0.01333,-0.58667 -0.12,-1.26667 -0.12,-0.68 -0.4,-1.36 -0.266666,-0.69333 -0.786666,-1.14666 z"
         style="font-style:normal;font-variant:normal;font-weight:normal;font-stretch:normal;font-size:13.33333397px;font-family:'Futura LT';-inkscape-font-specification:'Futura LT'"
         id="path8646" />
      <path
         d="m 61.508281,312.63161 q 0.226667,-0.21333 0.533334,-0.21333 0.306666,0 0.52,0.21333 0.226666,0.21334 0.226666,0.52 0,0.30667 -0.226666,0.53334 -0.213334,0.22666 -0.52,0.22666 -0.306667,0 -0.533334,-0.22666 -0.213333,-0.22667 -0.213333,-0.53334 0,-0.30666 0.213333,-0.52 z"
         style="font-style:normal;font-variant:normal;font-weight:normal;font-stretch:normal;font-size:13.33333397px;font-family:'Futura LT';-inkscape-font-specification:'Futura LT'"
         id="path8648" />
      <path
         d="m 68.942865,303.51161 0.84,0.62667 -2.32,3.12 0.02667,0.0267 q 0.413333,-0.14667 0.88,-0.14667 1.36,0 2.306667,0.97333 0.946667,0.97334 0.946667,2.34667 0,1.44 -1.026667,2.45333 -1.013334,1 -2.44,1 -1.426667,0 -2.453334,-1.01333 -1.013333,-1.01333 -1.013333,-2.42667 0,-1.13333 0.92,-2.41333 z m -2.453333,8.66667 q 0.693333,0.69333 1.666667,0.69333 0.973333,0 1.653333,-0.69333 0.693334,-0.69333 0.693334,-1.68 0,-0.97333 -0.693334,-1.64 -0.68,-0.68 -1.653333,-0.68 -0.986667,0 -1.666667,0.68 -0.68,0.66667 -0.68,1.64 0,0.98667 0.68,1.68 z"
         style="font-style:normal;font-variant:normal;font-weight:normal;font-stretch:normal;font-size:13.33333397px;font-family:'Futura LT';-inkscape-font-specification:'Futura LT'"
         id="path8650" />
      <path
         d="m 76.74599,308.45828 -0.893333,0.46667 q -0.12,-0.26667 -0.346667,-0.45334 -0.226666,-0.18666 -0.506666,-0.18666 -0.293334,0 -0.533334,0.2 -0.24,0.2 -0.24,0.49333 0,0.12 0.02667,0.22667 0.04,0.0933 0.133333,0.18666 0.106667,0.0933 0.173334,0.16 0.08,0.0667 0.253333,0.14667 0.173333,0.08 0.253333,0.12 0.08,0.04 0.306667,0.13333 0.226667,0.0933 0.306667,0.12 0.666666,0.28 1.053333,0.68 0.4,0.4 0.4,1.12 0,0.88 -0.626667,1.46667 -0.613333,0.57333 -1.493333,0.57333 -0.786667,0 -1.373333,-0.41333 -0.586667,-0.42667 -0.84,-1.17333 l 0.946666,-0.4 q 0.226667,0.49333 0.506667,0.74666 0.28,0.25334 0.773333,0.25334 0.44,0 0.72,-0.26667 0.293334,-0.26667 0.293334,-0.69333 0,-0.38667 -0.293334,-0.64 -0.293333,-0.25334 -0.706666,-0.41334 -0.413334,-0.17333 -0.826667,-0.36 -0.413333,-0.2 -0.706667,-0.56 -0.293333,-0.37333 -0.293333,-0.92 0,-0.77333 0.546667,-1.26666 0.546666,-0.50667 1.32,-0.50667 0.533333,0 0.986666,0.33333 0.466667,0.32 0.68,0.82667 z"
         style="font-style:normal;font-variant:normal;font-weight:normal;font-stretch:normal;font-size:13.33333397px;font-family:'Futura LT';-inkscape-font-specification:'Futura LT'"
         id="path8652" />
    </g>
    <g
       aria-label="0.7s"
       transform="matrix(0.26458333,0,0,0.26458333,5.3678034,146.52838)"
       style="font-style:normal;font-weight:normal;font-size:4px;line-height:125%;font-family:Sans;letter-spacing:0px;word-spacing:0px;fill:#000000;fill-opacity:1;stroke:none;stroke-width:1px;stroke-linecap:butt;stroke-linejoin:miter;stroke-opacity:1"
       id="flowRoot8414-22">
      <path
         d="m 54.265156,304.03161 q 0.72,-0.52 1.626667,-0.52 0.906667,0 1.626667,0.52 0.72,0.50667 1.133333,1.32 0.413334,0.81334 0.626667,1.68 0.213333,0.86667 0.213333,1.69334 0,0.94666 -0.253333,1.86666 -0.24,0.90667 -0.68,1.65334 -0.44,0.74666 -1.146667,1.21333 -0.693333,0.45333 -1.52,0.45333 -0.826667,0 -1.533333,-0.45333 -0.693334,-0.46667 -1.133334,-1.21333 -0.44,-0.74667 -0.693333,-1.65334 -0.24,-0.92 -0.24,-1.86666 0,-0.82667 0.213333,-1.69334 0.213334,-0.86666 0.626667,-1.68 0.413333,-0.81333 1.133333,-1.32 z m 2.800001,0.97334 q -0.506667,-0.45334 -1.173334,-0.45334 -0.666667,0 -1.186667,0.45334 -0.506666,0.45333 -0.786666,1.14666 -0.266667,0.68 -0.4,1.36 -0.12,0.68 -0.106667,1.26667 0.01333,0.6 0.146667,1.25333 0.133333,0.64 0.4,1.30667 0.266666,0.66667 0.773333,1.10667 0.506667,0.42666 1.16,0.42666 0.653333,0 1.16,-0.42666 0.506667,-0.44 0.773334,-1.10667 0.266666,-0.66667 0.4,-1.30667 0.133333,-0.65333 0.146666,-1.25333 0.01333,-0.58667 -0.12,-1.26667 -0.12,-0.68 -0.4,-1.36 -0.266666,-0.69333 -0.786666,-1.14666 z"
         style="font-style:normal;font-variant:normal;font-weight:normal;font-stretch:normal;font-size:13.33333397px;font-family:'Futura LT';-inkscape-font-specification:'Futura LT'"
         id="path8637" />
      <path
         d="m 61.508281,312.63161 q 0.226667,-0.21333 0.533334,-0.21333 0.306666,0 0.52,0.21333 0.226666,0.21334 0.226666,0.52 0,0.30667 -0.226666,0.53334 -0.213334,0.22666 -0.52,0.22666 -0.306667,0 -0.533334,-0.22666 -0.213333,-0.22667 -0.213333,-0.53334 0,-0.30666 0.213333,-0.52 z"
         style="font-style:normal;font-variant:normal;font-weight:normal;font-stretch:normal;font-size:13.33333397px;font-family:'Futura LT';-inkscape-font-specification:'Futura LT'"
         id="path8639" />
      <path
         d="m 70.276199,304.72495 h -5.493334 v -1.04 h 7.413334 l -6.746667,10.22666 -0.88,-0.52 z"
         style="font-style:normal;font-variant:normal;font-weight:normal;font-stretch:normal;font-size:13.33333397px;font-family:'Futura LT';-inkscape-font-specification:'Futura LT'"
         id="path8641" />
      <path
         d="m 76.74599,308.45828 -0.893333,0.46667 q -0.12,-0.26667 -0.346667,-0.45334 -0.226666,-0.18666 -0.506666,-0.18666 -0.293334,0 -0.533334,0.2 -0.24,0.2 -0.24,0.49333 0,0.12 0.02667,0.22667 0.04,0.0933 0.133333,0.18666 0.106667,0.0933 0.173334,0.16 0.08,0.0667 0.253333,0.14667 0.173333,0.08 0.253333,0.12 0.08,0.04 0.306667,0.13333 0.226667,0.0933 0.306667,0.12 0.666666,0.28 1.053333,0.68 0.4,0.4 0.4,1.12 0,0.88 -0.626667,1.46667 -0.613333,0.57333 -1.493333,0.57333 -0.786667,0 -1.373333,-0.41333 -0.586667,-0.42667 -0.84,-1.17333 l 0.946666,-0.4 q 0.226667,0.49333 0.506667,0.74666 0.28,0.25334 0.773333,0.25334 0.44,0 0.72,-0.26667 0.293334,-0.26667 0.293334,-0.69333 0,-0.38667 -0.293334,-0.64 -0.293333,-0.25334 -0.706666,-0.41334 -0.413334,-0.17333 -0.826667,-0.36 -0.413333,-0.2 -0.706667,-0.56 -0.293333,-0.37333 -0.293333,-0.92 0,-0.77333 0.546667,-1.26666 0.546666,-0.50667 1.32,-0.50667 0.533333,0 0.986666,0.33333 0.466667,0.32 0.68,0.82667 z"
         style="font-style:normal;font-variant:normal;font-weight:normal;font-stretch:normal;font-size:13.33333397px;font-family:'Futura LT';-inkscape-font-specification:'Futura LT'"
         id="path8643" />
    </g>
    <g
       aria-label="0.9s"
       transform="matrix(0.26458333,0,0,0.26458333,5.2733094,140.0083)"
       style="font-style:normal;font-weight:normal;font-size:4px;line-height:125%;font-family:Sans;letter-spacing:0px;word-spacing:0px;fill:#000000;fill-opacity:1;stroke:none;stroke-width:1px;stroke-linecap:butt;stroke-linejoin:miter;stroke-opacity:1"
       id="flowRoot8414-35">
      <path
         d="m 54.265156,304.03161 q 0.72,-0.52 1.626667,-0.52 0.906667,0 1.626667,0.52 0.72,0.50667 1.133333,1.32 0.413334,0.81334 0.626667,1.68 0.213333,0.86667 0.213333,1.69334 0,0.94666 -0.253333,1.86666 -0.24,0.90667 -0.68,1.65334 -0.44,0.74666 -1.146667,1.21333 -0.693333,0.45333 -1.52,0.45333 -0.826667,0 -1.533333,-0.45333 -0.693334,-0.46667 -1.133334,-1.21333 -0.44,-0.74667 -0.693333,-1.65334 -0.24,-0.92 -0.24,-1.86666 0,-0.82667 0.213333,-1.69334 0.213334,-0.86666 0.626667,-1.68 0.413333,-0.81333 1.133333,-1.32 z m 2.800001,0.97334 q -0.506667,-0.45334 -1.173334,-0.45334 -0.666667,0 -1.186667,0.45334 -0.506666,0.45333 -0.786666,1.14666 -0.266667,0.68 -0.4,1.36 -0.12,0.68 -0.106667,1.26667 0.01333,0.6 0.146667,1.25333 0.133333,0.64 0.4,1.30667 0.266666,0.66667 0.773333,1.10667 0.506667,0.42666 1.16,0.42666 0.653333,0 1.16,-0.42666 0.506667,-0.44 0.773334,-1.10667 0.266666,-0.66667 0.4,-1.30667 0.133333,-0.65333 0.146666,-1.25333 0.01333,-0.58667 -0.12,-1.26667 -0.12,-0.68 -0.4,-1.36 -0.266666,-0.69333 -0.786666,-1.14666 z"
         style="font-style:normal;font-variant:normal;font-weight:normal;font-stretch:normal;font-size:13.33333397px;font-family:'Futura LT';-inkscape-font-specification:'Futura LT'"
         id="path8628" />
      <path
         d="m 61.508281,312.63161 q 0.226667,-0.21333 0.533334,-0.21333 0.306666,0 0.52,0.21333 0.226666,0.21334 0.226666,0.52 0,0.30667 -0.226666,0.53334 -0.213334,0.22666 -0.52,0.22666 -0.306667,0 -0.533334,-0.22666 -0.213333,-0.22667 -0.213333,-0.53334 0,-0.30666 0.213333,-0.52 z"
         style="font-style:normal;font-variant:normal;font-weight:normal;font-stretch:normal;font-size:13.33333397px;font-family:'Futura LT';-inkscape-font-specification:'Futura LT'"
         id="path8630" />
      <path
         d="m 67.369532,313.91161 -0.84,-0.57333 2.32,-3.18667 -0.02667,-0.0267 q -0.44,0.13333 -0.866666,0.13333 -1.373334,0 -2.32,-0.97333 -0.933334,-0.97334 -0.933334,-2.34667 0,-1.42667 1.013334,-2.42667 1.026666,-1 2.453333,-1 1.426667,0 2.44,1 1.026667,1 1.026667,2.42667 0,1.12 -0.933333,2.41333 z m 2.453333,-8.66666 q -0.68,-0.69334 -1.653333,-0.69334 -0.973333,0 -1.666667,0.69334 -0.68,0.68 -0.68,1.65333 0,0.97333 0.68,1.65333 0.68,0.66667 1.666667,0.66667 0.973333,0 1.653333,-0.66667 0.693334,-0.68 0.693334,-1.65333 0,-0.97333 -0.693334,-1.65333 z"
         style="font-style:normal;font-variant:normal;font-weight:normal;font-stretch:normal;font-size:13.33333397px;font-family:'Futura LT';-inkscape-font-specification:'Futura LT'"
         id="path8632" />
      <path
         d="m 76.74599,308.45828 -0.893333,0.46667 q -0.12,-0.26667 -0.346667,-0.45334 -0.226666,-0.18666 -0.506666,-0.18666 -0.293334,0 -0.533334,0.2 -0.24,0.2 -0.24,0.49333 0,0.12 0.02667,0.22667 0.04,0.0933 0.133333,0.18666 0.106667,0.0933 0.173334,0.16 0.08,0.0667 0.253333,0.14667 0.173333,0.08 0.253333,0.12 0.08,0.04 0.306667,0.13333 0.226667,0.0933 0.306667,0.12 0.666666,0.28 1.053333,0.68 0.4,0.4 0.4,1.12 0,0.88 -0.626667,1.46667 -0.613333,0.57333 -1.493333,0.57333 -0.786667,0 -1.373333,-0.41333 -0.586667,-0.42667 -0.84,-1.17333 l 0.946666,-0.4 q 0.226667,0.49333 0.506667,0.74666 0.28,0.25334 0.773333,0.25334 0.44,0 0.72,-0.26667 0.293334,-0.26667 0.293334,-0.69333 0,-0.38667 -0.293334,-0.64 -0.293333,-0.25334 -0.706666,-0.41334 -0.413334,-0.17333 -0.826667,-0.36 -0.413333,-0.2 -0.706667,-0.56 -0.293333,-0.37333 -0.293333,-0.92 0,-0.77333 0.546667,-1.26666 0.546666,-0.50667 1.32,-0.50667 0.533333,0 0.986666,0.33333 0.466667,0.32 0.68,0.82667 z"
         style="font-style:normal;font-variant:normal;font-weight:normal;font-stretch:normal;font-size:13.33333397px;font-family:'Futura LT';-inkscape-font-specification:'Futura LT'"
         id="path8634" />
    </g>
    <g
       aria-label="0.4s"
       transform="matrix(0.26458333,0,0,0.26458333,5.3678034,133.11023)"
       style="font-style:normal;font-weight:normal;font-size:4px;line-height:125%;font-family:Sans;letter-spacing:0px;word-spacing:0px;fill:#000000;fill-opacity:1;stroke:none;stroke-width:1px;stroke-linecap:butt;stroke-linejoin:miter;stroke-opacity:1"
       id="flowRoot8414-14">
      <path
         d="m 54.265156,304.03161 q 0.72,-0.52 1.626667,-0.52 0.906667,0 1.626667,0.52 0.72,0.50667 1.133333,1.32 0.413334,0.81334 0.626667,1.68 0.213333,0.86667 0.213333,1.69334 0,0.94666 -0.253333,1.86666 -0.24,0.90667 -0.68,1.65334 -0.44,0.74666 -1.146667,1.21333 -0.693333,0.45333 -1.52,0.45333 -0.826667,0 -1.533333,-0.45333 -0.693334,-0.46667 -1.133334,-1.21333 -0.44,-0.74667 -0.693333,-1.65334 -0.24,-0.92 -0.24,-1.86666 0,-0.82667 0.213333,-1.69334 0.213334,-0.86666 0.626667,-1.68 0.413333,-0.81333 1.133333,-1.32 z m 2.800001,0.97334 q -0.506667,-0.45334 -1.173334,-0.45334 -0.666667,0 -1.186667,0.45334 -0.506666,0.45333 -0.786666,1.14666 -0.266667,0.68 -0.4,1.36 -0.12,0.68 -0.106667,1.26667 0.01333,0.6 0.146667,1.25333 0.133333,0.64 0.4,1.30667 0.266666,0.66667 0.773333,1.10667 0.506667,0.42666 1.16,0.42666 0.653333,0 1.16,-0.42666 0.506667,-0.44 0.773334,-1.10667 0.266666,-0.66667 0.4,-1.30667 0.133333,-0.65333 0.146666,-1.25333 0.01333,-0.58667 -0.12,-1.26667 -0.12,-0.68 -0.4,-1.36 -0.266666,-0.69333 -0.786666,-1.14666 z"
         style="font-style:normal;font-variant:normal;font-weight:normal;font-stretch:normal;font-size:13.33333397px;font-family:'Futura LT';-inkscape-font-specification:'Futura LT'"
         id="path8619" />
      <path
         d="m 61.508281,312.63161 q 0.226667,-0.21333 0.533334,-0.21333 0.306666,0 0.52,0.21333 0.226666,0.21334 0.226666,0.52 0,0.30667 -0.226666,0.53334 -0.213334,0.22666 -0.52,0.22666 -0.306667,0 -0.533334,-0.22666 -0.213333,-0.22667 -0.213333,-0.53334 0,-0.30666 0.213333,-0.52 z"
         style="font-style:normal;font-variant:normal;font-weight:normal;font-stretch:normal;font-size:13.33333397px;font-family:'Futura LT';-inkscape-font-specification:'Futura LT'"
         id="path8621" />
      <path
         d="m 70.449532,311.07161 h 1.24 v 1.04 h -1.24 v 1.62667 h -1.12 v -1.62667 h -5.146667 l 6.240001,-8.98666 h 0.02667 z m -1.12,0 v -4.54666 h -0.02667 l -3.16,4.54666 z"
         style="font-style:normal;font-variant:normal;font-weight:normal;font-stretch:normal;font-size:13.33333397px;font-family:'Futura LT';-inkscape-font-specification:'Futura LT'"
         id="path8623" />
      <path
         d="m 76.74599,308.45828 -0.893333,0.46667 q -0.12,-0.26667 -0.346667,-0.45334 -0.226666,-0.18666 -0.506666,-0.18666 -0.293334,0 -0.533334,0.2 -0.24,0.2 -0.24,0.49333 0,0.12 0.02667,0.22667 0.04,0.0933 0.133333,0.18666 0.106667,0.0933 0.173334,0.16 0.08,0.0667 0.253333,0.14667 0.173333,0.08 0.253333,0.12 0.08,0.04 0.306667,0.13333 0.226667,0.0933 0.306667,0.12 0.666666,0.28 1.053333,0.68 0.4,0.4 0.4,1.12 0,0.88 -0.626667,1.46667 -0.613333,0.57333 -1.493333,0.57333 -0.786667,0 -1.373333,-0.41333 -0.586667,-0.42667 -0.84,-1.17333 l 0.946666,-0.4 q 0.226667,0.49333 0.506667,0.74666 0.28,0.25334 0.773333,0.25334 0.44,0 0.72,-0.26667 0.293334,-0.26667 0.293334,-0.69333 0,-0.38667 -0.293334,-0.64 -0.293333,-0.25334 -0.706666,-0.41334 -0.413334,-0.17333 -0.826667,-0.36 -0.413333,-0.2 -0.706667,-0.56 -0.293333,-0.37333 -0.293333,-0.92 0,-0.77333 0.546667,-1.26666 0.546666,-0.50667 1.32,-0.50667 0.533333,0 0.986666,0.33333 0.466667,0.32 0.68,0.82667 z"
         style="font-style:normal;font-variant:normal;font-weight:normal;font-stretch:normal;font-size:13.33333397px;font-family:'Futura LT';-inkscape-font-specification:'Futura LT'"
         id="path8625" />
    </g>
    <g
       aria-label="0.5s"
       transform="matrix(0.26458333,0,0,0.26458333,5.4595652,120.16681)"
       style="font-style:normal;font-weight:normal;font-size:4px;line-height:125%;font-family:Sans;letter-spacing:0px;word-spacing:0px;fill:#000000;fill-opacity:1;stroke:none;stroke-width:1px;stroke-linecap:butt;stroke-linejoin:miter;stroke-opacity:1"
       id="flowRoot8414-01">
      <path
         d="m 54.265156,304.03161 q 0.72,-0.52 1.626667,-0.52 0.906667,0 1.626667,0.52 0.72,0.50667 1.133333,1.32 0.413334,0.81334 0.626667,1.68 0.213333,0.86667 0.213333,1.69334 0,0.94666 -0.253333,1.86666 -0.24,0.90667 -0.68,1.65334 -0.44,0.74666 -1.146667,1.21333 -0.693333,0.45333 -1.52,0.45333 -0.826667,0 -1.533333,-0.45333 -0.693334,-0.46667 -1.133334,-1.21333 -0.44,-0.74667 -0.693333,-1.65334 -0.24,-0.92 -0.24,-1.86666 0,-0.82667 0.213333,-1.69334 0.213334,-0.86666 0.626667,-1.68 0.413333,-0.81333 1.133333,-1.32 z m 2.800001,0.97334 q -0.506667,-0.45334 -1.173334,-0.45334 -0.666667,0 -1.186667,0.45334 -0.506666,0.45333 -0.786666,1.14666 -0.266667,0.68 -0.4,1.36 -0.12,0.68 -0.106667,1.26667 0.01333,0.6 0.146667,1.25333 0.133333,0.64 0.4,1.30667 0.266666,0.66667 0.773333,1.10667 0.506667,0.42666 1.16,0.42666 0.653333,0 1.16,-0.42666 0.506667,-0.44 0.773334,-1.10667 0.266666,-0.66667 0.4,-1.30667 0.133333,-0.65333 0.146666,-1.25333 0.01333,-0.58667 -0.12,-1.26667 -0.12,-0.68 -0.4,-1.36 -0.266666,-0.69333 -0.786666,-1.14666 z"
         style="font-style:normal;font-variant:normal;font-weight:normal;font-stretch:normal;font-size:13.33333397px;font-family:'Futura LT';-inkscape-font-specification:'Futura LT'"
         id="path8610"
         inkscape:connector-curvature="0" />
      <path
         d="m 61.508281,312.63161 q 0.226667,-0.21333 0.533334,-0.21333 0.306666,0 0.52,0.21333 0.226666,0.21334 0.226666,0.52 0,0.30667 -0.226666,0.53334 -0.213334,0.22666 -0.52,0.22666 -0.306667,0 -0.533334,-0.22666 -0.213333,-0.22667 -0.213333,-0.53334 0,-0.30666 0.213333,-0.52 z"
         style="font-style:normal;font-variant:normal;font-weight:normal;font-stretch:normal;font-size:13.33333397px;font-family:'Futura LT';-inkscape-font-specification:'Futura LT'"
         id="path8612"
         inkscape:connector-curvature="0" />
      <path
         d="m 71.076199,304.72495 h -3.213334 l -0.653333,2.14666 0.6,-0.0533 q 1.466667,0 2.4,1.01333 0.946667,1.01334 0.946667,2.49334 0,1.54666 -1.066667,2.57333 -1.066667,1.01333 -2.626667,1.01333 -0.986666,0 -1.786666,-0.46666 -0.786667,-0.48 -1.293334,-1.33334 l 0.893334,-0.64 q 0.346666,0.62667 0.933333,1.01334 0.6,0.38666 1.293333,0.38666 1.106667,0 1.813334,-0.73333 0.72,-0.73333 0.72,-1.84 0,-1.05333 -0.72,-1.74667 -0.72,-0.69333 -1.786667,-0.69333 -0.92,0 -1.906667,0.64 l 1.453334,-4.81333 h 4 z"
         style="font-style:normal;font-variant:normal;font-weight:normal;font-stretch:normal;font-size:13.33333397px;font-family:'Futura LT';-inkscape-font-specification:'Futura LT'"
         id="path8614"
         inkscape:connector-curvature="0" />
      <path
         d="m 76.74599,308.45828 -0.893333,0.46667 q -0.12,-0.26667 -0.346667,-0.45334 -0.226666,-0.18666 -0.506666,-0.18666 -0.293334,0 -0.533334,0.2 -0.24,0.2 -0.24,0.49333 0,0.12 0.02667,0.22667 0.04,0.0933 0.133333,0.18666 0.106667,0.0933 0.173334,0.16 0.08,0.0667 0.253333,0.14667 0.173333,0.08 0.253333,0.12 0.08,0.04 0.306667,0.13333 0.226667,0.0933 0.306667,0.12 0.666666,0.28 1.053333,0.68 0.4,0.4 0.4,1.12 0,0.88 -0.626667,1.46667 -0.613333,0.57333 -1.493333,0.57333 -0.786667,0 -1.373333,-0.41333 -0.586667,-0.42667 -0.84,-1.17333 l 0.946666,-0.4 q 0.226667,0.49333 0.506667,0.74666 0.28,0.25334 0.773333,0.25334 0.44,0 0.72,-0.26667 0.293334,-0.26667 0.293334,-0.69333 0,-0.38667 -0.293334,-0.64 -0.293333,-0.25334 -0.706666,-0.41334 -0.413334,-0.17333 -0.826667,-0.36 -0.413333,-0.2 -0.706667,-0.56 -0.293333,-0.37333 -0.293333,-0.92 0,-0.77333 0.546667,-1.26666 0.546666,-0.50667 1.32,-0.50667 0.533333,0 0.986666,0.33333 0.466667,0.32 0.68,0.82667 z"
         style="font-style:normal;font-variant:normal;font-weight:normal;font-stretch:normal;font-size:13.33333397px;font-family:'Futura LT';-inkscape-font-specification:'Futura LT'"
         id="path8616"
         inkscape:connector-curvature="0" />
    </g>
    <path
       style="fill:none;fill-rule:evenodd;stroke:#000000;stroke-width:0.26458332px;stroke-linecap:butt;stroke-linejoin:miter;stroke-opacity:1;marker-end:url(#marker8576)"
       d="M 15.308036,280.36905 V 254.76116"
       id="path8566"
       inkscape:connector-curvature="0" />
    <g
       aria-label="7s"
       transform="matrix(0,-0.26458333,0.26458333,0,-56.010637,271.41699)"
       style="font-style:normal;font-weight:normal;font-size:4px;line-height:125%;font-family:Sans;letter-spacing:0px;word-spacing:0px;fill:#000000;fill-opacity:1;stroke:none;stroke-width:1px;stroke-linecap:butt;stroke-linejoin:miter;stroke-opacity:1"
       id="flowRoot8602">
      <path
         d="m 15.815912,255.43979 h -5.493334 v -1.04 h 7.413334 l -6.746667,10.22667 -0.88,-0.52 z"
         style="font-style:normal;font-variant:normal;font-weight:normal;font-stretch:normal;font-size:13.33333397px;font-family:'Futura LT';-inkscape-font-specification:'Futura LT'"
         id="path8718" />
      <path
         d="m 22.285703,259.17312 -0.893333,0.46667 q -0.12,-0.26667 -0.346667,-0.45333 -0.226666,-0.18667 -0.506666,-0.18667 -0.293334,0 -0.533334,0.2 -0.24,0.2 -0.24,0.49333 0,0.12 0.02667,0.22667 0.04,0.0933 0.133333,0.18667 0.106667,0.0933 0.173334,0.16 0.08,0.0667 0.253333,0.14666 0.173333,0.08 0.253333,0.12 0.08,0.04 0.306667,0.13334 0.226667,0.0933 0.306667,0.12 0.666666,0.28 1.053333,0.68 0.4,0.4 0.4,1.12 0,0.88 -0.626667,1.46667 -0.613333,0.57333 -1.493333,0.57333 -0.786667,0 -1.373333,-0.41333 -0.586667,-0.42667 -0.840001,-1.17334 l 0.946667,-0.4 q 0.226667,0.49334 0.506667,0.74667 0.28,0.25333 0.773333,0.25333 0.44,0 0.72,-0.26666 0.293334,-0.26667 0.293334,-0.69334 0,-0.38666 -0.293334,-0.64 -0.293333,-0.25333 -0.706666,-0.41333 -0.413334,-0.17334 -0.826667,-0.36 -0.413333,-0.2 -0.706667,-0.56 -0.293333,-0.37334 -0.293333,-0.92 0,-0.77334 0.546667,-1.26667 0.546666,-0.50667 1.32,-0.50667 0.533333,0 0.986666,0.33334 0.466667,0.32 0.68,0.82666 z"
         style="font-style:normal;font-variant:normal;font-weight:normal;font-stretch:normal;font-size:13.33333397px;font-family:'Futura LT';-inkscape-font-specification:'Futura LT'"
         id="path8720" />
    </g>
    <rect
       style="fill:#ff7f7f;fill-opacity:1;stroke:#000000;stroke-width:0.26499999;stroke-linecap:butt;stroke-linejoin:miter;stroke-miterlimit:4;stroke-dasharray:none;stroke-dashoffset:0;stroke-opacity:1"
       id="rect9276"
       width="11.90625"
       height="5.2916665"
       x="26.307993"
       y="205.73872" />
    <flowRoot
       transform="translate(-0.15034021,-84.646728)"
       xml:space="preserve"
       id="flowRoot9278"
       style="font-style:normal;font-weight:normal;font-size:4px;line-height:125%;font-family:Sans;letter-spacing:0px;word-spacing:0px;fill:#000000;fill-opacity:1;stroke:none;stroke-width:1px;stroke-linecap:butt;stroke-linejoin:miter;stroke-opacity:1"><flowRegion
         id="flowRegion9280"><rect
           id="rect9282"
           width="35"
           height="10"
           x="60"
           y="6.4566936" /></flowRegion><flowPara
         id="flowPara9284" /></flowRoot>    <g
       aria-label="200ºC"
       transform="matrix(0.26458333,0,0,0.26458333,11.308841,206.35553)"
       style="font-style:normal;font-weight:normal;font-size:4px;line-height:125%;font-family:Sans;letter-spacing:0px;word-spacing:0px;fill:#000000;fill-opacity:1;stroke:none;stroke-width:1px;stroke-linecap:butt;stroke-linejoin:miter;stroke-opacity:1"
       id="flowRoot9298">
      <path
         inkscape:connector-curvature="0"
         d="m 62.813333,11.917031 h 4.240001 v 1.04 h -6.506667 l 4.706667,-5.5599999 q 0.68,-0.8133334 0.68,-1.6800001 0,-0.8266667 -0.586667,-1.3866667 -0.586667,-0.56 -1.413333,-0.56 -0.893334,0 -1.453334,0.5866667 -0.546667,0.5866666 -0.573333,1.48 h -1.12 q 0.02667,-1.3333334 0.906666,-2.2133334 0.88,-0.8933334 2.200001,-0.8933334 1.293333,0 2.226666,0.8533334 0.933334,0.84 0.933334,2.1200001 0,1.24 -0.76,2.1200001 z"
         style="font-style:normal;font-variant:normal;font-weight:normal;font-stretch:normal;font-size:13.33333397px;font-family:'Futura LT';-inkscape-font-specification:'Futura LT'"
         id="path9306" />
      <path
         inkscape:connector-curvature="0"
         d="m 70.683125,3.2503642 q 0.72,-0.52 1.626667,-0.52 0.906667,0 1.626667,0.52 0.72,0.5066667 1.133333,1.3200001 0.413333,0.8133334 0.626667,1.6800001 0.213333,0.8666667 0.213333,1.6933334 0,0.9466667 -0.253333,1.8666667 -0.24,0.9066665 -0.68,1.6533335 -0.44,0.746667 -1.146667,1.213333 -0.693333,0.453334 -1.52,0.453334 -0.826667,0 -1.533334,-0.453334 -0.693333,-0.466666 -1.133333,-1.213333 -0.44,-0.746667 -0.693333,-1.6533335 -0.24,-0.92 -0.24,-1.8666667 0,-0.8266667 0.213333,-1.6933334 0.213333,-0.8666667 0.626667,-1.6800001 0.413333,-0.8133334 1.133333,-1.3200001 z m 2.8,0.9733334 q -0.506666,-0.4533333 -1.173333,-0.4533333 -0.666667,0 -1.186667,0.4533333 -0.506667,0.4533334 -0.786667,1.1466667 -0.266666,0.6800001 -0.4,1.3600001 -0.12,0.68 -0.106666,1.2666667 0.01333,0.6000001 0.146666,1.2533334 0.133334,0.64 0.4,1.3066665 0.266667,0.666667 0.773334,1.106667 0.506666,0.426667 1.16,0.426667 0.653333,0 1.16,-0.426667 0.506667,-0.44 0.773333,-1.106667 0.266667,-0.6666665 0.4,-1.3066665 0.133334,-0.6533333 0.146667,-1.2533334 0.01333,-0.5866667 -0.12,-1.2666667 -0.12,-0.68 -0.4,-1.3600001 Q 74.003125,4.677031 73.483125,4.2236976 Z"
         style="font-style:normal;font-variant:normal;font-weight:normal;font-stretch:normal;font-size:13.33333397px;font-family:'Futura LT';-inkscape-font-specification:'Futura LT'"
         id="path9308" />
      <path
         inkscape:connector-curvature="0"
         d="m 78.88625,3.2503642 q 0.72,-0.52 1.626667,-0.52 0.906667,0 1.626667,0.52 0.72,0.5066667 1.133333,1.3200001 0.413333,0.8133334 0.626667,1.6800001 0.213333,0.8666667 0.213333,1.6933334 0,0.9466667 -0.253333,1.8666667 -0.24,0.9066665 -0.68,1.6533335 -0.44,0.746667 -1.146667,1.213333 -0.693333,0.453334 -1.52,0.453334 -0.826667,0 -1.533334,-0.453334 -0.693333,-0.466666 -1.133333,-1.213333 -0.44,-0.746667 -0.693333,-1.6533335 -0.24,-0.92 -0.24,-1.8666667 0,-0.8266667 0.213333,-1.6933334 0.213333,-0.8666667 0.626667,-1.6800001 0.413333,-0.8133334 1.133333,-1.3200001 z m 2.8,0.9733334 q -0.506666,-0.4533333 -1.173333,-0.4533333 -0.666667,0 -1.186667,0.4533333 -0.506667,0.4533334 -0.786667,1.1466667 -0.266666,0.6800001 -0.4,1.3600001 -0.12,0.68 -0.106666,1.2666667 0.01333,0.6000001 0.146666,1.2533334 0.133334,0.64 0.4,1.3066665 0.266667,0.666667 0.773334,1.106667 0.506666,0.426667 1.16,0.426667 0.653333,0 1.16,-0.426667 0.506667,-0.44 0.773333,-1.106667 0.266667,-0.6666665 0.4,-1.3066665 0.133334,-0.6533333 0.146667,-1.2533334 0.01333,-0.5866667 -0.12,-1.2666667 -0.12,-0.68 -0.4,-1.3600001 Q 82.20625,4.677031 81.68625,4.2236976 Z"
         style="font-style:normal;font-variant:normal;font-weight:normal;font-stretch:normal;font-size:13.33333397px;font-family:'Futura LT';-inkscape-font-specification:'Futura LT'"
         id="path9310" />
      <path
         inkscape:connector-curvature="0"
         d="m 88.382709,6.1303644 q -0.626667,0.5733333 -1.520001,0.5733333 -0.893333,0 -1.52,-0.5733333 -0.626666,-0.5733334 -0.626666,-1.4000001 0,-0.8266667 0.626666,-1.4133334 0.626667,-0.5866667 1.52,-0.5866667 0.893334,0 1.520001,0.5866667 0.626666,0.5866667 0.626666,1.4133334 0,0.8266667 -0.626666,1.4000001 z M 87.902708,3.7303643 q -0.413333,-0.4133334 -1.04,-0.4133334 -0.626666,0 -1.04,0.4133334 -0.413333,0.4 -0.413333,0.9866667 0,0.5866667 0.413333,1 0.413334,0.4 1.04,0.4 0.626667,0 1.04,-0.4 0.413334,-0.4133333 0.413334,-1 0,-0.5866667 -0.413334,-0.9866667 z"
         style="font-style:normal;font-variant:normal;font-weight:normal;font-stretch:normal;font-size:13.33333397px;font-family:'Futura LT';-inkscape-font-specification:'Futura LT'"
         id="path9312" />
      <path
         inkscape:connector-curvature="0"
         d="m 97.794584,3.7170309 v 1.3866668 q -1.293333,-1.3333334 -3.066666,-1.3333334 -1.666667,0 -2.866667,1.24 -1.186667,1.2400001 -1.186667,2.9200002 0,1.68 1.2,2.9200005 1.2,1.24 2.88,1.24 1.706667,0 3.04,-1.333334 v 1.386667 q -1.36,0.986667 -3,0.986667 -2.133333,0 -3.693333,-1.506667 -1.546667,-1.52 -1.546667,-3.6533335 0,-2.1600001 1.533333,-3.6933336 1.546667,-1.5466667 3.706667,-1.5466667 1.68,0 3,0.9866667 z"
         style="font-style:normal;font-variant:normal;font-weight:normal;font-stretch:normal;font-size:13.33333397px;font-family:'Futura LT';-inkscape-font-specification:'Futura LT'"
         id="path9314" />
    </g>
  </g>
</svg>
