<?xml version="1.0" encoding="UTF-8"?>
<svg version="1.2" width="1000" height="1970">

<!-- Arrows (behind text boxes) -->
<g stroke="black" stroke-width="5" fill="none">
    <path d="M500,110 H135 V1850" />
    <path d="M500,110 V300" />
    <path d="M500,410 H865 V1100" />
    <path d="M500,410 V600" />
    <path d="M500,710 H135" />
    <path d="M500,710 V900" />
    <path d="M500,1010 H865" />
    <path d="M500,1010 V1250" />
    <path d="M500,1310 V1500" />
    <path d="M500,1610 H135" />
    <path d="M500,1610 H865 V1850" />
</g>
<!-- Arrowheads -->
<path d="M500,310 l-20,-20 h40 z" />
<path d="M500,610 l-20,-20 h40 z" />
<path d="M500,910 l-20,-20 h40 z" />
<path d="M500,1260 l-20,-20 h40 z" />
<path d="M500,1510 l-20,-20 h40 z" />

<path d="M135,1860 l-20,-20 h40 z" />
<path d="M865,1110 l-20,-20 h40 z" />
<path d="M865,1860 l-20,-20 h40 z" />

<!-- Boxes containing text -->
<g stroke="black" stroke-width="2" fill="lightblue">
    <path d="M500,10 l-200,100 200,100 200,-100 z" />
    <path d="M500,310 l-200,100 200,100 200,-100 z" />
    <path d="M500,610 l-200,100 200,100 200,-100 z" />
    <path d="M500,910 l-200,100 200,100 200,-100 z" />
    <rect x="300" y="1260" width="400" height="100" fill="skyblue" />
    <path d="M500,1510 l-200,100 200,100 200,-100 z" />

    <rect x="10" y="1860" width="250" height="100" fill="lightcoral" />
    <rect x="740" y="1110" width="250" height="100" fill="lightgreen" />
    <rect x="740" y="1860" width="250" height="100" fill="khaki" />
</g>

<!-- Text -->
<g font-family="sans" font-size="20" text-anchor="middle">
    <text x="500" y="115">Area deviation too high?</text>
    <text x="500" y="415">Deviation &lt;5μm?</text>
    <text x="500" y="705">Incident edges both</text>
    <text x="500" y="725">longer than Max Resolution?</text>
    <text x="500" y="1005">Incident edges both</text>
    <text x="500" y="1025">shorter than Max Deviation?</text>
    <text x="500" y="1305">Find intersection of edges</text>
    <text x="500" y="1325">around shortest incident edge.</text>
    <text x="500" y="1615">Intersection deviates too much?</text>

    <text x="135" y="1920">Keep vertex</text>
    <text x="865" y="1170">Remove vertex</text>
    <text x="865" y="1910">Replace short edge</text>
    <text x="865" y="1930">with intersection</text>

    <text x="250" y="100">Yes</text>
    <text x="750" y="400">Yes</text>
    <text x="250" y="700">Yes</text>
    <text x="750" y="1000">Yes</text>
    <text x="250" y="1600">Yes</text>
    <text x="750" y="1600">No</text>
    <g text-anchor="start">
        <text x="510" y="270">No</text>
        <text x="510" y="570">No</text>
        <text x="510" y="870">No</text>
        <text x="510" y="1170">No</text>
    </g>
</g>

</svg>