<?xml version="1.0" encoding="UTF-8" standalone="no"?>
<!-- Created with Inkscape (http://www.inkscape.org/) -->

<svg
   xmlns:dc="http://purl.org/dc/elements/1.1/"
   xmlns:cc="http://creativecommons.org/ns#"
   xmlns:rdf="http://www.w3.org/1999/02/22-rdf-syntax-ns#"
   xmlns:svg="http://www.w3.org/2000/svg"
   xmlns="http://www.w3.org/2000/svg"
   xmlns:sodipodi="http://sodipodi.sourceforge.net/DTD/sodipodi-0.dtd"
   xmlns:inkscape="http://www.inkscape.org/namespaces/inkscape"
   width="70mm"
   height="50mm"
   viewBox="0 0 70 50"
   version="1.1"
   id="svg8"
   inkscape:version="0.92.3 (2405546, 2018-03-11)"
   sodipodi:docname="support_distance_formula.svg">
  <defs
     id="defs2" />
  <sodipodi:namedview
     id="base"
     pagecolor="#ffffff"
     bordercolor="#666666"
     borderopacity="1.0"
     inkscape:pageopacity="0.0"
     inkscape:pageshadow="2"
     inkscape:zoom="1.4"
     inkscape:cx="245.06766"
     inkscape:cy="176.01533"
     inkscape:document-units="mm"
     inkscape:current-layer="layer1"
     showgrid="false"
     inkscape:window-width="1920"
     inkscape:window-height="1137"
     inkscape:window-x="2552"
     inkscape:window-y="-8"
     inkscape:window-maximized="1" />
  <metadata
     id="metadata5">
    <rdf:RDF>
      <cc:Work
         rdf:about="">
        <dc:format>image/svg+xml</dc:format>
        <dc:type
           rdf:resource="http://purl.org/dc/dcmitype/StillImage" />
        <dc:title></dc:title>
      </cc:Work>
    </rdf:RDF>
  </metadata>
  <g
     inkscape:label="Layer 1"
     inkscape:groupmode="layer"
     id="layer1"
     transform="translate(0,-247)">
    <circle
       style="fill:none;fill-opacity:0.98780488;stroke:#000000;stroke-width:1;stroke-miterlimit:4;stroke-dasharray:none;stroke-opacity:1"
       id="path844"
       cx="25.956953"
       cy="-274.00278"
       r="17.172066"
       transform="scale(1,-1)" />
    <path
       style="fill:none;fill-rule:evenodd;stroke:#000000;stroke-width:1;stroke-linecap:butt;stroke-linejoin:miter;stroke-miterlimit:4;stroke-dasharray:none;stroke-opacity:1"
       d="M 25.890136,291.44211 25.7565,256.83071"
       id="path846"
       inkscape:connector-curvature="0" />
    <path
       style="fill:none;fill-rule:evenodd;stroke:#000000;stroke-width:1;stroke-linecap:butt;stroke-linejoin:miter;stroke-miterlimit:4;stroke-dasharray:none;stroke-opacity:1"
       d="M 8.5176145,273.80232 43.529925,273.53505"
       id="path848"
       inkscape:connector-curvature="0" />
    <path
       style="fill:none;fill-rule:evenodd;stroke:#000000;stroke-width:1;stroke-linecap:butt;stroke-linejoin:miter;stroke-miterlimit:4;stroke-dasharray:none;stroke-opacity:1"
       d="m 25.7565,256.83071 45.70309,-0.13363"
       id="path850"
       inkscape:connector-curvature="0" />
    <path
       style="fill:none;fill-rule:evenodd;stroke:#000000;stroke-width:1;stroke-linecap:butt;stroke-linejoin:miter;stroke-miterlimit:4;stroke-dasharray:none;stroke-opacity:1"
       d="M 25.48923,273.80232 56.358861,256.56344"
       id="path852"
       inkscape:connector-curvature="0"
       sodipodi:nodetypes="cc" />
    <path
       style="fill:none;fill-rule:evenodd;stroke:#000000;stroke-width:0.5;stroke-linecap:butt;stroke-linejoin:miter;stroke-miterlimit:4;stroke-dasharray:none;stroke-opacity:1"
       d="m 25.890136,267.65512 c 3.474503,0.13364 4.276312,2.53907 4.677216,2.93997"
       id="path854"
       inkscape:connector-curvature="0" />
    <g
       aria-label="60°"
       transform="matrix(0.26458333,0,0,0.26458333,-24.628554,194.882)"
       style="font-style:normal;font-weight:normal;font-size:2.66666675px;line-height:125%;font-family:sans-serif;letter-spacing:0px;word-spacing:0px;fill:#000000;fill-opacity:1;stroke:none;stroke-width:1px;stroke-linecap:butt;stroke-linejoin:miter;stroke-opacity:1"
       id="flowRoot856">
      <path
         d="m 202.58333,270.24935 q -0.70833,0 -1.125,0.48437 -0.41145,0.48438 -0.41145,1.32813 0,0.83854 0.41145,1.32812 0.41667,0.48438 1.125,0.48438 0.70834,0 1.1198,-0.48438 0.41666,-0.48958 0.41666,-1.32812 0,-0.84375 -0.41666,-1.32813 -0.41146,-0.48437 -1.1198,-0.48437 z m 2.08855,-3.29688 v 0.95834 q -0.39584,-0.1875 -0.80209,-0.28646 -0.40104,-0.099 -0.79687,-0.099 -1.04167,0 -1.59375,0.70313 -0.54688,0.70312 -0.625,2.125 0.30729,-0.45313 0.77083,-0.69271 0.46354,-0.24479 1.02083,-0.24479 1.17188,0 1.84896,0.71354 0.68229,0.70833 0.68229,1.93229 0,1.19792 -0.70833,1.92187 -0.70833,0.72396 -1.88542,0.72396 -1.34895,0 -2.0625,-1.03125 -0.71354,-1.03646 -0.71354,-3 0,-1.84375 0.875,-2.9375 0.875,-1.09896 2.34896,-1.09896 0.39583,0 0.79688,0.0781 0.40625,0.0781 0.84375,0.23437 z"
         style="font-size:10.66666698px"
         id="path1050"
         inkscape:connector-curvature="0" />
      <path
         d="m 209.24479,267.47331 q -0.8125,0 -1.22396,0.80208 -0.40625,0.79688 -0.40625,2.40104 0,1.59896 0.40625,2.40104 0.41146,0.79688 1.22396,0.79688 0.81771,0 1.22396,-0.79688 0.41146,-0.80208 0.41146,-2.40104 0,-1.60416 -0.41146,-2.40104 -0.40625,-0.80208 -1.22396,-0.80208 z m 0,-0.83334 q 1.30729,0 1.99479,1.03646 0.69271,1.03125 0.69271,3 0,1.96354 -0.69271,3 -0.6875,1.03125 -1.99479,1.03125 -1.30729,0 -2,-1.03125 -0.6875,-1.03646 -0.6875,-3 0,-1.96875 0.6875,-3 0.69271,-1.03646 2,-1.03646 z"
         style="font-size:10.66666698px"
         id="path1052"
         inkscape:connector-curvature="0" />
      <path
         d="m 215.3125,267.31185 q -0.41667,0 -0.70312,0.29167 -0.28646,0.28645 -0.28646,0.70312 0,0.41146 0.28646,0.69792 0.28645,0.28125 0.70312,0.28125 0.41667,0 0.70313,-0.28125 0.28645,-0.28646 0.28645,-0.69792 0,-0.41146 -0.29166,-0.70312 -0.28646,-0.29167 -0.69792,-0.29167 z m 0,-0.67188 q 0.33333,0 0.64063,0.13021 0.30729,0.125 0.53125,0.36459 0.23958,0.23437 0.35937,0.53125 0.11979,0.29687 0.11979,0.64062 0,0.6875 -0.48437,1.16667 -0.47917,0.47396 -1.17709,0.47396 -0.70312,0 -1.17187,-0.46875 -0.46875,-0.46875 -0.46875,-1.17188 0,-0.69792 0.47917,-1.18229 0.47916,-0.48438 1.17187,-0.48438 z"
         style="font-size:10.66666698px"
         id="path1054"
         inkscape:connector-curvature="0" />
    </g>
    <path
       style="fill:none;fill-rule:evenodd;stroke:#000000;stroke-width:0.5;stroke-linecap:butt;stroke-linejoin:miter;stroke-miterlimit:4;stroke-dasharray:none;stroke-opacity:1"
       d="m 5.9531245,273.79195 h -1.700892 l 0.09449,-16.91443 h 1.511906"
       id="path864"
       inkscape:connector-curvature="0" />
    <g
       aria-label="Layer Height"
       transform="rotate(-90,-14.886964,9.7243716)"
       style="font-style:normal;font-weight:normal;font-size:2.82222223px;line-height:125%;font-family:sans-serif;letter-spacing:0px;word-spacing:0px;fill:#000000;fill-opacity:1;stroke:none;stroke-width:0.26458332px;stroke-linecap:butt;stroke-linejoin:miter;stroke-opacity:1"
       id="text996">
      <path
         d="m -279.437,25.641279 h 0.27836 v 1.823145 h 1.00183 v 0.234266 h -1.28019 z"
         style="stroke-width:0.26458332px"
         id="path998"
         inkscape:connector-curvature="0" />
      <path
         d="m -277.17564,26.922855 q -0.30731,0 -0.42582,0.07028 -0.11851,0.07028 -0.11851,0.239779 0,0.135047 0.0882,0.214973 0.0896,0.07855 0.24253,0.07855 0.21084,0 0.33762,-0.148828 0.12816,-0.150207 0.12816,-0.398254 v -0.0565 z m 0.50574,-0.104731 v 0.880566 h -0.25356 v -0.234266 q -0.0868,0.14056 -0.21635,0.208084 -0.12954,0.06615 -0.31695,0.06615 -0.23703,0 -0.37759,-0.132292 -0.13918,-0.13367 -0.13918,-0.356912 0,-0.260449 0.17364,-0.392741 0.17501,-0.132292 0.52089,-0.132292 h 0.35554 v -0.0248 q 0,-0.175011 -0.11576,-0.270096 -0.11437,-0.09646 -0.32246,-0.09646 -0.13229,0 -0.25769,0.03169 -0.1254,0.03169 -0.24116,0.09509 v -0.234266 q 0.13918,-0.05374 0.2701,-0.07993 0.13091,-0.02756 0.25493,-0.02756 0.33487,0 0.50023,0.173632 0.16537,0.173633 0.16537,0.526411 z"
         style="stroke-width:0.26458332px"
         id="path1000"
         inkscape:connector-curvature="0" />
      <path
         d="m -275.50408,27.842006 q -0.10749,0.275608 -0.20946,0.359668 -0.10198,0.08406 -0.27286,0.08406 h -0.20257 v -0.212218 h 0.14883 q 0.10473,0 0.16261,-0.04961 0.0579,-0.04961 0.12816,-0.234266 l 0.0455,-0.115755 -0.62425,-1.518598 h 0.26872 l 0.48231,1.207161 0.48231,-1.207161 h 0.26872 z"
         style="stroke-width:0.26458332px"
         id="path1002"
         inkscape:connector-curvature="0" />
      <path
         d="m -273.15591,26.863599 v 0.124024 h -1.16582 q 0.0165,0.261827 0.1571,0.399631 0.14194,0.136426 0.39412,0.136426 0.14607,0 0.2825,-0.03583 0.1378,-0.03583 0.27285,-0.107487 v 0.239778 q -0.13643,0.05788 -0.27974,0.08819 -0.14332,0.03032 -0.29077,0.03032 -0.36931,0 -0.58567,-0.214974 -0.21497,-0.214974 -0.21497,-0.581533 0,-0.37896 0.20395,-0.600824 0.20533,-0.223242 0.55259,-0.223242 0.31144,0 0.49196,0.201193 0.1819,0.199816 0.1819,0.544325 z m -0.25355,-0.07441 q -0.003,-0.208084 -0.11714,-0.332107 -0.113,-0.124023 -0.30041,-0.124023 -0.21222,0 -0.34038,0.119889 -0.12677,0.119889 -0.14607,0.337619 z"
         style="stroke-width:0.26458332px"
         id="path1004"
         inkscape:connector-curvature="0" />
      <path
         d="m -271.84539,26.39231 q -0.0427,-0.0248 -0.0937,-0.03583 -0.0496,-0.0124 -0.11024,-0.0124 -0.21497,0 -0.33073,0.14056 -0.11438,0.139182 -0.11438,0.401009 v 0.813042 h -0.25493 v -1.543402 h 0.25493 v 0.239778 q 0.0799,-0.14056 0.20809,-0.208083 0.12815,-0.0689 0.31143,-0.0689 0.0262,0 0.0579,0.0041 0.0317,0.0028 0.0703,0.0096 z"
         style="stroke-width:0.26458332px"
         id="path1006"
         inkscape:connector-curvature="0" />
      <path
         d="m -270.66717,25.641279 h 0.27837 v 0.84336 h 1.01148 v -0.84336 h 0.27836 v 2.057411 h -0.27836 v -0.979785 h -1.01148 v 0.979785 h -0.27837 z"
         style="stroke-width:0.26458332px"
         id="path1008"
         inkscape:connector-curvature="0" />
      <path
         d="m -267.23585,26.863599 v 0.124024 h -1.16582 q 0.0165,0.261827 0.15709,0.399631 0.14194,0.136426 0.39412,0.136426 0.14607,0 0.2825,-0.03583 0.1378,-0.03583 0.27285,-0.107487 v 0.239778 q -0.13643,0.05788 -0.27974,0.08819 -0.14332,0.03032 -0.29077,0.03032 -0.36931,0 -0.58566,-0.214974 -0.21498,-0.214974 -0.21498,-0.581533 0,-0.37896 0.20395,-0.600824 0.20533,-0.223242 0.5526,-0.223242 0.31143,0 0.49196,0.201193 0.1819,0.199816 0.1819,0.544325 z m -0.25356,-0.07441 q -0.003,-0.208084 -0.11714,-0.332107 -0.113,-0.124023 -0.30041,-0.124023 -0.21222,0 -0.34037,0.119889 -0.12678,0.119889 -0.14608,0.337619 z"
         style="stroke-width:0.26458332px"
         id="path1010"
         inkscape:connector-curvature="0" />
      <path
         d="m -266.81969,26.155288 h 0.25356 v 1.543402 h -0.25356 z m 0,-0.600825 h 0.25356 v 0.321083 h -0.25356 z"
         style="stroke-width:0.26458332px"
         id="path1012"
         inkscape:connector-curvature="0" />
      <path
         d="m -265.02135,26.909075 q 0,-0.275608 -0.11437,-0.427192 -0.113,-0.151585 -0.31833,-0.151585 -0.20395,0 -0.31833,0.151585 -0.113,0.151584 -0.113,0.427192 0,0.274229 0.113,0.425813 0.11438,0.151585 0.31833,0.151585 0.20533,0 0.31833,-0.151585 0.11437,-0.151584 0.11437,-0.425813 z m 0.25356,0.598068 q 0,0.394119 -0.17501,0.585666 -0.17501,0.192926 -0.53605,0.192926 -0.13367,0 -0.25219,-0.02067 -0.11851,-0.01929 -0.23013,-0.06063 v -0.246668 q 0.11162,0.06063 0.22049,0.08957 0.10886,0.02894 0.22186,0.02894 0.24943,0 0.37345,-0.130914 0.12402,-0.129535 0.12402,-0.392741 v -0.125401 q -0.0785,0.136426 -0.20119,0.20395 -0.12264,0.06752 -0.29352,0.06752 -0.28388,0 -0.45751,-0.216352 -0.17363,-0.216352 -0.17363,-0.573263 0,-0.35829 0.17363,-0.574642 0.17363,-0.216352 0.45751,-0.216352 0.17088,0 0.29352,0.06752 0.12265,0.06752 0.20119,0.20395 v -0.234266 h 0.25356 z"
         style="stroke-width:0.26458332px"
         id="path1014"
         inkscape:connector-curvature="0" />
      <path
         d="m -262.96256,26.767137 v 0.931553 h -0.25356 v -0.923285 q 0,-0.219108 -0.0854,-0.327973 -0.0854,-0.108865 -0.25632,-0.108865 -0.20533,0 -0.32384,0.130913 -0.11851,0.130914 -0.11851,0.356912 v 0.872298 h -0.25494 v -2.144227 h 0.25494 v 0.840603 q 0.091,-0.139182 0.2136,-0.208083 0.12402,-0.0689 0.28525,-0.0689 0.26596,0 0.40239,0.165364 0.13642,0.163987 0.13642,0.483692 z"
         style="stroke-width:0.26458332px"
         id="path1016"
         inkscape:connector-curvature="0" />
      <path
         d="m -262.20326,25.717071 v 0.438217 h 0.52228 v 0.197059 h -0.52228 v 0.837847 q 0,0.188792 0.051,0.242535 0.0524,0.05374 0.21084,0.05374 h 0.26045 v 0.212217 h -0.26045 q -0.29352,0 -0.40514,-0.108865 -0.11162,-0.110243 -0.11162,-0.399631 v -0.837847 h -0.18604 v -0.197059 h 0.18604 v -0.438217 z"
         style="stroke-width:0.26458332px"
         id="path1018"
         inkscape:connector-curvature="0" />
    </g>
    <path
       style="fill:none;fill-rule:evenodd;stroke:#000000;stroke-width:0.5;stroke-linecap:butt;stroke-linejoin:miter;stroke-miterlimit:4;stroke-dasharray:none;stroke-opacity:1"
       d="m 25.702382,254.89314 0.09449,-2.26785 h 29.671132 l -0.0945,1.88988"
       id="path882"
       inkscape:connector-curvature="0" />
    <g
       aria-label="tan(60°) * 0.1mm"
       transform="matrix(0.26458333,0,0,0.26458333,-24.563704,160.66051)"
       style="font-style:normal;font-weight:normal;font-size:10.66666698px;line-height:125%;font-family:sans-serif;letter-spacing:0px;word-spacing:0px;fill:#000000;fill-opacity:1;stroke:none;stroke-width:1px;stroke-linecap:butt;stroke-linejoin:miter;stroke-opacity:1"
       id="flowRoot884">
      <path
         d="m 200.16797,335.61589 v 1.65625 h 1.97396 v 0.74479 h -1.97396 v 3.16666 q 0,0.71355 0.19271,0.91667 0.19791,0.20313 0.79687,0.20313 h 0.98438 v 0.80208 h -0.98438 q -1.10937,0 -1.53125,-0.41146 -0.42187,-0.41667 -0.42187,-1.51042 v -3.16666 h -0.70313 v -0.74479 h 0.70313 v -1.65625 z"
         id="path1021"
         inkscape:connector-curvature="0" />
      <path
         d="m 206.05859,340.17318 q -1.16145,0 -1.60937,0.26562 -0.44792,0.26563 -0.44792,0.90625 0,0.51042 0.33334,0.8125 0.33854,0.29688 0.91666,0.29688 0.79688,0 1.27604,-0.5625 0.48438,-0.56771 0.48438,-1.50521 v -0.21354 z m 1.91146,-0.39584 v 3.32813 h -0.95833 v -0.88542 q -0.32813,0.53125 -0.81771,0.78646 -0.48958,0.25 -1.19792,0.25 -0.89583,0 -1.42708,-0.5 -0.52604,-0.50521 -0.52604,-1.34896 0,-0.98437 0.65625,-1.48437 0.66146,-0.5 1.96875,-0.5 h 1.34375 v -0.0937 q 0,-0.66146 -0.4375,-1.02084 -0.43229,-0.36458 -1.21875,-0.36458 -0.5,0 -0.97396,0.11979 -0.47396,0.11979 -0.91146,0.35938 v -0.88542 q 0.52604,-0.20312 1.02084,-0.30208 0.49479,-0.10417 0.96354,-0.10417 1.26562,0 1.89062,0.65625 0.625,0.65625 0.625,1.98958 z"
         id="path1023"
         inkscape:connector-curvature="0" />
      <path
         d="m 214.79818,339.58464 v 3.52083 h -0.95834 v -3.48958 q 0,-0.82813 -0.32291,-1.23959 -0.32292,-0.41146 -0.96875,-0.41146 -0.77604,0 -1.22396,0.4948 -0.44792,0.49479 -0.44792,1.34895 v 3.29688 h -0.96354 v -5.83333 h 0.96354 v 0.90625 q 0.34375,-0.52605 0.80729,-0.78646 0.46875,-0.26042 1.07813,-0.26042 1.00521,0 1.52083,0.625 0.51563,0.61979 0.51563,1.82813 z"
         id="path1025"
         inkscape:connector-curvature="0" />
      <path
         d="m 219.02214,335.01172 q -0.69792,1.19792 -1.03646,2.36979 -0.33854,1.17188 -0.33854,2.375 0,1.20313 0.33854,2.38542 0.34375,1.17708 1.03646,2.36979 h -0.83334 q -0.78125,-1.22396 -1.17187,-2.40625 -0.38542,-1.18229 -0.38542,-2.34896 0,-1.16146 0.38542,-2.33854 0.38541,-1.17708 1.17187,-2.40625 z"
         id="path1027"
         inkscape:connector-curvature="0" />
      <path
         d="m 223.40235,338.79818 q -0.70834,0 -1.125,0.48437 -0.41146,0.48438 -0.41146,1.32813 0,0.83854 0.41146,1.32812 0.41666,0.48438 1.125,0.48438 0.70833,0 1.11979,-0.48438 0.41666,-0.48958 0.41666,-1.32812 0,-0.84375 -0.41666,-1.32813 -0.41146,-0.48437 -1.11979,-0.48437 z m 2.08854,-3.29688 v 0.95834 q -0.39584,-0.1875 -0.80209,-0.28646 -0.40104,-0.099 -0.79687,-0.099 -1.04167,0 -1.59375,0.70312 -0.54688,0.70313 -0.625,2.125 0.30729,-0.45312 0.77083,-0.6927 0.46354,-0.2448 1.02084,-0.2448 1.17187,0 1.84895,0.71355 0.6823,0.70833 0.6823,1.93229 0,1.19791 -0.70834,1.92187 -0.70833,0.72396 -1.88541,0.72396 -1.34896,0 -2.0625,-1.03125 -0.71355,-1.03646 -0.71355,-3 0,-1.84375 0.875,-2.9375 0.875,-1.09896 2.34896,-1.09896 0.39584,0 0.79688,0.0781 0.40625,0.0781 0.84375,0.23437 z"
         id="path1029"
         inkscape:connector-curvature="0" />
      <path
         d="m 230.0638,336.02214 q -0.8125,0 -1.22396,0.80208 -0.40625,0.79687 -0.40625,2.40104 0,1.59896 0.40625,2.40104 0.41146,0.79688 1.22396,0.79688 0.81771,0 1.22396,-0.79688 0.41146,-0.80208 0.41146,-2.40104 0,-1.60417 -0.41146,-2.40104 -0.40625,-0.80208 -1.22396,-0.80208 z m 0,-0.83334 q 1.30729,0 1.99479,1.03646 0.69271,1.03125 0.69271,3 0,1.96354 -0.69271,3 -0.6875,1.03125 -1.99479,1.03125 -1.30729,0 -2,-1.03125 -0.6875,-1.03646 -0.6875,-3 0,-1.96875 0.6875,-3 0.69271,-1.03646 2,-1.03646 z"
         id="path1031"
         inkscape:connector-curvature="0" />
      <path
         d="m 236.13151,335.86068 q -0.41667,0 -0.70312,0.29166 -0.28646,0.28646 -0.28646,0.70313 0,0.41146 0.28646,0.69792 0.28645,0.28125 0.70312,0.28125 0.41667,0 0.70313,-0.28125 0.28645,-0.28646 0.28645,-0.69792 0,-0.41146 -0.29166,-0.70313 -0.28646,-0.29166 -0.69792,-0.29166 z m 0,-0.67188 q 0.33333,0 0.64063,0.13021 0.30729,0.125 0.53125,0.36458 0.23958,0.23438 0.35937,0.53125 0.11979,0.29688 0.11979,0.64063 0,0.6875 -0.48437,1.16667 -0.47917,0.47395 -1.17709,0.47395 -0.70312,0 -1.17187,-0.46875 -0.46875,-0.46875 -0.46875,-1.17187 0,-0.69792 0.47917,-1.18229 0.47916,-0.48438 1.17187,-0.48438 z"
         id="path1033"
         inkscape:connector-curvature="0" />
      <path
         d="m 239.65235,335.01172 h 0.83333 q 0.78125,1.22917 1.16667,2.40625 0.39062,1.17708 0.39062,2.33854 0,1.16667 -0.39062,2.34896 -0.38542,1.18229 -1.16667,2.40625 h -0.83333 q 0.6927,-1.19271 1.03125,-2.36979 0.34375,-1.18229 0.34375,-2.38542 0,-1.20312 -0.34375,-2.375 -0.33855,-1.17187 -1.03125,-2.36979 z"
         id="path1035"
         inkscape:connector-curvature="0" />
      <path
         d="m 251.3763,336.61068 -1.86979,1.01041 1.86979,1.01563 -0.30208,0.51042 -1.75,-1.0573 v 1.96355 h -0.59375 v -1.96355 l -1.75,1.0573 -0.30208,-0.51042 1.86979,-1.01563 -1.86979,-1.01041 0.30208,-0.51563 1.75,1.05729 v -1.96354 h 0.59375 v 1.96354 l 1.75,-1.05729 z"
         id="path1037"
         inkscape:connector-curvature="0" />
      <path
         d="m 258.48047,336.02214 q -0.8125,0 -1.22396,0.80208 -0.40625,0.79687 -0.40625,2.40104 0,1.59896 0.40625,2.40104 0.41146,0.79688 1.22396,0.79688 0.81771,0 1.22396,-0.79688 0.41146,-0.80208 0.41146,-2.40104 0,-1.60417 -0.41146,-2.40104 -0.40625,-0.80208 -1.22396,-0.80208 z m 0,-0.83334 q 1.30729,0 1.99479,1.03646 0.69271,1.03125 0.69271,3 0,1.96354 -0.69271,3 -0.6875,1.03125 -1.99479,1.03125 -1.30729,0 -2,-1.03125 -0.6875,-1.03646 -0.6875,-3 0,-1.96875 0.6875,-3 0.69271,-1.03646 2,-1.03646 z"
         id="path1039"
         inkscape:connector-curvature="0" />
      <path
         d="m 263.02214,341.78255 h 1.09896 v 1.32292 h -1.09896 z"
         id="path1041"
         inkscape:connector-curvature="0" />
      <path
         d="m 266.60026,342.22005 h 1.71875 v -5.93229 l -1.86979,0.375 v -0.95833 l 1.85937,-0.375 h 1.05209 v 6.89062 h 1.71875 v 0.88542 h -4.47917 z"
         id="path1043"
         inkscape:connector-curvature="0" />
      <path
         d="m 277.61589,338.39193 q 0.35938,-0.64584 0.85938,-0.95313 0.5,-0.30729 1.17708,-0.30729 0.91146,0 1.40625,0.64063 0.49479,0.63541 0.49479,1.8125 v 3.52083 h -0.96354 v -3.48958 q 0,-0.83855 -0.29688,-1.2448 -0.29687,-0.40625 -0.90625,-0.40625 -0.74479,0 -1.17708,0.4948 -0.43229,0.49479 -0.43229,1.34895 v 3.29688 h -0.96354 v -3.48958 q 0,-0.84375 -0.29688,-1.2448 -0.29687,-0.40625 -0.91666,-0.40625 -0.73438,0 -1.16667,0.5 -0.43229,0.4948 -0.43229,1.34375 v 3.29688 h -0.96354 v -5.83333 h 0.96354 v 0.90625 q 0.32812,-0.53646 0.78646,-0.79167 0.45833,-0.25521 1.08854,-0.25521 0.63541,0 1.07812,0.32292 0.44792,0.32291 0.66146,0.9375 z"
         id="path1045"
         inkscape:connector-curvature="0" />
      <path
         d="m 288.01172,338.39193 q 0.35937,-0.64584 0.85937,-0.95313 0.5,-0.30729 1.17709,-0.30729 0.91146,0 1.40625,0.64063 0.49479,0.63541 0.49479,1.8125 v 3.52083 h -0.96354 v -3.48958 q 0,-0.83855 -0.29688,-1.2448 -0.29687,-0.40625 -0.90625,-0.40625 -0.74479,0 -1.17708,0.4948 -0.43229,0.49479 -0.43229,1.34895 v 3.29688 h -0.96354 v -3.48958 q 0,-0.84375 -0.29688,-1.2448 -0.29687,-0.40625 -0.91667,-0.40625 -0.73437,0 -1.16666,0.5 -0.43229,0.4948 -0.43229,1.34375 v 3.29688 h -0.96355 v -5.83333 h 0.96355 v 0.90625 q 0.32812,-0.53646 0.78645,-0.79167 0.45834,-0.25521 1.08855,-0.25521 0.63541,0 1.07812,0.32292 0.44792,0.32291 0.66146,0.9375 z"
         id="path1047"
         inkscape:connector-curvature="0" />
    </g>
  </g>
</svg>
